<svg width="32" height="32" viewBox="0 0 32 32" fill="none" xmlns="http://www.w3.org/2000/svg">
<path fill-rule="evenodd" clip-rule="evenodd" d="M2.66667 18.0239L6.13621 16H8V14.6667C8 11.7211 10.3878 9.33333 13.3333 9.33333H21.3333V5.33333C21.3333 3.86057 20.1394 2.66667 18.6667 2.66667H5.33333C3.86057 2.66667 2.66667 3.86057 2.66667 5.33333V18.0239ZM6.85714 18.6667H8V22.6667C8 25.6122 10.3878 28 13.3333 28H25.1429L32 32V14.6667C32 11.7211 29.6122 9.33333 26.6667 9.33333H24V5.33333C24 2.38781 21.6122 0 18.6667 0H5.33333C2.38781 0 0 2.38781 0 5.33333V22.6667L6.85714 18.6667ZM25.8638 25.3333L29.3333 27.3572V14.6667C29.3333 13.1939 28.1394 12 26.6667 12H13.3333C11.8606 12 10.6667 13.1939 10.6667 14.6667V22.6667C10.6667 24.1394 11.8606 25.3333 13.3333 25.3333H25.8638ZM14.6667 20C15.403 20 16 19.403 16 18.6667C16 17.9303 15.403 17.3333 14.6667 17.3333C13.9303 17.3333 13.3333 17.9303 13.3333 18.6667C13.3333 19.403 13.9303 20 14.6667 20ZM21.3333 18.6667C21.3333 19.403 20.7364 20 20 20C19.2636 20 18.6667 19.403 18.6667 18.6667C18.6667 17.9303 19.2636 17.3333 20 17.3333C20.7364 17.3333 21.3333 17.9303 21.3333 18.6667ZM25.3333 20C26.0697 20 26.6667 19.403 26.6667 18.6667C26.6667 17.9303 26.0697 17.3333 25.3333 17.3333C24.597 17.3333 24 17.9303 24 18.6667C24 19.403 24.597 20 25.3333 20Z" fill="#0067C5"/>
</svg>
