<svg width="1em" height="1em" viewBox="-1 -1 25 50" fill="none" focusable="false" role="img"
     xmlns="http://www.w3.org/2000/svg">
    <path d="M14.785 47.406H6.752V47.386V47.3627V47.3392V47.3154V47.2914V47.2672V47.2427V47.2179V47.1929V47.1677V47.1423V47.1166V47.0907V47.0645V47.0381V47.0115V46.9847V46.9576V46.9302V46.9027V46.8749V46.8469V46.8187V46.7902V46.7615V46.7326V46.7034V46.6741V46.6445V46.6146V46.5846V46.5543V46.5238V46.4931V46.4622V46.4311V46.3997V46.3681V46.3363V46.3043V46.272V46.2396V46.2069V46.174V46.1409V46.1076V46.0741V46.0404V46.0064V45.9723V45.9379V45.9033V45.8685V45.8335V45.7984V45.763V45.7273V45.6915V45.6555V45.6193V45.5829V45.5463V45.5094V45.4724V45.4352V45.3978V45.3601V45.3223V45.2843V45.2461V45.2077V45.1691V45.1303V45.0913V45.0521V45.0127V44.9732V44.9334V44.8935V44.8533V44.813V44.7725V44.7318V44.6909V44.6498V44.6085V44.5671V44.5255V44.4837V44.4417V44.3995V44.3571V44.3146V44.2719V44.229V44.1859V44.1426V44.0992V44.0556V44.0118V43.9679V43.9237V43.8794V43.835V43.7903V43.7455V43.7005V43.6553V43.61V43.5645V43.5188V43.473V43.427V43.3808V43.3345V43.288V43.2413V43.1945V43.1475V43.1004V43.053V43.0056V42.9579V42.9101V42.8622V42.8141V42.7658V42.7174V42.6688V42.6201V42.5712V42.5222V42.473V42.4236V42.3741V42.3245V42.2747V42.2248V42.1747V42.1244V42.074V42.0235V41.9728V41.922V41.871V41.8199V41.7686V41.7172V41.6657V41.614V41.5622V41.5102V41.4581V41.4059V41.3535V41.301V41.2483V41.1955V41.1426V41.0896V41.0364V40.983V40.9296V40.876V40.8223V40.7684V40.7144V40.6603V40.6061V40.5517V40.4972V40.4426V40.3879V40.333V40.278V40.2229V40.1677V40.1123V40.0569V40.0013V39.9455V39.8897V39.8337V39.7777V39.7215V39.6652V39.6088V39.5522V39.4956V39.4388V39.3819V39.3249V39.2678V39.2106V39.1533V39.0959V39.0383V38.9807V38.9229V38.8651V38.8071V38.749V38.6908V38.6326V38.5742V38.5157V38.4571V38.3984V38.3396V38.2807V38.2217V38.1626V38.1035V38.0442V37.9848V37.9253V37.8657V37.8061V37.7463V37.6865V37.6265V37.5665V37.5064V37.4462V37.3858V37.3255V37.265V37.2044V37.1438V37.083V37.0222V36.9613V36.9003V36.8392V36.778V36.7168V36.6555V36.5941V36.5326V36.471V36.4094V36.3477V36.2859V36.224V36.162V36.1V36.0379V35.9758V35.9135V35.8512V35.7888V35.7264V35.6638V35.6012V35.5386V35.4758V35.413V35.3502V35.2872V35.2242V35.1612V35.098V35.0348V34.9716V34.9083V34.8449V34.7815V34.718V34.6544V34.5908V34.5271V34.4634V34.3996V34.3358V34.2719V34.2079V34.1439V34.0799V34.0158V33.9516V33.8874V33.8231V33.7588V33.6945V33.6301V33.5656V33.5011V33.4366V33.372V33.3073V33.2427V33.1779V33.1132V33.0484V32.9835V32.9186V32.8537V32.7887V32.7237V32.6587V32.5936V32.5285V32.4633V32.3981V32.3329V32.2677V32.2024V32.1371V32.0717V32.0063V31.9409V31.8755V31.81V31.7445V31.679V31.6134V31.5478V31.4822V31.4166V31.351V31.2853V31.2196V31.1539V31.0881V31.0224V30.9566V30.8908V30.825V30.7591V30.6933V30.6274V30.5615V30.4956V30.4297V30.3638V30.2978V30.2319V30.1659V30.1V30.034V29.968V29.902V29.836V29.77V29.7039V29.6379V29.5719V29.5058V29.4398V29.3737V29.3077V29.2416V29.1756V29.1095V29.0435V28.9774V28.9114V28.8453V28.7793V28.7132V28.6472V28.5812V28.5151V28.4491V28.3831V28.3171V28.2511V28.1851V28.1192V28.0532V27.9872V27.9213V27.8554V27.7895V27.7235V27.6577V27.5918V27.5259V27.4601V27.3943V27.3285V27.2627V27.1969V27.1312V27.0655V26.9998V26.9341V26.8684V26.8028V26.7372V26.6716V26.606V26.5405V26.475V26.4095V26.3441V26.2787V26.2133V26.1479V26.0826V26.0173V25.952V25.8868V25.8216V25.7565V25.6913V25.6263V25.5612V25.4962V25.4312V25.3663V25.3014V25.2365V25.1717V25.1069V25.0422V24.9775V24.9129V24.8483V24.7837V24.7192V24.6548V24.5903V24.526V24.4617V24.3974V24.3332V24.269V23.269H5.752H1.98199V16.739H5.752H6.752V15.739V10.221C6.752 8.37553 7.1948 6.07863 8.52673 4.26983C9.82015 2.51334 12.0382 1.09648 15.8751 1.09601C15.8757 1.09601 15.8764 1.09601 15.877 1.09601L22.307 1.12111V7.40301H22.3028H22.2912H22.2795H22.2678H22.256H22.2442H22.2324H22.2205H22.2085H22.1965H22.1845H22.1724H22.1603H22.1481H22.1359H22.1237H22.1114H22.0991H22.0867H22.0743H22.0618H22.0493H22.0368H22.0242H22.0116H21.999H21.9863H21.9736H21.9608H21.948H21.9352H21.9223H21.9094H21.8965H21.8835H21.8705H21.8574H21.8443H21.8312H21.8181H21.8049H21.7917H21.7784H21.7652H21.7518H21.7385H21.7251H21.7117H21.6983H21.6848H21.6713H21.6578H21.6443H21.6307H21.6171H21.6035H21.5898H21.5761H21.5624H21.5487H21.5349H21.5211H21.5073H21.4934H21.4796H21.4657H21.4518H21.4378H21.4239H21.4099H21.3959H21.3819H21.3678H21.3538H21.3397H21.3256H21.3115H21.2973H21.2831H21.269H21.2548H21.2405H21.2263H21.212H21.1978H21.1835H21.1692H21.1548H21.1405H21.1262H21.1118H21.0974H21.083H21.0686H21.0542H21.0397H21.0253H21.0108H20.9964H20.9819H20.9674H20.9529H20.9384H20.9238H20.9093H20.8948H20.8802H20.8656H20.8511H20.8365H20.8219H20.8073H20.7927H20.7781H20.7635H20.7489H20.7343H20.7196H20.705H20.6904H20.6757H20.6611H20.6464H20.6318H20.6171H20.6025H20.5878H20.5732H20.5585H20.5438H20.5292H20.5145H20.4999H20.4852H20.4706H20.4559H20.4412H20.4266H20.4119H20.3973H20.3827H20.368H20.3534H20.3388H20.3241H20.3095H20.2949H20.2803H20.2657H20.2511H20.2365H20.2219H20.2074H20.1928H20.1783H20.1637H20.1492H20.1346H20.1201H20.1056H20.0911H20.0766H20.0622H20.0477H20.0333H20.0188H20.0044H19.99H19.9756H19.9612H19.9468H19.9325H19.9182H19.9038H19.8895H19.8752H19.861H19.8467H19.8325H19.8183H19.804H19.7899H19.7757H19.7615H19.7474H19.7333H19.7192H19.7052H19.6911H19.6771H19.6631H19.6491H19.6351H19.6212H19.6073H19.5934H19.5795H19.5657H19.5519H19.5381H19.5243H19.5106H19.4969H19.4832H19.4695H19.4559H19.4423H19.4287H19.4152H19.4016H19.3881H19.3747H19.3612H19.3478H19.3345H19.3211H19.3078H19.2945H19.2813H19.2681H19.2549H19.2417H19.2286H19.2155H19.2025H19.1895H19.1765H19.1636H19.1507H19.1378H19.1249H19.1121H19.0994H19.0867H19.074H19.0613H19.0487H19.0361H19.0236H19.0111H18.9987H18.9862H18.9739H18.9615H18.9493H18.937H18.9248H18.9126H18.9005H18.8884H18.8764H18.8644H18.8525H18.8406H18.8287H18.8169H18.8051H18.7934H18.7817H18.7701H18.7585H18.747H18.7355H18.7241H18.7127H18.7014H18.6901H18.6789H18.6677H18.6565H18.6454H18.6344H18.6234H18.6125H18.6016H18.5908H18.58H18.5693H18.5586H18.548H18.5375H18.527H18.5165H18.5061H18.4958H18.4855H18.4753H18.4651H18.455H18.445H18.435H18.425H18.4152H18.4054H18.3956H18.3859H18.3763H18.3667H18.3572H18.3477H18.3383H18.329H18.3198H18.3106H18.3014H18.2923H18.2833H18.2744H18.2655H18.2567H18.2479H18.2392H18.2306H18.2221H18.2136H18.2052H18.1968H18.1885H18.1803H18.1722H18.1641H18.1561H18.1482H18.1403H18.1325H18.1248H18.1171H18.1095H18.102H18.0946H18.0872H18.0799H18.0727H18.0656H18.0585H18.0515H18.0446H18.0377H18.0309H18.0243H18.0176H18.0111H18.0046H17.9982H17.9919H17.9857H17.9796H17.9735H17.9675H17.9616H17.9557H17.95H17.9443H17.9387H17.9332H17.9278H17.9224H17.9172H17.912C17.3296 7.40301 16.5441 7.54524 15.8857 8.08388C15.1892 8.65365 14.785 9.54305 14.785 10.725V15.739V16.739H15.785H22.3222L21.6523 23.269H15.785H14.785V24.269V24.3324V24.3959V24.4594V24.523V24.5866V24.6503V24.714V24.7778V24.8417V24.9056V24.9695V25.0335V25.0975V25.1616V25.2258V25.29V25.3542V25.4185V25.4828V25.5471V25.6115V25.676V25.7405V25.805V25.8696V25.9342V25.9989V26.0635V26.1283V26.193V26.2578V26.3227V26.3875V26.4524V26.5174V26.5823V26.6473V26.7124V26.7774V26.8425V26.9076V26.9728V27.038V27.1032V27.1684V27.2337V27.2989V27.3642V27.4296V27.4949V27.5603V27.6257V27.6911V27.7565V27.822V27.8875V27.9529V28.0185V28.084V28.1495V28.2151V28.2806V28.3462V28.4118V28.4774V28.543V28.6087V28.6743V28.7399V28.8056V28.8713V28.9369V29.0026V29.0683V29.134V29.1997V29.2653V29.331V29.3967V29.4624V29.5281V29.5938V29.6595V29.7252V29.7909V29.8566V29.9223V29.988V30.0537V30.1194V30.185V30.2507V30.3163V30.382V30.4476V30.5133V30.5789V30.6445V30.7101V30.7756V30.8412V30.9068V30.9723V31.0378V31.1033V31.1688V31.2343V31.2997V31.3652V31.4306V31.496V31.5614V31.6267V31.692V31.7573V31.8226V31.8879V31.9531V32.0183V32.0835V32.1486V32.2137V32.2788V32.3439V32.4089V32.4739V32.5389V32.6038V32.6687V32.7336V32.7984V32.8632V32.928V32.9927V33.0574V33.1221V33.1867V33.2512V33.3158V33.3803V33.4447V33.5091V33.5735V33.6378V33.7021V33.7663V33.8305V33.8946V33.9587V34.0228V34.0868V34.1507V34.2146V34.2784V34.3422V34.406V34.4696V34.5333V34.5968V34.6604V34.7238V34.7872V34.8506V34.9139V34.9771V35.0403V35.1034V35.1665V35.2295V35.2924V35.3553V35.4181V35.4808V35.5435V35.6061V35.6686V35.7311V35.7935V35.8558V35.9181V35.9803V36.0424V36.1045V36.1665V36.2284V36.2902V36.352V36.4137V36.4753V36.5368V36.5983V36.6597V36.721V36.7822V36.8433V36.9044V36.9654V37.0263V37.0871V37.1478V37.2085V37.2691V37.3295V37.3899V37.4502V37.5104V37.5706V37.6306V37.6906V37.7504V37.8102V37.8699V37.9295V37.9889V38.0483V38.1076V38.1669V38.226V38.285V38.3439V38.4027V38.4614V38.5201V38.5786V38.637V38.6953V38.7535V38.8116V38.8696V38.9275V38.9853V39.043V39.1006V39.1581V39.2154V39.2727V39.3298V39.3869V39.4438V39.5006V39.5573V39.6139V39.6704V39.7267V39.783V39.8391V39.8951V39.951V40.0068V40.0625V40.118V40.1734V40.2287V40.2839V40.339V40.3939V40.4487V40.5034V40.5579V40.6124V40.6667V40.7208V40.7749V40.8288V40.8826V40.9363V40.9898V41.0432V41.0965V41.1496V41.2026V41.2555V41.3082V41.3608V41.4132V41.4656V41.5177V41.5698V41.6217V41.6734V41.7251V41.7766V41.8279V41.8791V41.9301V41.9811V42.0318V42.0824V42.1329V42.1832V42.2334V42.2834V42.3333V42.383V42.4326V42.482V42.5313V42.5804V42.6294V42.6782V42.7269V42.7754V42.8237V42.8719V42.92V42.9678V43.0156V43.0631V43.1105V43.1577V43.2048V43.2517V43.2985V43.345V43.3915V43.4377V43.4838V43.5297V43.5755V43.621V43.6665V43.7117V43.7568V43.8017V43.8464V43.891V43.9353V43.9796V44.0236V44.0675V44.1111V44.1546V44.198V44.2411V44.2841V44.3269V44.3695V44.4119V44.4542V44.4962V44.5381V44.5798V44.6213V44.6627V44.7038V44.7448V44.7855V44.8261V44.8665V44.9067V44.9467V44.9865V45.0262V45.0656V45.1049V45.1439V45.1828V45.2214V45.2599V45.2981V45.3362V45.3741V45.4118V45.4492V45.4865V45.5236V45.5605V45.5971V45.6336V45.6699V45.7059V45.7418V45.7774V45.8129V45.8481V45.8831V45.9179V45.9525V45.9869V46.0211V46.0551V46.0889V46.1224V46.1557V46.1889V46.2218V46.2545V46.2869V46.3192V46.3512V46.3831V46.4147V46.446V46.4772V46.5081V46.5389V46.5693V46.5996V46.6297V46.6595V46.6891V46.7185V46.7476V46.7765V46.8052V46.8337V46.8619V46.8899V46.9176V46.9452V46.9725V46.9995V47.0264V47.053V47.0793V47.1055V47.1314V47.157V47.1824V47.2076V47.2325V47.2572V47.2817V47.3059V47.3299V47.3536V47.3771V47.4003V47.406Z"
          fill="#0056B4" stroke="#0056B4" stroke-width="4"/>
</svg>
