<?xml version="1.0" encoding="UTF-8"?>
<svg width="67px" height="48px" viewBox="0 0 67 48" version="1.1" xmlns="http://www.w3.org/2000/svg" xmlns:xlink="http://www.w3.org/1999/xlink">
    <title>Color/11-users/id-card-1</title>
    <g id="Nye-skisser" stroke="none" stroke-width="1" fill="none" fill-rule="evenodd">
        <g id="Hover-Copy-8" transform="translate(-285.000000, -349.000000)">
            <g id="Group" transform="translate(285.000000, 338.000000)">
                <g id="Color/11-users/id-card-1" transform="translate(33.500000, 33.500000) rotate(-360.000000) translate(-33.500000, -33.500000) ">
                    <g id="Group-30" transform="translate(0.000000, 11.166667)">
                        <path d="M65.6041667,0 L1.39583333,0 C0.625333333,0 0,0.625333333 0,1.39583333 L0,46.0625 C0,46.833 0.625333333,47.4583333 1.39583333,47.4583333 L12.5625,47.4583333 C13.333,47.4583333 13.9583333,46.833 13.9583333,46.0625 L13.9583333,43.96875 C13.9583333,42.0452917 15.5244583,40.4791667 17.4479167,40.4791667 C19.371375,40.4791667 20.9375,42.0452917 20.9375,43.96875 L20.9375,46.0625 C20.9375,46.833 21.5628333,47.4583333 22.3333333,47.4583333 L44.6666667,47.4583333 C45.4371667,47.4583333 46.0625,46.833 46.0625,46.0625 L46.0625,43.96875 C46.0625,42.0452917 47.628625,40.4791667 49.5520833,40.4791667 C51.4755417,40.4791667 53.0416667,42.0452917 53.0416667,43.96875 L53.0416667,46.0625 C53.0416667,46.833 53.667,47.4583333 54.4375,47.4583333 L65.6041667,47.4583333 C66.3746667,47.4583333 67,46.833 67,46.0625 L67,1.39583333 C67,0.625333333 66.3746667,0 65.6041667,0 Z" id="line/id-card-1" fill="#6AB889" fill-rule="nonzero"></path>
                        <ellipse id="Oval" fill="#E7E9E9" cx="16.8115809" cy="13.9583333" rx="5.64491422" ry="5.58333333"></ellipse>
                        <path d="M28.1629902,33.5 C28.1629902,27.3328203 23.1083618,22.3333333 16.8731618,22.3333333 C10.6379617,22.3333333 5.58333333,27.3328203 5.58333333,33.5 C5.58333333,33.5 27.410335,33.5 28.1629902,33.5 Z" id="Oval" fill="#E7E9E9"></path>
                        <path d="M34.6420455,30.7083333 L57.4829545,30.7083333 C58.1136888,30.7083333 58.625,31.3332692 58.625,32.1041667 C58.625,32.8750641 58.1136888,33.5 57.4829545,33.5 L34.6420455,33.5 C34.0113112,33.5 33.5,32.8750641 33.5,32.1041667 C33.5,31.3332692 34.0113112,30.7083333 34.6420455,30.7083333 Z" id="Rectangle" fill="#3E3832"></path>
                        <path d="M34.6420455,25.125 L57.4829545,25.125 C58.1136888,25.125 58.625,25.7499359 58.625,26.5208333 C58.625,27.2917308 58.1136888,27.9166667 57.4829545,27.9166667 L34.6420455,27.9166667 C34.0113112,27.9166667 33.5,27.2917308 33.5,26.5208333 C33.5,25.7499359 34.0113112,25.125 34.6420455,25.125 Z" id="Rectangle" fill="#3E3832"></path>
                        <path d="M34.6420455,19.5416667 L57.4829545,19.5416667 C58.1136888,19.5416667 58.625,20.1666025 58.625,20.9375 C58.625,21.7083975 58.1136888,22.3333333 57.4829545,22.3333333 L34.6420455,22.3333333 C34.0113112,22.3333333 33.5,21.7083975 33.5,20.9375 C33.5,20.1666025 34.0113112,19.5416667 34.6420455,19.5416667 Z" id="Rectangle" fill="#3E3832"></path>
                        <path d="M34.6166667,11.1666667 L43.55,11.1666667 C44.166718,11.1666667 44.6666667,11.7916025 44.6666667,12.5625 C44.6666667,13.3333975 44.166718,13.9583333 43.55,13.9583333 L34.6166667,13.9583333 C33.9999487,13.9583333 33.5,13.3333975 33.5,12.5625 C33.5,11.7916025 33.9999487,11.1666667 34.6166667,11.1666667 Z" id="Rectangle" fill="#3E3832"></path>
                    </g>
                </g>
            </g>
        </g>
    </g>
</svg>