<?xml version="1.0" encoding="UTF-8"?>
<svg width="215px" height="46px" viewBox="0 0 215 46" version="1.1" xmlns="http://www.w3.org/2000/svg" xmlns:xlink="http://www.w3.org/1999/xlink">
    <title>NAV_arbplassen_logo</title>
    <g id="Nye-skisser" stroke="none" stroke-width="1" fill="none" fill-rule="evenodd">
        <g id="Hover-Copy-8" transform="translate(-609.000000, -347.000000)" fill-rule="nonzero">
            <g id="NAV_arbplassen_logo" transform="translate(609.000000, 347.500000)">
                <polygon id="Path" fill="#40C1AC" points="17.9921053 0 0 45.2631579 197.007895 45.2631579 215 0"></polygon>
                <g id="Group" transform="translate(21.500000, 11.315789)" fill="#062040">
                    <path d="M6.11052632,5.88421053 C8.03421053,5.88421053 9.27894737,6.78947368 10.0710526,8.03421053 L10.0710526,6.45 C10.0710526,6.33684211 10.1842105,6.22368421 10.2973684,6.22368421 L12.3342105,6.22368421 C12.4473684,6.22368421 12.5605263,6.33684211 12.5605263,6.45 L12.5605263,15.3894737 L13.4657895,15.3894737 C13.6921053,15.3894737 13.8052632,15.6157895 13.6921053,15.8421053 L13.1263158,17.4263158 C13.1263158,17.5394737 13.0131579,17.5394737 12.9,17.5394737 L10.4105263,17.5394737 C10.2973684,17.5394737 10.1842105,17.4263158 10.1842105,17.3131579 L10.1842105,15.7289474 C9.39210526,17.0868421 8.03421053,17.8789474 6.22368421,17.8789474 C3.28157895,17.8789474 0.792105263,15.1631579 0.792105263,11.8815789 C0.678947368,8.48684211 3.16842105,5.88421053 6.11052632,5.88421053 Z M6.67631579,15.5026316 C8.71315789,15.5026316 10.0710526,14.0315789 10.0710526,11.8815789 C10.0710526,9.73157895 8.6,8.26052632 6.67631579,8.26052632 C4.63947368,8.26052632 3.28157895,9.73157895 3.28157895,11.8815789 C3.28157895,14.0315789 4.63947368,15.5026316 6.67631579,15.5026316 Z" id="Shape"></path>
                    <path d="M16.4078947,17.2 L16.4078947,8.26052632 L15.5026316,8.26052632 C15.2763158,8.26052632 15.1631579,8.03421053 15.2763158,7.80789474 L15.8421053,6.22368421 C15.8421053,6.11052632 15.9552632,6.11052632 16.0684211,6.11052632 L18.5578947,6.11052632 C18.6710526,6.11052632 18.7842105,6.22368421 18.7842105,6.33684211 L18.7842105,8.6 C19.6894737,7.01578947 21.0473684,5.88421053 23.0842105,5.77105263 C23.1973684,5.77105263 23.3105263,5.88421053 23.3105263,5.99736842 L23.3105263,8.26052632 C23.3105263,8.37368421 23.1973684,8.48684211 23.0842105,8.48684211 C20.1421053,8.48684211 18.7842105,10.0710526 18.7842105,12.1078947 L18.7842105,17.0868421 C18.7842105,17.2 18.6710526,17.3131579 18.5578947,17.3131579 L16.5210526,17.3131579 C16.5210526,17.4263158 16.4078947,17.3131579 16.4078947,17.2 Z" id="Path"></path>
                    <path d="M27.7236842,15.6157895 L27.7236842,17.2 C27.7236842,17.3131579 27.6105263,17.4263158 27.4973684,17.4263158 L24.7815789,17.4263158 C24.5552632,17.4263158 24.4421053,17.2 24.5552632,16.9736842 L25.3473684,15.05 L25.3473684,1.92368421 C25.3473684,1.81052632 25.4605263,1.69736842 25.5736842,1.69736842 L27.6105263,1.69736842 C27.7236842,1.69736842 27.8368421,1.81052632 27.8368421,1.92368421 L27.8368421,8.03421053 C28.6289474,6.67631579 29.9868421,5.88421053 31.7973684,5.88421053 C34.7394737,5.88421053 37.2289474,8.48684211 37.2289474,11.8815789 C37.2289474,15.1631579 34.7394737,17.8789474 31.7973684,17.8789474 C29.8736842,17.7657895 28.6289474,16.9736842 27.7236842,15.6157895 Z M34.6263158,11.8815789 C34.6263158,9.73157895 33.1552632,8.26052632 31.2315789,8.26052632 C29.1947368,8.26052632 27.8368421,9.73157895 27.8368421,11.8815789 C27.8368421,14.0315789 29.3078947,15.5026316 31.2315789,15.5026316 C33.2684211,15.5026316 34.6263158,14.0315789 34.6263158,11.8815789 Z" id="Shape"></path>
                    <path d="M44.8105263,5.88421053 C47.6394737,5.88421053 50.2421053,8.03421053 50.2421053,11.5421053 L50.2421053,12.4473684 C50.2421053,12.5605263 50.1289474,12.6736842 50.0157895,12.6736842 L41.8684211,12.6736842 C42.0947368,14.3710526 43.1131579,15.3894737 44.8105263,15.3894737 C45.9421053,15.3894737 46.9605263,15.2763158 47.4131579,14.3710526 C47.4131579,14.2578947 47.5263158,14.2578947 47.6394737,14.2578947 L49.6763158,14.2578947 C49.9026316,14.2578947 50.0157895,14.3710526 49.9026316,14.5973684 C49.3368421,16.6342105 47.1868421,17.6526316 44.9236842,17.6526316 C41.7552632,17.6526316 39.3789474,15.05 39.3789474,11.6552632 C39.3789474,8.48684211 41.6421053,5.88421053 44.8105263,5.88421053 Z M47.7526316,10.6368421 C47.7526316,9.05263158 46.6210526,8.14736842 44.9236842,8.14736842 C43.2263158,8.14736842 42.3210526,9.16578947 41.9815789,10.6368421 L47.7526316,10.6368421 Z" id="Shape"></path>
                    <path d="M52.1657895,2.48947368 C52.1657895,1.47105263 52.9578947,0.565789474 54.0894737,0.565789474 C55.1078947,0.565789474 56.0131579,1.47105263 56.0131579,2.48947368 C56.0131579,3.50789474 55.1078947,4.41315789 54.0894737,4.41315789 C52.9578947,4.41315789 52.1657895,3.62105263 52.1657895,2.48947368 Z M52.8447368,17.2 L52.8447368,6.45 C52.8447368,6.33684211 52.9578947,6.22368421 53.0710526,6.22368421 L55.1078947,6.22368421 C55.2210526,6.22368421 55.3342105,6.33684211 55.3342105,6.45 L55.3342105,17.2 C55.3342105,17.3131579 55.2210526,17.4263158 55.1078947,17.4263158 L53.0710526,17.4263158 C52.9578947,17.4263158 52.8447368,17.3131579 52.8447368,17.2 Z" id="Shape"></path>
                    <path d="M63.2552632,5.88421053 C65.1789474,5.88421053 66.4236842,6.78947368 67.2157895,8.03421053 L67.2157895,1.92368421 C67.2157895,1.81052632 67.3289474,1.69736842 67.4421053,1.69736842 L69.4789474,1.69736842 C69.5921053,1.69736842 69.7052632,1.81052632 69.7052632,1.92368421 L69.7052632,15.3894737 L70.6105263,15.3894737 C70.8368421,15.3894737 70.95,15.6157895 70.8368421,15.8421053 L70.2710526,17.4263158 C70.2710526,17.5394737 70.1578947,17.5394737 70.0447368,17.5394737 L67.5552632,17.5394737 C67.4421053,17.5394737 67.3289474,17.4263158 67.3289474,17.3131579 L67.3289474,15.7289474 C66.5368421,17.0868421 65.1789474,17.8789474 63.3684211,17.8789474 C60.4263158,17.8789474 57.9368421,15.2763158 57.9368421,11.8815789 C57.9368421,8.48684211 60.3131579,5.88421053 63.2552632,5.88421053 Z M63.8210526,15.5026316 C65.8578947,15.5026316 67.2157895,14.0315789 67.2157895,11.8815789 C67.2157895,9.73157895 65.7447368,8.26052632 63.8210526,8.26052632 C61.7842105,8.26052632 60.4263158,9.73157895 60.4263158,11.8815789 C60.4263158,14.0315789 61.7842105,15.5026316 63.8210526,15.5026316 Z" id="Shape"></path>
                    <path d="M72.7605263,14.5973684 C72.7605263,14.4842105 72.8736842,14.3710526 72.9868421,14.3710526 L75.0236842,14.3710526 C75.1368421,14.3710526 75.25,14.4842105 75.25,14.5973684 C75.4763158,15.2763158 76.6078947,15.7289474 77.9657895,15.7289474 C79.55,15.7289474 80.5684211,15.2763158 80.5684211,14.3710526 C80.5684211,11.7684211 72.8736842,14.4842105 72.8736842,9.61842105 C72.8736842,7.35526316 74.6842105,5.99736842 77.7394737,5.99736842 C80.4552632,5.99736842 82.6052632,7.24210526 82.7184211,9.27894737 C82.7184211,9.39210526 82.6052632,9.50526316 82.4921053,9.50526316 L80.3421053,9.50526316 C80.2289474,9.50526316 80.1157895,9.39210526 80.1157895,9.27894737 C79.8894737,8.48684211 78.8710526,8.03421053 77.6263158,8.03421053 C76.1552632,8.03421053 75.25,8.48684211 75.25,9.50526316 C75.25,11.8815789 83.0578947,9.27894737 83.0578947,14.2578947 C83.0578947,16.4078947 81.1342105,17.7657895 77.9657895,17.7657895 C75.1368421,17.7657895 72.8736842,16.5210526 72.7605263,14.5973684 Z" id="Path"></path>
                    <path d="M92.45,17.7657895 C90.5263158,17.7657895 89.2815789,16.8605263 88.4894737,15.6157895 L88.4894737,21.7263158 C88.4894737,21.8394737 88.3763158,21.9526316 88.2631579,21.9526316 L86.2263158,21.9526316 C86.1131579,21.9526316 86,21.8394737 86,21.7263158 L86,8.26052632 L85.0947368,8.26052632 C84.8684211,8.26052632 84.7552632,8.03421053 84.8684211,7.80789474 L85.4342105,6.22368421 C85.4342105,6.11052632 85.5473684,6.11052632 85.6605263,6.11052632 L88.2631579,6.11052632 C88.3763158,6.11052632 88.4894737,6.22368421 88.4894737,6.33684211 L88.4894737,7.92105263 C89.2815789,6.56315789 90.6394737,5.77105263 92.45,5.77105263 C95.3921053,5.77105263 97.8815789,8.37368421 97.8815789,11.7684211 C97.8815789,15.1631579 95.5052632,17.7657895 92.45,17.7657895 Z M91.8842105,8.14736842 C89.8473684,8.14736842 88.4894737,9.61842105 88.4894737,11.7684211 C88.4894737,13.9184211 89.9605263,15.3894737 91.8842105,15.3894737 C93.9210526,15.3894737 95.2789474,13.9184211 95.2789474,11.7684211 C95.3921053,9.73157895 93.9210526,8.14736842 91.8842105,8.14736842 Z" id="Shape"></path>
                    <path d="M100.484211,17.2 L100.484211,1.92368421 C100.484211,1.81052632 100.597368,1.69736842 100.710526,1.69736842 L102.747368,1.69736842 C102.860526,1.69736842 102.973684,1.81052632 102.973684,1.92368421 L102.973684,17.2 C102.973684,17.3131579 102.860526,17.4263158 102.747368,17.4263158 L100.710526,17.4263158 C100.597368,17.4263158 100.484211,17.3131579 100.484211,17.2 Z" id="Path"></path>
                    <path d="M110.894737,5.88421053 C112.818421,5.88421053 114.063158,6.78947368 114.855263,8.03421053 L114.855263,6.45 C114.855263,6.33684211 114.968421,6.22368421 115.081579,6.22368421 L117.118421,6.22368421 C117.231579,6.22368421 117.344737,6.33684211 117.344737,6.45 L117.344737,15.3894737 L118.25,15.3894737 C118.476316,15.3894737 118.589474,15.6157895 118.476316,15.8421053 L117.910526,17.4263158 C117.910526,17.5394737 117.797368,17.5394737 117.684211,17.5394737 L115.194737,17.5394737 C115.081579,17.5394737 114.968421,17.4263158 114.968421,17.3131579 L114.968421,15.7289474 C114.176316,17.0868421 112.818421,17.8789474 111.007895,17.8789474 C108.065789,17.8789474 105.576316,15.1631579 105.576316,11.8815789 C105.463158,8.48684211 107.839474,5.88421053 110.894737,5.88421053 Z M111.460526,15.5026316 C113.497368,15.5026316 114.855263,14.0315789 114.855263,11.8815789 C114.855263,9.73157895 113.384211,8.26052632 111.460526,8.26052632 C109.423684,8.26052632 108.065789,9.73157895 108.065789,11.8815789 C107.952632,14.0315789 109.423684,15.5026316 111.460526,15.5026316 Z" id="Shape"></path>
                    <path d="M120.286842,14.5973684 C120.286842,14.4842105 120.4,14.3710526 120.513158,14.3710526 L122.55,14.3710526 C122.663158,14.3710526 122.776316,14.4842105 122.776316,14.5973684 C123.002632,15.2763158 124.134211,15.7289474 125.492105,15.7289474 C127.076316,15.7289474 128.094737,15.2763158 128.094737,14.3710526 C128.094737,11.7684211 120.4,14.4842105 120.4,9.61842105 C120.4,7.35526316 122.210526,5.99736842 125.265789,5.99736842 C127.981579,5.99736842 130.131579,7.24210526 130.244737,9.27894737 C130.244737,9.39210526 130.131579,9.50526316 130.018421,9.50526316 L127.868421,9.50526316 C127.755263,9.50526316 127.642105,9.39210526 127.642105,9.27894737 C127.415789,8.48684211 126.397368,8.03421053 125.152632,8.03421053 C123.681579,8.03421053 122.776316,8.48684211 122.776316,9.50526316 C122.776316,11.8815789 130.584211,9.27894737 130.584211,14.2578947 C130.584211,16.4078947 128.660526,17.7657895 125.492105,17.7657895 C122.776316,17.7657895 120.4,16.5210526 120.286842,14.5973684 Z" id="Path"></path>
                    <path d="M132.847368,14.5973684 C132.847368,14.4842105 132.960526,14.3710526 133.073684,14.3710526 L135.110526,14.3710526 C135.223684,14.3710526 135.336842,14.4842105 135.336842,14.5973684 C135.563158,15.2763158 136.694737,15.7289474 138.052632,15.7289474 C139.636842,15.7289474 140.655263,15.2763158 140.655263,14.3710526 C140.655263,11.7684211 132.960526,14.4842105 132.960526,9.61842105 C132.960526,7.35526316 134.771053,5.99736842 137.826316,5.99736842 C140.542105,5.99736842 142.692105,7.24210526 142.805263,9.27894737 C142.805263,9.39210526 142.692105,9.50526316 142.578947,9.50526316 L140.428947,9.50526316 C140.315789,9.50526316 140.202632,9.39210526 140.202632,9.27894737 C139.976316,8.48684211 138.957895,8.03421053 137.713158,8.03421053 C136.242105,8.03421053 135.336842,8.48684211 135.336842,9.50526316 C135.336842,11.8815789 143.144737,9.27894737 143.144737,14.2578947 C143.144737,16.4078947 141.221053,17.7657895 138.052632,17.7657895 C135.336842,17.7657895 133.073684,16.5210526 132.847368,14.5973684 Z" id="Path"></path>
                    <path d="M151.065789,5.88421053 C153.894737,5.88421053 156.497368,8.03421053 156.497368,11.5421053 L156.497368,12.4473684 C156.497368,12.5605263 156.384211,12.6736842 156.271053,12.6736842 L148.236842,12.6736842 C148.463158,14.3710526 149.481579,15.3894737 151.178947,15.3894737 C152.310526,15.3894737 153.328947,15.2763158 153.781579,14.3710526 C153.781579,14.2578947 153.894737,14.2578947 154.007895,14.2578947 L156.044737,14.2578947 C156.271053,14.2578947 156.384211,14.3710526 156.271053,14.5973684 C155.705263,16.6342105 153.555263,17.6526316 151.292105,17.6526316 C148.123684,17.6526316 145.747368,15.05 145.747368,11.6552632 C145.521053,8.48684211 147.897368,5.88421053 151.065789,5.88421053 Z M153.894737,10.6368421 C153.894737,9.05263158 152.763158,8.14736842 151.065789,8.14736842 C149.368421,8.14736842 148.463158,9.16578947 148.123684,10.6368421 L153.894737,10.6368421 Z" id="Shape"></path>
                    <path d="M158.534211,6.33684211 C158.534211,6.22368421 158.647368,6.22368421 158.760526,6.22368421 L161.25,6.22368421 C161.363158,6.22368421 161.476316,6.33684211 161.476316,6.45 L161.476316,8.26052632 C162.155263,6.78947368 163.4,5.88421053 165.323684,5.88421053 C168.265789,5.88421053 169.397368,8.03421053 169.397368,11.4289474 L169.397368,17.3131579 C169.397368,17.4263158 169.284211,17.5394737 169.171053,17.5394737 L167.134211,17.5394737 C167.021053,17.5394737 166.907895,17.4263158 166.907895,17.3131579 L166.907895,11.4289474 C166.907895,8.82631579 165.776316,8.26052632 164.305263,8.26052632 C162.268421,8.26052632 161.363158,9.73157895 161.363158,11.8815789 L161.363158,17.3131579 C161.363158,17.4263158 161.25,17.5394737 161.136842,17.5394737 L159.1,17.5394737 C158.986842,17.5394737 158.873684,17.4263158 158.873684,17.3131579 L158.873684,8.37368421 L157.968421,8.37368421 C157.742105,8.37368421 157.628947,8.14736842 157.742105,7.92105263 L158.534211,6.33684211 Z" id="Path"></path>
                </g>
            </g>
        </g>
    </g>
</svg>