<svg width="28" height="32" viewBox="0 0 28 32" fill="none" xmlns="http://www.w3.org/2000/svg">
<path fill-rule="evenodd" clip-rule="evenodd" d="M10.3263 1.16534L14.2575 6.7607C15.126 7.99679 14.8245 9.70049 13.5843 10.566L12.4614 11.3496C11.8412 11.7824 11.6905 12.6342 12.1248 13.2522L16.056 18.8476C16.4902 19.4657 17.3449 19.6159 17.9651 19.1831L19.0879 18.3995C20.3282 17.534 22.0377 17.8344 22.9062 19.0705L26.8374 24.6659C27.7058 25.9019 27.4044 27.6056 26.1641 28.4712L22.5235 31.0117C20.4654 32.4479 17.6912 32.3063 15.7911 30.6681C13.304 28.5237 10.6127 25.3908 7.71714 21.2695C4.63277 16.8795 2.40564 12.9178 1.03575 9.38457C0.126829 7.04021 0.93959 4.38027 3.00534 2.93871L6.50808 0.49436C7.74837 -0.371162 9.45784 -0.0707545 10.3263 1.16534ZM8.08056 2.7325L4.57782 5.17685C3.54495 5.89763 3.13857 7.2276 3.59303 8.39978C4.8751 11.7066 6.99683 15.4807 9.96288 19.7023C12.7391 23.6538 15.2899 26.623 17.5848 28.6017C18.4755 29.3697 19.7503 29.4799 20.7541 28.899L20.951 28.7736L24.5916 26.233L20.6604 20.6377L19.5376 21.4212C17.7487 22.6696 15.3091 22.301 13.966 20.6225L13.8102 20.4148L9.87902 14.8194C8.62643 13.0366 8.99628 10.6053 10.6805 9.26672L10.8889 9.11145L12.0118 8.32786L8.08056 2.7325Z" fill="#0067C5"/>
</svg>
