<svg width="1em" height="1em" viewBox="0 0 24 24" fill="none" focusable="false" role="img"
     xmlns="http://www.w3.org/2000/svg">
    <path fill-rule="evenodd" clip-rule="evenodd"
          d="M9.245.874l2.948 4.197a2.045 2.045 0 01-.505 2.854l-.842.587a1.022 1.022 0 00-.252 1.427l2.948 4.197a1.03 1.03 0 001.432.251l.842-.587a2.06 2.06 0 012.864.503l2.948 4.196a2.045 2.045 0 01-.505 2.854l-2.73 1.906a4.123 4.123 0 01-5.05-.258c-1.865-1.608-3.884-3.958-6.055-7.049-2.313-3.292-3.984-6.264-5.011-8.914a4.09 4.09 0 011.477-4.834L6.38.371a2.06 2.06 0 012.864.503z"
          fill="#0056B4">
    </path>
</svg>