<svg width="20" height="20" viewBox="0 0 20 20" fill="none" focusable="false" role="img"
     xmlns="http://www.w3.org/2000/svg">
    <rect width="20" height="20" fill="white"/>
    <path d="M2.69143 8.4031C2.36599 8.07766 2.36599 7.55002 2.69143 7.22459L7.22417 2.69185C7.5496 2.36641 8.07724 2.36641 8.40268 2.69185L9.58119 3.87036C9.90662 4.1958 9.90663 4.72344 9.58119 5.04887L8.90128 5.72878L12.4992 8.23166C12.8304 8.46205 13.279 8.42211 13.5643 8.13683L14.3859 7.31524C14.7113 6.9898 15.239 6.9898 15.5644 7.31524L17.3322 9.08301L9.08259 17.3326L7.31482 15.5648C6.98938 15.2394 6.98938 14.7117 7.31482 14.3863L8.13641 13.5647C8.42169 13.2794 8.46163 12.8308 8.23124 12.4996L5.72836 8.9017L5.04845 9.58161C4.72302 9.90705 4.19538 9.90705 3.86994 9.58161L2.69143 8.4031Z"
          stroke="#368DA8" stroke-width="1.66667"/>
    <path d="M13.333 13.3335L18.333 18.3335" stroke="#368DA8" stroke-width="1.66667"/>
</svg>
