<?xml version="1.0" encoding="UTF-8"?>
<svg xmlns:xlink="http://www.w3.org/1999/xlink" width="50px" height="50px" viewBox="0 0 50 50" version="1.1" focusable="false"
     role="img" xmlns="http://www.w3.org/2000/svg">
    <!-- Generator: Sketch 58 (84663) - https://sketch.com -->
    <title>NAV veileder/ mann/50px/2</title>
    <desc>Created with Sketch.</desc>
    <defs>
        <circle id="path-1" cx="25" cy="25" r="25"></circle>
        <path d="M11.3352702,0.172944493 L11.3333333,0.117088628 C11.3333333,3.26086957 14.3181017,6.52173913 18,6.52173913 C21.6438395,6.52173913 24.6048866,3.32793469 24.6657124,0.2146118 C26.5719115,0.714819524 29.4067894,2.10069107 31.7641784,4.37744429 C34.1206474,6.65330908 36,10.0761278 36,12.7322358 L36,12.7322358 L36,28.6956522 L0,28.6956522 L0,12.7322358 C0,10.0814974 1.83967359,6.66451094 4.15336502,4.39125309 C6.54327559,2.04310808 9.43894921,0.638300786 11.3352702,0.172944493 Z"
              id="path-3"></path>
        <polygon id="path-5"
                 points="24.1726611 8.23458299 24.2573629 9.56025323 25.5030117 11.0231324 25.6932159 12.0122653 25.8508103 13.3399835 26.6071313 14.3816791 26.5217103 15.5148472 26.598859 16.8466612 27.5506594 18.134104 27.5506594 19.2592814 28.6489045 20.5103441 28.9604366 19.2790101 28.8229836 18.0945771 28.6360164 16.959978 28.9604366 15.7510377 28.520623 14.5414148 29 13.2819598 28.8229836 12.1672227 28.6311009 10.9883182 28.8229836 9.67561795 28.520623 8.87011285 27.9347844 7.52900946 27.7020195 6.30819708 26.6071313 5.32882673 26.4577494 4.27395541 25.5030117 3.12943452 23.7272727 2.75132591 22.8544793 1.91478117 21.6704874 1.37566296 20.4687965 0.600269318 19.1097999 0.814379301 17.9374034 0.52357831 16.7979764 0.102394715 15.6025011 0.0600715662 14.4109823 0.279196257 13.215507 0 12.0391542 0.275783099 10.8384038 0.313327828 9.72205548 0.814379301 8.53251478 1.00005505 7.35154616 1.29973025 6.29388358 1.91478117 5.44458845 2.84111203 4.27812642 3.30461877 3.50136426 4.27395541 2.80241019 5.28288467 2.14301955 6.30819708 1.41043656 7.30415634 0.985129604 8.46804294 0.905343338 9.73364162 0.922487494 10.9780787 -1.0658141e-14 12.038888 0.344861301 13.3133609 0.0745111414 14.5134269 0.476739427 15.726463 0.0263756253 16.959978 0.528171896 18.134104 0.528171896 19.352455 0.774783993 20.6666667 1.5627558 19.6338453 2.07708049 18.554605 2.39886312 17.4077842 2.21093679 16.0295513 2.70943611 14.9298321 3.62137335 14.0349023 3.46869445 12.9488357 4.01137294 11.8825654 4.50195957 10.7903551 4.50195957 9.73364162 5.44458845 8.30161069 7.34561164 8.50285714 8.44481583 9.35409854 9.69106412 8.79980182 10.8687358 8.87011285 12.0272851 9.38823011 13.2122101 9.67561795 14.4063665 9.32474539 15.5985448 9.54318745 16.7709413 9.0946986 17.9716917 9.30494908 19.1097999 8.63119185 20.3685766 9.34795486 21.5080036 8.79229287"></polygon>
    </defs>
    <g id="Til-eksport" stroke="none" stroke-width="1" fill="none" fill-rule="evenodd">
        <g id="NAV-chatbot-avatar" transform="translate(-258.000000, -208.000000)">
            <g id="NAV-veileder/-mann/50px/2" transform="translate(258.000000, 208.000000)">
                <mask id="mask-2" fill="white">
                    <use xlink:href="#path-1"></use>
                </mask>
                <use id="Mask" fill="#D6897D" xlink:href="#path-1"></use>
                <g id="mennesker/mann/-forfra" mask="url(#mask-2)">
                    <g transform="translate(2.469834, 3.337858)" id="Group">
                        <g transform="translate(4.632353, 0.000000)">
                            <g id="Group-2" transform="translate(2.647059, 3.281250)">
                                <path d="M15.1613828,0 C22.365521,0 28.2663144,6.43272595 28.9725409,14.6525971 L29.0868673,14.6467391 L29.0868673,14.6467391 C29.8433213,14.6467391 30.4411765,15.2962186 30.4411765,16.0832566 L30.4411765,20.5342303 C30.4411765,21.2749065 29.9116291,21.8932886 29.2186306,21.9634766 L29.0868673,21.9701087 C28.779268,21.9701087 28.4976859,21.862522 28.2719082,21.6818832 C27.1384692,25.5076774 24.8257,28.6868529 21.8416932,30.6146142 L21.9908037,32.2652107 L21.9899609,32.3323461 L20.4145027,45.9375 L10.422523,45.9375 L10.3810181,45.6516654 L8.44934285,32.3089164 L8.52028553,30.6397492 C5.53606085,28.7264329 3.21844158,25.5636647 2.07144327,21.7533675 C1.90023397,21.8672 1.70101533,21.9417068 1.48607245,21.9634766 L1.35430917,21.9701087 C0.598646168,21.9701087 -1.42108547e-14,21.3208102 -1.42108547e-14,20.5342303 L-1.42108547e-14,16.0832566 C-1.42108547e-14,15.2976592 0.597092379,14.648477 1.35127946,14.6467426 C2.05974819,6.42964087 7.95901271,0 15.1613828,0 Z"
                                      id="Combined-Shape" fill="#E7E5E2" fill-rule="nonzero"></path>
                                <g id="mennesker/X⚙️/⚙️-ansikt-voksen/forfra/-blid"
                                   transform="translate(3.970588, 13.125000)" fill="#59514B">
                                    <g id="Group" transform="translate(5.411765, 0.700000)">
                                        <path d="M1.01949149,3.49712211 C0.0871039034,3.57518607 -0.173861524,2.0475675 0.107079035,1.04992443 C0.15991648,0.860852094 0.468564479,0 1.01498098,0 C1.56075312,0 1.80174342,0.470532301 1.83525009,0.551460992 C2.2366858,1.52403765 2.03951192,3.41118014 1.01949149,3.49712211"
                                              id="Fill-42"></path>
                                        <path d="M11.8334497,3.49712211 C12.7658373,3.57518607 13.0268027,2.0475675 12.7458621,1.04992443 C12.6930247,0.860852094 12.3843767,0 11.8379602,0 C11.2921881,0 11.0511978,0.470532301 11.0176911,0.551460992 C10.6162554,1.52403765 10.8134293,3.41118014 11.8334497,3.49712211"
                                              id="Fill-44"></path>
                                        <path d="M6.77209245,5.00258556 C7.3296596,4.90376354 7.71045359,4.96578148 7.84682701,5.1584849 C8.36157054,5.88687993 8.19692607,6.65748918 7.3138122,7.29009491 C6.84949513,7.62257726 6.21037803,7.73959874 5.87202565,7.56719236 C5.70657475,7.48288738 5.51309309,7.56897289 5.43987226,7.75946972 C5.36665144,7.94996655 5.44141869,8.17273743 5.60686959,8.25704241 C6.16608081,8.54198671 7.026057,8.38452623 7.65988242,7.93066444 C8.85998182,7.07099078 9.1346289,5.78552038 8.35490604,4.68216286 C8.02494569,4.2159099 7.44085999,4.12078291 6.67240799,4.25698171 C6.49358532,4.28867585 6.37093603,4.48127815 6.39846313,4.68717097 C6.42599023,4.89306378 6.59326977,5.03427971 6.77209245,5.00258556 Z"
                                              id="Stroke-46" fill-rule="nonzero"></path>
                                        <path d="M10.8041757,10.0085676 C10.7714289,10.0803722 10.6963334,10.2178537 10.5756456,10.3989456 C10.3713509,10.7054893 10.1148081,11.0128153 9.8032217,11.2994034 C8.87471735,12.1534149 7.66618803,12.6472408 6.12803907,12.6020757 C4.62825058,12.558037 3.42512336,12.0718315 2.48183914,11.2877928 C2.13550899,10.9999302 1.8495789,10.6916477 1.62103406,10.3843606 C1.48626133,10.2031535 1.40210845,10.0657621 1.36530351,9.99416695 C1.27677369,9.82195353 1.05917525,9.75105142 0.879283777,9.83580264 C0.699392306,9.92055386 0.625329051,10.1288649 0.713858866,10.3010783 C0.767182944,10.4048074 0.870957158,10.5742335 1.02957866,10.7875061 C1.29002421,11.1376849 1.61388975,11.4868685 2.00582957,11.8126409 C3.07067016,12.6977147 4.43151392,13.2476564 6.10577955,13.2968183 C7.84926933,13.3480129 9.24311946,12.7784617 10.3062525,11.8006226 C10.6617297,11.473665 10.9539322,11.1236205 11.1877391,10.7727937 C11.3299122,10.5594632 11.4223829,10.3901718 11.4695819,10.2866776 C11.5498039,10.1107733 11.4658803,9.90591773 11.2821335,9.82911978 C11.0983866,9.75232184 10.8843976,9.83266339 10.8041757,10.0085676 Z"
                                              id="Stroke-48" fill-rule="nonzero"></path>
                                    </g>
                                </g>
                            </g>
                            <g id="Group-1">
                                <g id="mennesker/X⚙️/⚙️-kropp/voksen/Forfra/-rundhals"
                                   transform="translate(0.000000, 32.812500)">
                                    <g id="Group" transform="translate(0.000000, 1.304348)">
                                        <mask id="mask-4" fill="white">
                                            <use xlink:href="#path-3"></use>
                                        </mask>
                                        <use id="Mask" fill="#D8A25D" xlink:href="#path-3"></use>
                                        <g id="V⚙️/STYLING/farge/Grå/-20" mask="url(#mask-4)" fill="#C6C2BF">
                                            <g transform="translate(-24.000000, -18.260870)" id="Fill-1-Copy-2">
                                                <polygon points="0 65 84 65 84 0 0 0"></polygon>
                                            </g>
                                        </g>
                                    </g>
                                </g>
                                <g id="mennesker/X⚙️/⚙️mann/-hår/-forfra/-krøllete-kort"
                                   transform="translate(3.308824, 0.000000)">
                                    <g id="Group">
                                        <mask id="mask-6" fill="white">
                                            <use xlink:href="#path-5"></use>
                                        </mask>
                                        <use id="Mask" fill="#3E3832" xlink:href="#path-5"></use>
                                        <g id="mennesker/X⚙️/⚙️-hårfarge/-brunn" mask="url(#mask-6)" fill="#8B5F26">
                                            <g transform="translate(-9.886364, -16.000000)" id="hårfarge/-brunn">
                                                <rect x="0" y="0" width="45" height="53"></rect>
                                            </g>
                                        </g>
                                    </g>
                                </g>
                            </g>
                        </g>
                    </g>
                </g>
                <g id="mennesker/tilbehør/-headsett" mask="url(#mask-2)">
                    <g transform="translate(3.459653, -5.882353)" id="headset">
                        <g transform="translate(4.031250, 11.414286)">
                            <path d="M3.2505576,17.2655171 C3.2505576,9.16271714 9.58794608,2.59346 17.4057255,2.59346 C25.2228199,2.59346 31.5602083,9.16271714 31.5602083,17.2655171 C31.5602083,18.8749314 31.3067402,20.4219029 30.8443321,21.8708457 C31.8431336,19.9062457 32.407614,17.6932171 32.407614,15.3499314 C32.407614,7.24713143 25.6907083,0.678545714 17.4057255,0.678545714 C9.11937255,0.678545714 2.40315196,7.24713143 2.40315196,15.3499314 C2.40315196,17.6932171 2.96763235,19.9062457 3.96643382,21.8708457 C3.50402574,20.4219029 3.2505576,18.8749314 3.2505576,17.2655171"
                                  id="Fill-210" fill="#145570"></path>
                            <path d="M33.3054392,27.4694186 L30.8029551,27.4694186 C30.1624343,27.4694186 29.6383718,26.9557757 29.6383718,26.32799 L29.6383718,16.1041471 C29.6383718,15.4763614 30.1624343,14.9627186 30.8029551,14.9627186 L33.3054392,14.9627186 C33.94596,14.9627186 34.4700225,15.4763614 34.4700225,16.1041471 L34.4700225,26.32799 C34.4700225,26.9557757 33.94596,27.4694186 33.3054392,27.4694186"
                                  id="Fill-212" fill="#38383A"></path>
                            <path d="M1.55499277,27.4694186 L4.05747684,27.4694186 C4.69799767,27.4694186 5.22206017,26.9557757 5.22206017,26.32799 L5.22206017,16.1041471 C5.22206017,15.4763614 4.69799767,14.9627186 4.05747684,14.9627186 L1.55499277,14.9627186 C0.914471936,14.9627186 0.390409436,15.4763614 0.390409436,16.1041471 L0.390409436,26.32799 C0.390409436,26.9557757 0.914471936,27.4694186 1.55499277,27.4694186"
                                  id="Fill-214" fill="#38383A"></path>
                            <path d="M17.4054515,0.475707143 C14.7556819,0.475707143 12.256623,1.14176429 10.04734,2.31609286 L10.04734,4.76345 C12.2312762,3.43872143 14.7378706,2.68336429 17.4054515,2.68336429 C20.2367591,2.68336429 22.8865287,3.53607857 25.1622615,5.01657857 L25.1622615,2.53027857 C22.8577566,1.22032143 20.2155225,0.475707143 17.4054515,0.475707143"
                                  id="Fill-216" fill="#38383A"></path>
                            <path d="M14.2806004,32.3766214 L14.2806004,34.1183071 C14.2806004,34.5641357 14.652582,34.9293929 15.1081396,34.9293929 L19.7034484,34.9293929 C20.158321,34.9293929 20.5303026,34.5641357 20.5303026,34.1183071 L20.5303026,32.3766214 C20.5303026,31.9307929 20.158321,31.5655357 19.7034484,31.5655357 L15.1081396,31.5655357 C14.652582,31.5655357 14.2806004,31.9307929 14.2806004,32.3766214"
                                  id="Fill-218" fill="#38383A"></path>
                            <path d="M31.3325665,27.4694186 C31.3325665,27.4694186 31.3168104,27.4680757 31.3085898,27.4680757 C29.5939121,30.3290329 25.5055396,32.4722329 20.5300286,32.9731186 L20.5300286,33.7412329 C26.6399808,33.6546186 31.6826266,30.9803186 32.7519881,27.4694186 L31.3325665,27.4694186 Z"
                                  id="Fill-220" fill="#145570"></path>
                        </g>
                    </g>
                </g>
            </g>
        </g>
    </g>
</svg>