<svg width="94" height="108" viewBox="0 0 94 108" fill="none" xmlns="http://www.w3.org/2000/svg">
<path d="M25.396 56V94.75C25.396 99.8586 29.5374 104 34.646 104V104C39.7546 104 43.896 99.8586 43.896 94.75V89.6842C43.896 81.7778 50.3054 75.3684 58.2118 75.3684H62.396" stroke="#EE8A8A" stroke-width="6.89109"/>
<path d="M17.2 4H8.62428C6.07036 4 4 6.07036 4 8.62428V34C4 46.1503 13.8497 56 26 56V56C38.1503 56 48 46.1503 48 34V8.62428C48 6.07036 45.9296 4 43.3757 4H34.8" stroke="#510000" stroke-width="6.89109"/>
<circle cx="78" cy="74" r="16" fill="#5C0000"/>
</svg>
