<svg width="42" height="61" viewBox="0 0 42 61" fill="none" xmlns="http://www.w3.org/2000/svg">
<path d="M42 51C42 56.5228 37.5228 61 32 61C26.4772 61 22 56.5228 22 51C22 45.4772 26.4772 41 32 41C37.5228 41 42 45.4772 42 51Z" fill="#99C4DD"/>
<path fill-rule="evenodd" clip-rule="evenodd" d="M16 11.6364C13.59 11.6364 11.6364 13.59 11.6364 16C11.6364 18.41 13.59 20.3636 16 20.3636C18.41 20.3636 20.3636 18.41 20.3636 16C20.3636 13.59 18.41 11.6364 16 11.6364ZM0 16C0 7.16344 7.16344 0 16 0C24.8366 0 32 7.16344 32 16C32 24.8366 24.8366 32 16 32C7.16344 32 0 24.8366 0 16Z" fill="#FFB8B8"/>
</svg>
