<svg width="1em" height="1em" viewBox="0 0 54 52" fill="none" focusable="false" role="img"
     xmlns="http://www.w3.org/2000/svg">
    <path d="M28.8322 50H21.6977C21.7011 49.1339 21.7055 48.0206 21.7102 46.726C21.7218 43.5334 21.7357 39.2377 21.745 34.8256C21.7597 27.8632 21.7631 20.546 21.7259 16.8571H26.6594L27.1728 22.468L27.3391 24.2857H29.1644H29.3947H30.5127L31.0983 23.3334C33.0687 20.1295 36.1153 18.0531 40.337 18.0531C43.7366 18.0531 46.2019 18.976 48.076 21.0958L48.0793 21.0995C50.0235 23.2879 51.1179 26.3291 51.1179 31.0254V50H43.975V32.1583C43.975 29.3959 43.4937 26.9694 42.2275 25.1884C40.8726 23.2826 38.8381 22.414 36.4816 22.414C34.692 22.414 33.0527 22.8658 31.6964 23.9112C30.3531 24.9465 29.4734 26.4205 28.9269 28.133L28.8322 28.4297V28.7411V28.7688V28.7967V28.825V28.8535V28.8824V28.9116V28.9411V28.9709V29.001V29.0314V29.0622V29.0932V29.1245V29.1561V29.1881V29.2203V29.2528V29.2856V29.3187V29.3521V29.3858V29.4197V29.454V29.4885V29.5233V29.5584V29.5938V29.6294V29.6654V29.7016V29.7381V29.7748V29.8118V29.8491V29.8867V29.9245V29.9626V30.001V30.0396V30.0785V30.1177V30.1571V30.1967V30.2366V30.2768V30.3172V30.3579V30.3988V30.44V30.4814V30.5231V30.565V30.6071V30.6495V30.6922V30.735V30.7781V30.8215V30.865V30.9088V30.9529V30.9971V31.0416V31.0864V31.1313V31.1765V31.2219V31.2675V31.3133V31.3593V31.4056V31.4521V31.4988V31.5457V31.5928V31.6401V31.6876V31.7354V31.7833V31.8315V31.8798V31.9284V31.9771V32.026V32.0752V32.1245V32.174V32.2238V32.2737V32.3238V32.374V32.4245V32.4752V32.526V32.577V32.6282V32.6796V32.7311V32.7829V32.8348V32.8868V32.9391V32.9915V33.0441V33.0968V33.1498V33.2028V33.2561V33.3095V33.3631V33.4168V33.4707V33.5247V33.5789V33.6332V33.6877V33.7424V33.7971V33.8521V33.9072V33.9624V34.0177V34.0733V34.1289V34.1847V34.2406V34.2967V34.3529V34.4092V34.4656V34.5222V34.5789V34.6357V34.6927V34.7498V34.807V34.8643V34.9218V34.9793V35.037V35.0948V35.1527V35.2107V35.2689V35.3271V35.3854V35.4439V35.5024V35.5611V35.6199V35.6787V35.7377V35.7967V35.8559V35.9151V35.9745V36.0339V36.0934V36.153V36.2127V36.2725V36.3324V36.3923V36.4524V36.5125V36.5727V36.6329V36.6933V36.7537V36.8142V36.8747V36.9353V36.996V37.0568V37.1176V37.1785V37.2395V37.3005V37.3616V37.4227V37.4839V37.5451V37.6064V37.6678V37.7292V37.7906V37.8521V37.9137V37.9753V38.0369V38.0986V38.1603V38.2221V38.2838V38.3457V38.4075V38.4694V38.5314V38.5933V38.6553V38.7173V38.7794V38.8415V38.9035V38.9657V39.0278V39.0899V39.1521V39.2143V39.2765V39.3387V39.4009V39.4632V39.5254V39.5877V39.6499V39.7122V39.7745V39.8367V39.899V39.9613V40.0235V40.0858V40.148V40.2103V40.2725V40.3347V40.3969V40.4591V40.5213V40.5835V40.6457V40.7078V40.7699V40.832V40.8941V40.9561V41.0181V41.0801V41.1421V41.204V41.2659V41.3278V41.3896V41.4514V41.5132V41.5749V41.6366V41.6982V41.7598V41.8213V41.8828V41.9443V42.0057V42.0671V42.1284V42.1896V42.2508V42.3119V42.373V42.434V42.495V42.5559V42.6167V42.6775V42.7382V42.7988V42.8594V42.9199V42.9803V43.0406V43.1009V43.1611V43.2212V43.2812V43.3412V43.4011V43.4608V43.5206V43.5802V43.6397V43.6991V43.7585V43.8177V43.8769V43.9359V43.9949V44.0538V44.1125V44.1712V44.2298V44.2882V44.3466V44.4048V44.4629V44.521V44.5789V44.6367V44.6944V44.7519V44.8094V44.8667V44.9239V44.981V45.038V45.0948V45.1515V45.2081V45.2646V45.3209V45.3771V45.4332V45.4891V45.5449V45.6005V45.6561V45.7114V45.7667V45.8218V45.8767V45.9315V45.9861V46.0406V46.095V46.1492V46.2032V46.2571V46.3108V46.3644V46.4178V46.4711V46.5242V46.5771V46.6299V46.6825V46.7349V46.7871V46.8392V46.8911V46.9429V46.9944V47.0458V47.097V47.1481V47.1989V47.2496V47.3V47.3503V47.4004V47.4504V47.5001V47.5496V47.599V47.6481V47.6971V47.7458V47.7944V47.8427V47.8909V47.9388V47.9866V48.0341V48.0815V48.1286V48.1755V48.2222V48.2687V48.315V48.361V48.4069V48.4525V48.4979V48.5431V48.588V48.6328V48.6773V48.7215V48.7656V48.8094V48.853V48.8963V48.9395V48.9823V49.025V49.0674V49.1095V49.1515V49.1931V49.2346V49.2758V49.3167V49.3574V49.3978V49.438V49.4779V49.5176V49.557V49.5962V49.6351V49.6737V49.7121V49.7502V49.7881V49.8256V49.8629V49.9V49.9368V49.9733V50ZM10.2607 50H3.11787V16.8571H10.2607V50Z"
          fill="#0056B4" stroke="#0056B4" stroke-width="4"/>
    <path d="M10.4464 5.57143C10.4464 7.48257 8.82662 9.14286 6.68929 9.14286C4.55195 9.14286 2.93214 7.48257 2.93214 5.57143C2.93214 3.66029 4.55195 2 6.68929 2C8.82662 2 10.4464 3.66029 10.4464 5.57143Z"
          fill="#0056B4" stroke="#0056B4" stroke-width="4"/>
</svg>
