<svg width="24" height="24" viewBox="0 0 24 24" fill="none" xmlns="http://www.w3.org/2000/svg">
    <path fill="#0056B4"
        d="M18 2.25c.41 0 .75.34.75.75v3.9l2.61 1.44c.24.14.39.39.39.66v11c0 .41-.34.75-.75.75H3a.75.75 0 0 1-.75-.75V9c0-.27.15-.52.39-.66L5.25 6.9V3c0-.41.34-.75.75-.75zm-13.19 17H19.2l-5.5-5.5H10.3zm-1.06-1.06 5.1-5.1-5.1-2.82zm11.4-5.1 5.1 5.1v-7.92zm-8.4-2.88 3.7 2.04h3.1l3.7-2.04V3.75H6.75zm5.75-1.46a.75.75 0 0 1 0 1.5H9a.75.75 0 0 1 0-1.5zM4.55 9l.7.38v-.77zm14.2.38.7-.38-.7-.4zM14.5 5.75a.75.75 0 0 1 0 1.5H9a.75.75 0 0 1 0-1.5z" />
</svg>