<svg width="20" height="20" viewBox="0 0 20 20" fill="none" focusable="false" role="img"
     xmlns="http://www.w3.org/2000/svg">
    <path d="M12.5 4.1665H13.3333V2.60941L12.0377 3.47313L12.5 4.1665ZM12.5 13.3332L12.0377 14.0265L13.3333 14.8903V13.3332H12.5ZM12.1926 13.1283L12.6549 12.4349L12.1926 13.1283ZM11.6667 4.1665V13.3332H13.3333V4.1665H11.6667ZM8.33333 10.8332V6.6665H6.66667V10.8332H8.33333ZM12.6549 5.06478L12.9623 4.85988L12.0377 3.47313L11.7304 3.67803L12.6549 5.06478ZM12.9623 12.6398L12.6549 12.4349L11.7304 13.8216L12.0377 14.0265L12.9623 12.6398ZM12.6549 12.4349C11.138 11.4236 9.49305 10.6191 7.76352 10.0426L7.23648 11.6237C8.82547 12.1534 10.3368 12.8926 11.7304 13.8216L12.6549 12.4349ZM7.76352 7.45707C9.49305 6.88056 11.138 6.07605 12.6549 5.06478L11.7304 3.67803C10.3368 4.60712 8.82547 5.34627 7.23648 5.87593L7.76352 7.45707Z"
          fill="#634689"/>
    <path d="M2.5 8.74984C2.5 7.59924 3.43274 6.6665 4.58333 6.6665H7.5V10.8332H4.58333C3.43274 10.8332 2.5 9.90043 2.5 8.74984V8.74984Z"
          stroke="#634689" stroke-width="1.66667"/>
    <path d="M6.71973 17.7928C6.88133 18.2237 7.36167 18.442 7.7926 18.2804C8.22354 18.1188 8.44187 17.6385 8.28027 17.2076L6.71973 17.7928ZM4.21973 11.1261L6.71973 17.7928L8.28027 17.2076L5.78027 10.5409L4.21973 11.1261Z"
          fill="#634689"/>
    <path d="M15 9.1665H18.3333" stroke="#634689" stroke-width="1.66667"/>
    <path d="M15 5L17.5 2.5" stroke="#634689" stroke-width="1.66667"/>
    <path d="M15 13.3335L17.5 15.8335" stroke="#634689" stroke-width="1.66667"/>
</svg>
