<?xml version="1.0" standalone="no"?>
<!DOCTYPE svg PUBLIC "-//W3C//DTD SVG 20010904//EN"
 "http://www.w3.org/TR/2001/REC-SVG-20010904/DTD/svg10.dtd">
<svg version="1.0" xmlns="http://www.w3.org/2000/svg"
 width="2048.000000pt" height="2048.000000pt" viewBox="0 0 2048.000000 2048.000000"
 preserveAspectRatio="xMidYMid meet">
<metadata>
Created by potrace 1.14, written by Peter Selinger 2001-2017
</metadata>
<g transform="translate(0.000000,2048.000000) scale(0.100000,-0.100000)"
fill="#000000" stroke="none">
<path d="M941 13263 c-25 -7 -49 -12 -52 -13 -4 0 -23 -15 -43 -32 -25 -24
-48 -63 -79 -138 -53 -126 -59 -142 -62 -155 -2 -5 -13 -32 -25 -60 -27 -60
-23 -53 -100 -245 -33 -85 -65 -164 -70 -175 -5 -11 -20 -46 -34 -77 -14 -32
-22 -58 -19 -58 3 0 0 -7 -7 -15 -7 -8 -9 -15 -5 -15 4 0 3 -6 -3 -12 -5 -7
-41 -92 -80 -188 -39 -96 -78 -193 -88 -215 -10 -22 -19 -48 -21 -58 -2 -10
-15 -44 -30 -75 -15 -31 -27 -59 -27 -62 -2 -7 -45 -119 -61 -155 -8 -16 -17
-42 -20 -57 -4 -16 -11 -28 -16 -28 -5 0 -9 -6 -9 -13 0 -8 -19 -58 -41 -113
-60 -143 -60 -232 -1 -261 9 -4 192 -10 407 -13 l390 -5 0 -1850 c1 -1969 -2
-1867 46 -1919 50 -53 8 -51 1060 -50 864 1 977 3 1004 16 36 19 67 53 83 90
8 19 11 512 11 1840 0 997 1 1828 1 1846 l0 33 551 -2 c303 -1 572 -6 598 -11
109 -20 151 -32 241 -71 104 -45 112 -50 181 -119 68 -66 122 -182 144 -307 3
-19 7 -37 9 -40 2 -3 7 -37 11 -76 4 -38 9 -88 11 -110 12 -119 14 -389 15
-1600 0 -843 4 -1345 11 -1370 11 -45 58 -94 104 -110 19 -7 359 -10 964 -9
838 2 940 3 979 18 43 16 96 51 134 89 16 16 77 127 77 140 0 3 8 22 17 43 9
22 17 44 19 49 1 6 12 33 24 60 12 27 23 54 24 60 1 5 4 15 8 20 3 6 18 42 33
80 15 39 33 84 40 100 19 43 38 88 41 100 1 6 23 60 49 120 25 61 48 117 50
126 2 9 8 25 14 35 5 11 20 46 32 79 28 73 28 73 39 55 13 -23 104 -136 168
-209 89 -101 208 -216 312 -300 14 -11 30 -25 36 -30 6 -5 49 -36 95 -70 46
-33 89 -64 95 -68 21 -16 50 -34 74 -45 14 -7 27 -15 30 -19 3 -3 17 -12 31
-20 137 -73 227 -117 300 -149 85 -38 379 -142 379 -135 0 2 25 -5 55 -15 30
-10 55 -17 55 -15 0 2 15 -1 33 -6 37 -12 34 -11 192 -39 66 -11 145 -23 175
-26 30 -3 66 -7 80 -10 86 -14 567 -24 643 -12 108 16 193 83 246 193 17 35
31 66 31 69 0 2 5 17 12 33 6 15 12 30 13 33 3 10 18 45 47 115 17 39 31 75
32 80 2 6 9 24 15 40 7 17 19 46 26 65 12 34 48 119 64 150 4 8 14 36 22 63 7
26 16 47 20 47 4 0 10 12 14 27 3 15 15 46 26 70 10 23 19 45 19 48 0 4 7 22
15 41 28 63 42 99 61 149 10 28 24 61 31 75 7 14 13 28 13 33 0 4 9 26 19 50
11 23 45 107 76 187 32 80 60 150 64 155 3 6 6 15 7 20 1 6 9 27 18 47 9 21
15 39 14 40 -1 2 5 14 12 28 8 14 13 28 12 33 -1 4 2 7 6 7 4 0 8 -402 8 -894
l0 -894 23 -34 c31 -44 61 -66 108 -75 21 -5 461 -8 978 -7 908 1 942 2 990
21 48 18 69 32 120 78 24 22 81 115 70 115 -4 0 -2 6 4 13 6 8 17 31 25 53 8
21 20 53 27 69 7 17 13 32 14 35 1 3 7 16 12 30 6 14 32 79 58 145 26 66 50
125 53 130 4 6 7 12 7 15 0 6 101 259 121 305 11 26 30 74 66 165 5 14 8 25 7
25 -2 0 4 14 13 30 23 41 181 437 181 453 0 6 4 12 9 12 4 0 8 7 8 15 0 8 8
34 19 58 58 131 111 277 111 307 0 65 -45 103 -136 116 -27 4 -53 6 -59 6 -5
0 -32 -1 -60 -1 -27 0 -59 0 -70 0 -11 -1 -56 0 -100 0 -44 0 -84 0 -90 0 -5
0 -35 0 -65 0 -30 0 -64 -1 -75 -1 -25 -1 -28 -1 -92 0 -28 1 -56 -1 -62 -4
-7 -5 -10 504 -10 1561 0 1508 1 1566 18 1528 38 -87 86 -210 83 -217 -1 -5 2
-8 8 -8 5 0 10 -6 10 -14 0 -12 40 -116 70 -181 5 -11 32 -78 60 -150 55 -143
65 -166 88 -210 9 -16 15 -31 14 -32 -2 -4 8 -32 24 -70 8 -17 14 -33 14 -36
0 -2 8 -22 17 -43 9 -22 17 -41 18 -44 1 -3 7 -18 14 -35 7 -16 39 -97 73
-180 33 -82 66 -163 73 -180 7 -16 25 -61 40 -100 15 -38 32 -81 38 -95 5 -14
11 -29 13 -35 3 -16 63 -158 74 -177 6 -10 10 -22 10 -28 0 -6 9 -29 19 -53
11 -23 43 -100 71 -172 28 -71 58 -144 66 -162 7 -17 14 -34 14 -38 0 -4 9
-26 19 -49 10 -23 35 -81 55 -131 19 -49 41 -103 47 -120 7 -16 13 -32 14 -35
7 -20 20 -52 41 -98 13 -29 24 -56 24 -60 0 -4 16 -46 36 -92 20 -47 41 -101
48 -120 19 -52 204 -509 225 -555 10 -22 22 -51 26 -65 8 -26 26 -71 53 -130
8 -19 16 -39 17 -45 0 -5 6 -21 12 -35 25 -56 66 -158 173 -425 61 -154 118
-293 125 -310 7 -16 23 -57 36 -90 13 -33 26 -64 30 -70 3 -5 12 -28 19 -50 7
-22 17 -46 23 -52 5 -7 6 -13 3 -13 -4 0 -1 -12 8 -27 8 -16 26 -59 41 -98 53
-135 89 -210 119 -244 19 -21 94 -75 106 -76 3 0 10 -3 15 -7 6 -3 33 -9 60
-14 68 -10 2209 -11 2260 -1 61 12 137 52 170 89 37 40 68 88 58 88 -5 0 -3 4
3 8 7 4 19 27 27 52 9 25 64 162 123 305 58 143 106 266 107 273 0 6 4 12 9
12 4 0 8 11 8 24 0 13 7 29 15 36 8 6 14 15 13 18 -3 9 11 49 32 97 10 22 46
110 80 195 34 85 67 166 73 180 6 14 11 27 12 30 5 13 18 47 25 65 5 11 23 52
39 92 17 39 31 76 31 82 0 6 4 19 10 29 9 16 92 218 120 292 7 19 21 53 30 75
10 22 30 72 45 110 15 39 31 74 36 79 5 6 9 15 9 22 0 6 8 29 17 50 9 22 18
44 19 49 2 10 95 240 114 280 4 11 41 101 80 200 40 99 78 194 85 210 7 17 25
62 40 100 15 39 33 84 40 100 7 17 32 77 55 135 22 58 45 114 50 125 5 11 19
45 30 75 11 30 25 64 30 75 12 25 157 383 182 450 10 28 23 59 28 70 5 11 37
90 71 175 33 85 67 169 75 185 16 34 154 375 158 390 2 6 8 21 13 35 6 14 11
28 12 32 1 4 15 39 32 78 40 94 52 123 55 135 6 23 145 362 159 388 8 16 15
33 15 39 0 11 23 66 46 111 8 16 14 33 14 38 0 6 10 31 22 57 14 30 22 67 23
101 0 49 -3 56 -34 82 -21 17 -52 31 -80 35 -53 9 -2171 10 -2216 1 -67 -12
-127 -54 -152 -107 -11 -22 -61 -168 -68 -195 -1 -5 -5 -17 -8 -25 -3 -8 -20
-60 -37 -115 -17 -55 -34 -107 -37 -115 -3 -8 -7 -19 -9 -25 -1 -5 -26 -80
-54 -165 -28 -85 -53 -162 -55 -170 -2 -8 -20 -62 -40 -120 -19 -58 -37 -112
-39 -121 -3 -9 -12 -39 -21 -65 -9 -27 -18 -53 -19 -59 -1 -5 -20 -62 -41
-125 -22 -63 -40 -117 -40 -120 0 -3 -36 -113 -80 -245 -43 -132 -79 -242 -80
-245 -1 -7 -45 -142 -52 -160 -3 -8 -7 -19 -9 -25 -7 -31 -57 -182 -62 -190
-4 -5 -7 -15 -8 -22 -1 -6 -37 -119 -80 -250 -43 -131 -79 -242 -80 -248 -2
-5 -8 -23 -14 -40 -13 -36 -101 -306 -105 -320 -1 -5 -5 -17 -8 -25 -9 -26
-50 -155 -49 -157 0 -1 -8 -26 -19 -55 -11 -29 -22 -60 -24 -68 -2 -8 -4 -16
-5 -17 -2 -2 -4 -7 -5 -13 -1 -5 -3 -11 -4 -12 -2 -2 -4 -12 -6 -23 -3 -12
-11 -36 -18 -54 l-14 -34 -17 54 c-10 30 -22 63 -27 74 -5 11 -10 30 -12 42
-2 12 -6 26 -10 29 -4 4 -7 18 -7 31 0 12 -4 23 -8 23 -5 0 -9 6 -9 13 -1 12
-46 155 -136 427 -90 273 -128 391 -132 408 -2 9 -13 41 -24 70 -10 28 -17 52
-14 52 3 0 1 6 -4 13 -6 6 -16 35 -23 62 -7 28 -17 56 -23 63 -5 6 -7 12 -4
12 4 0 -2 20 -13 45 -11 25 -18 45 -16 45 3 0 -5 24 -15 53 -11 28 -22 59 -24
67 -2 8 -11 38 -20 65 -10 28 -19 55 -20 60 -1 6 -5 17 -8 25 -3 8 -11 33 -17
55 -6 22 -15 49 -20 60 -7 15 -86 260 -95 295 -1 3 -5 14 -9 25 -12 32 -20 54
-127 385 -56 173 -124 383 -151 465 -27 83 -51 155 -52 160 -2 6 -6 17 -9 25
-3 8 -16 47 -28 85 -30 97 -79 247 -86 265 -3 8 -8 24 -10 35 -12 61 -92 130
-167 143 -46 8 -4135 7 -4177 -1 -49 -10 -106 -68 -116 -119 -4 -22 -8 -278
-7 -569 0 -291 -3 -529 -8 -529 -4 0 -8 10 -9 23 0 12 -2 31 -4 42 -2 11 -7
36 -10 55 -6 32 -28 105 -42 140 -4 8 -7 17 -8 20 -55 162 -200 360 -365 500
-36 30 -67 57 -70 60 -10 10 -145 98 -170 110 -14 7 -27 16 -30 20 -7 9 -165
83 -235 110 -33 12 -67 26 -75 30 -15 7 -126 43 -145 46 -5 1 -13 3 -17 4 -5
1 -11 3 -15 4 -43 11 -72 17 -93 21 -14 3 -38 8 -55 11 -16 4 -41 8 -55 9 -14
2 -50 6 -80 10 -63 8 -276 9 -365 1 -116 -11 -190 -18 -210 -22 -11 -3 -36 -7
-55 -10 -19 -3 -42 -7 -50 -9 -8 -2 -31 -7 -50 -10 -19 -3 -60 -13 -90 -21
-30 -8 -65 -17 -77 -20 -12 -2 -34 -9 -48 -14 -14 -5 -25 -6 -25 -2 0 4 -4 2
-8 -3 -4 -6 -34 -19 -67 -29 -33 -10 -77 -27 -97 -37 -21 -11 -38 -17 -38 -14
0 10 -276 -138 -358 -193 -124 -83 -154 -104 -177 -127 -11 -11 -36 -32 -55
-46 -71 -54 -261 -251 -333 -344 -88 -115 -120 -163 -224 -330 -29 -46 -173
-344 -173 -357 0 -8 -4 -18 -9 -24 -8 -8 -60 -145 -65 -169 -1 -5 -4 -14 -8
-20 -7 -12 -54 -168 -75 -250 -8 -33 -16 -64 -17 -70 -2 -5 -7 -29 -11 -52
-12 -67 -20 -51 -21 40 -1 83 -13 369 -19 442 -6 77 -16 170 -20 195 -2 14 -7
48 -10 75 -49 413 -246 774 -555 1016 -30 24 -57 46 -60 49 -4 5 -70 49 -111
75 -37 24 -198 104 -249 125 -30 12 -64 26 -75 30 -52 21 -228 69 -276 75 -16
2 -36 6 -46 9 -10 3 -40 8 -68 11 -27 3 -64 8 -81 11 -96 18 -389 26 -930 27
l-521 1 -54 -27 c-30 -14 -65 -40 -77 -56 -12 -17 -45 -88 -73 -158 -28 -71
-56 -139 -62 -153 -6 -14 -11 -27 -12 -30 -1 -3 -7 -18 -14 -35 -7 -16 -29
-73 -50 -125 -21 -52 -42 -104 -46 -115 -5 -11 -7 -23 -7 -27 1 -5 -2 -8 -8
-8 -5 0 -10 -6 -10 -14 0 -7 -8 -31 -17 -52 -9 -22 -18 -43 -19 -49 -1 -5 -15
-41 -32 -80 -29 -69 -44 -105 -47 -115 -1 -3 -5 -14 -10 -25 -5 -11 -33 -81
-62 -155 -30 -74 -73 -180 -95 -235 -22 -55 -48 -119 -59 -142 -10 -24 -19
-47 -19 -53 0 -6 -4 -18 -10 -28 -14 -25 -50 -110 -50 -117 0 -4 -6 -21 -14
-38 -39 -89 -56 -127 -59 -127 -1 0 -1 412 0 916 2 820 1 919 -13 948 -24 47
-53 74 -93 87 -52 18 -1935 19 -2000 2z m10226 -1238 c0 -8 -4 -12 -9 -9 -5 3
-6 10 -3 15 9 13 12 11 12 -6z m-805 -849 c158 -15 323 -78 443 -169 166 -127
301 -331 336 -512 22 -112 25 -175 24 -610 0 -378 -3 -479 -13 -477 -6 1 -12
-1 -12 -5 0 -8 -159 -8 -167 0 -2 3 -17 2 -32 -3 -16 -4 -34 -4 -41 0 -7 4
-25 4 -40 0 -15 -4 -33 -4 -40 0 -7 4 -25 4 -40 0 -15 -4 -34 -4 -43 1 -10 6
-18 5 -22 -1 -4 -6 -11 -8 -16 -4 -9 5 -74 6 -156 1 -22 -1 -39 2 -36 7 4 5 1
6 -6 2 -10 -6 -85 -8 -171 -5 -8 0 -26 0 -40 0 -14 0 -35 -1 -47 -1 -13 0 -29
0 -35 0 -7 -1 -29 -1 -48 -1 -57 1 -95 1 -112 0 -7 0 -29 0 -48 0 -19 1 -42 0
-50 0 -20 -2 -163 11 -186 16 -54 13 -111 29 -139 40 -228 87 -408 255 -507
472 -16 37 -32 74 -34 82 -2 9 -8 34 -14 56 -19 72 -20 79 -24 150 -3 39 -5
75 -6 80 -1 6 -1 12 0 15 1 3 3 32 6 65 2 33 6 67 7 75 18 78 68 224 79 228 4
2 8 9 8 16 0 22 95 154 155 217 59 61 173 149 193 149 6 0 12 4 14 8 5 13 129
64 203 84 38 10 111 21 160 24 50 4 91 7 92 8 4 3 354 -4 405 -8z"/>
</g>
</svg>
