<?xml version="1.0" encoding="UTF-8"?>
<svg xmlns:xlink="http://www.w3.org/1999/xlink" width="50px" height="50px" viewBox="0 0 50 50" version="1.1" focusable="false"
     role="img" xmlns="http://www.w3.org/2000/svg">
    <!-- Generator: Sketch 58 (84663) - https://sketch.com -->
    <title>50px/Frida</title>
    <desc>Created with Sketch.</desc>
    <defs>
        <circle id="path-1" cx="25" cy="25" r="25"></circle>
        <path d="M10.7054173,0.167208748 L10.7037037,0.113185673 C10.7037037,3.15217391 13.5226516,6.30434783 17,6.30434783 C20.4417716,6.30434783 23.2385459,3.21634389 23.2954134,0.206493596 C25.0964847,0.691387753 27.7734076,2.03099293 29.9995018,4.23152948 C32.2250559,6.43153211 34,9.74025688 34,12.3078279 L34,12.3078279 L34,27.7391304 L0,27.7391304 L0,12.3078279 C0,9.7454475 1.7374695,6.44236058 3.92262252,4.24487799 C6.17971166,1.97505338 8.91444533,0.617082598 10.7054173,0.167208748 Z"
              id="path-3"></path>
        <path d="M15.2712741,34.4068679 C13.6301071,34.9979231 10.8769054,36.2898844 8.79411765,38.25182 C2.70588235,36.9078947 0,33.7143553 0,33.7143553 C0,33.7143553 5.60919797,28.2868816 5.61258072,18.7941711 L5.61258072,18.7841053 C5.61258072,7.66878947 11.6618547,0 21.6281154,0 C31.5957293,0 37.6450032,7.66878947 37.6450032,18.7841053 L37.6808604,18.7841053 C37.6808604,28.2835263 43.2941176,33.7143553 43.2941176,33.7143553 C43.2941176,33.7143553 40.5882353,36.9078947 34.5,38.25 L34.4908151,38.25182 C32.4791218,36.4363969 29.5614418,35.0362169 27.9740913,34.4442439 L27.9759264,34.4436417 L27.9128507,33.7399726 L27.9469611,33.6816939 C30.9420424,31.781181 33.2660587,28.5794621 34.3864795,24.7106812 C34.5236429,24.7863604 34.6785809,24.8289474 34.8424936,24.8289474 C35.4034109,24.8289474 35.8573189,24.3323246 35.8573189,23.7171823 L35.8573189,19.2308302 C35.8573189,18.7045043 35.5250221,18.2644726 35.0777186,18.1483781 C35.0773071,18.142301 35.0768928,18.1362249 35.0764756,18.1301498 C20.9157244,19.6976608 15.8147558,10.0664062 15.3960843,10.0657895 C15.3960843,10.0657895 10.693305,13.4210526 8.4456922,17.4102323 C8.4456922,17.4102323 8.10312497,18.1632947 8.10146175,18.1886484 C7.7166697,18.3464917 7.44221119,18.753116 7.44221119,19.2308302 L7.44221119,23.7171823 C7.44221119,24.3323246 7.89729507,24.8289474 8.45703647,24.8289474 C8.58108389,24.8289474 8.69989772,24.8046587 8.80972591,24.7601708 C9.94251978,28.6308134 12.2812584,31.8290619 15.2904244,33.7170388 L15.3015738,33.7399726 L15.2732301,34.4068679 L15.2712741,34.4068679 Z"
              id="path-5"></path>
    </defs>
    <g id="Til-eksport" stroke="none" stroke-width="1" fill="none" fill-rule="evenodd">
        <g id="NAV-chatbot-avatar" transform="translate(-334.000000, -130.000000)">
            <g id="50px/Frida" transform="translate(334.000000, 130.000000)">
                <mask id="mask-2" fill="white">
                    <use xlink:href="#path-1"></use>
                </mask>
                <use id="Mask" fill="#C6C2BF" xlink:href="#path-1"></use>
                <g id="mennesker/Arbeid/-kvinne/-kvinne-Copy-7" mask="url(#mask-2)">
                    <g transform="translate(2.469834, 0.264706)" id="mennesker/kvinne/-forfra">
                        <g>
                            <g id="Group" transform="translate(0.000000, 1.333333)">
                                <g id="Group-2" transform="translate(8.117647, 4.000000)">
                                    <g id="hud" fill="#E7E5E2" fill-rule="nonzero">
                                        <path d="M14.8232074,0.333333333 C22.0558782,0.333333333 27.9735315,6.83907285 28.6305601,15.1288648 C29.1028761,15.3528891 29.4264706,15.8583647 29.4264706,16.4384719 L29.4264706,20.8955014 C29.4264706,21.6371853 28.8974581,22.2564088 28.2051596,22.3266922 L28.0735294,22.3333333 C27.9938086,22.3333333 27.9158372,22.3260823 27.8401347,22.3121841 C26.680495,26.0232012 24.4080506,29.1047537 21.4956988,30.9902936 L21.6457298,32.6424423 L21.6448878,32.709669 L20.071021,46.3333333 L10.0891342,46.3333333 L10.0476713,46.0471099 L8.1179472,32.6862075 L8.18957526,31.0152557 C5.2629567,29.1346996 2.9780149,26.048436 1.81104514,22.3266329 L1.69117647,22.3333333 C0.936276769,22.3333333 0.338235294,21.6831515 0.338235294,20.8955014 L0.338235294,16.4384719 C0.338235294,15.910583 0.606835679,15.4442058 1.01121522,15.1939706 C1.64198205,6.87362055 7.5713985,0.333333333 14.8232074,0.333333333 Z"
                                              id="Combined-Shape"></path>
                                    </g>
                                    <g id="mennesker/X⚙️/⚙️-ansikt-voksen/forfra/-glad"
                                       transform="translate(4.016544, 14.833333)">
                                        <g id="Group" transform="translate(4.529412, 0.000000)">
                                            <path d="M1.50486471,3.75869 C0.568570588,3.82954 0.306511765,2.44309 0.588629412,1.53764 C0.641688235,1.36604 0.951629412,0.58474 1.50033529,0.58474 C2.04839412,0.58474 2.29039412,1.01179 2.32404118,1.08524 C2.72715882,1.96794 2.52915882,3.68069 1.50486471,3.75869"
                                                  id="Fill-42" fill="#635E59"></path>
                                            <path d="M11.9544765,3.75869 C12.8907706,3.82954 13.1528294,2.44309 12.8707118,1.53764 C12.8176529,1.36604 12.5077118,0.58474 11.9590059,0.58474 C11.4109471,0.58474 11.1689471,1.01179 11.1353,1.08524 C10.7321824,1.96794 10.9301824,3.68069 11.9544765,3.75869"
                                                  id="Fill-44" fill="#635E59"></path>
                                            <path d="M7.02658749,5.3526715 C7.57722515,5.26752371 7.95328659,5.32096008 8.08796515,5.48699871 C8.59631139,6.11460411 8.43371315,6.77858247 7.5615747,7.32365314 C7.10302821,7.61012918 6.47185411,7.71095814 6.13770681,7.56240801 C5.97431215,7.4897685 5.78323509,7.56394216 5.71092427,7.72807952 C5.63861344,7.89221689 5.71245147,8.08416247 5.87584613,8.15680199 C6.42810743,8.40231792 7.27739575,8.26664559 7.90334393,7.87558566 C9.08852837,7.13486693 9.35976211,6.02726991 8.58972972,5.0765864 C8.26387015,4.67484989 7.68704352,4.59288583 6.92814192,4.7102385 C6.75154168,4.73754706 6.63041668,4.90349855 6.65760167,5.08090152 C6.68478666,5.2583045 6.84998724,5.37998006 7.02658749,5.3526715 Z"
                                                  id="Stroke-46" fill="#59514B" fill-rule="nonzero"></path>
                                            <path d="M10.7145618,10.0915366 C10.6853781,10.1586852 10.6184535,10.2872522 10.5108973,10.4566018 C10.3288312,10.7432688 10.1002018,11.0306673 9.82251803,11.2986727 C8.99504089,12.0973087 7.91800729,12.5591143 6.54721877,12.5168778 C5.21061686,12.4756946 4.13839758,12.0210153 3.29774871,11.2878149 C2.9891015,11.0186177 2.73428243,10.7303247 2.53060472,10.4429625 C2.41049613,10.2735052 2.33549962,10.1450224 2.3026993,10.0780696 C2.22380209,9.91702278 2.02987975,9.85071806 1.86956162,9.92997389 C1.70924349,10.0092297 1.64323879,10.2040335 1.722136,10.3650804 C1.76965807,10.4620836 1.86214099,10.6205238 2.00350346,10.8199675 C2.23561086,11.1474402 2.52423777,11.4739822 2.87353203,11.778631 C3.82251115,12.6063154 5.03528641,13.120598 6.52738123,13.1665722 C8.08116817,13.2144473 9.32335849,12.6818266 10.2708159,11.7673921 C10.5876149,11.4616348 10.8480239,11.1342877 11.0563911,10.806209 C11.1830948,10.6067113 11.2655041,10.448397 11.3075676,10.3516134 C11.3790609,10.1871151 11.3042688,9.99554261 11.1405147,9.92372436 C10.9767607,9.85190611 10.7860551,9.92703819 10.7145618,10.0915366 Z"
                                                  id="Stroke-48" fill="#59514B" fill-rule="nonzero"></path>
                                        </g>
                                    </g>
                                </g>
                                <g id="Group-1">
                                    <g id="mennesker/X⚙️/⚙️-kropp/voksen/Forfra/-rundhals"
                                       transform="translate(6.088235, 34.000000)">
                                        <g id="Group" transform="translate(0.000000, 1.260870)">
                                            <mask id="mask-4" fill="white">
                                                <use xlink:href="#path-3"></use>
                                            </mask>
                                            <use id="Mask" fill="#D8A25D" xlink:href="#path-3"></use>
                                            <g id="NAV-Brand/farge/-Lilla/+20" mask="url(#mask-4)" fill="#5C4378">
                                                <g transform="translate(-22.666667, -17.652174)" id="Fill-58">
                                                    <polygon points="0 63 79 63 79 0 0 0"></polygon>
                                                </g>
                                            </g>
                                        </g>
                                    </g>
                                    <g id="mennesker/X⚙️/⚙️kvinne/-hår/-halvlangt-copy-2">
                                        <g id="hårfarge/-brunn" transform="translate(1.352941, 1.342105)">
                                            <mask id="mask-6" fill="white">
                                                <use xlink:href="#path-5"></use>
                                            </mask>
                                            <use id="Path" fill="#E57F68" xlink:href="#path-5"></use>
                                            <g id="mennesker/X⚙️/⚙️-hårfarge/-rød" mask="url(#mask-6)" fill="#D2654C">
                                                <g transform="translate(-1.352941, -2.684211)" id="hårfarge/-rød">
                                                    <rect x="0" y="0" width="47" height="53"></rect>
                                                </g>
                                            </g>
                                        </g>
                                    </g>
                                </g>
                            </g>
                        </g>
                    </g>
                </g>
            </g>
        </g>
    </g>
</svg>