<svg width="98" height="47" viewBox="0 0 98 47" fill="none" xmlns="http://www.w3.org/2000/svg">
<path fill-rule="evenodd" clip-rule="evenodd" d="M37.3268 19.9306C36.9851 20.4724 37.1473 21.1887 37.6892 21.5304C37.7398 21.5623 37.7928 21.5903 37.8478 21.614L52.5835 27.9824L79.8335 18.1879C86.0136 16.4289 91.8399 14.0016 97.3157 19.4456C97.8428 19.9747 98.0853 20.7266 97.9734 21.4645C97.8521 22.2071 97.3857 22.8383 96.714 23.1724C83.8268 29.5818 75.1653 34.506 68.8406 38.1029C59.2836 43.5377 54.708 46.0346 49.3581 46.0346C44.8711 46.0346 39.8384 44.2756 30.8458 41.0222C26.2749 39.3653 20.5845 37.3093 13.3037 34.8913C12.3522 34.5757 11.7085 33.6892 11.7085 32.6914V2.92074C11.7085 1.64958 12.8663 0.61792 14.2928 0.61792H22.0459C29.0735 0.61792 34.4695 2.87885 38.192 5.15959H59.396C63.1584 5.15959 66.2085 8.20965 66.2085 11.9721C66.2085 15.7345 63.1584 18.7846 59.396 18.7846H39.4043C38.561 18.7846 37.7766 19.2172 37.3268 19.9306Z" fill="#5C0000"/>
<path d="M0 0.0762939H12V36.0763H0V0.0762939Z" fill="#F68282"/>
</svg>
