<?xml version="1.0" encoding="UTF-8" standalone="no"?>
<svg width="63px" height="40px" viewBox="0 0 63 40" version="1.1" xmlns="http://www.w3.org/2000/svg" xmlns:xlink="http://www.w3.org/1999/xlink">
    <!-- Generator: Sketch 46.2 (44496) - http://www.bohemiancoding.com/sketch -->
    <title>Group 9</title>
    <desc>Created with Sketch.</desc>
    <defs></defs>
    <g id="GD-28.06.17" stroke="none" stroke-width="1" fill="none" fill-rule="evenodd">
        <g id="nymellomnavigasjonssideV3" transform="translate(-357.000000, -900.000000)">
            <g id="Group-9" transform="translate(357.000000, 900.000000)">
                <g id="bank-notes-3" fill-rule="nonzero" fill="#000000">
                    <path d="M44.7866667,28.5714286 L0.977142857,28.5714286 C0.451428571,28.5714286 0.0247619048,28.1447619 0.0247619048,27.6190476 L0.0247619048,0.952380952 C0.0247619048,0.426666667 0.451428571,0 0.977142857,0 L44.7866667,0 C45.312381,0 45.7390476,0.426666667 45.7390476,0.952380952 L45.7390476,27.6190476 C45.7390476,28.1447619 45.312381,28.5714286 44.7866667,28.5714286 Z M1.92952381,26.6666667 L43.8342857,26.6666667 L43.8342857,1.9047619 L1.92952381,1.9047619 L1.92952381,26.6666667 Z" id="Shape"></path>
                    <path d="M22.8819048,20.952381 C19.2057143,20.952381 16.2152381,17.9619048 16.2152381,14.2857143 C16.2152381,10.6095238 19.2057143,7.61904762 22.8819048,7.61904762 C26.5580952,7.61904762 29.5485714,10.6095238 29.5485714,14.2857143 C29.5485714,17.9619048 26.5561905,20.952381 22.8819048,20.952381 Z M22.8819048,9.52380952 C20.2552381,9.52380952 18.12,11.6609524 18.12,14.2857143 C18.12,16.9104762 20.2552381,19.047619 22.8819048,19.047619 C25.5085714,19.047619 27.6438095,16.9104762 27.6438095,14.2857143 C27.6438095,11.6609524 25.5085714,9.52380952 22.8819048,9.52380952 Z" id="Shape"></path>
                    <circle id="Oval" cx="9.54857143" cy="9.52380952" r="1.9047619"></circle>
                    <circle id="Oval" cx="36.2152381" cy="19.047619" r="1.9047619"></circle>
                    <path d="M37.167619,24.7619048 L8.59619048,24.7619048 C5.96952381,24.7619048 3.83428571,22.6247619 3.83428571,20 L3.83428571,8.57142857 C3.83428571,5.94666667 5.96952381,3.80952381 8.59619048,3.80952381 L37.167619,3.80952381 C39.7942857,3.80952381 41.9295238,5.94666667 41.9295238,8.57142857 L41.9295238,20 C41.9295238,22.6247619 39.7942857,24.7619048 37.167619,24.7619048 Z M8.59619048,5.71428571 C7.02095238,5.71428571 5.73904762,6.99619048 5.73904762,8.57142857 L5.73904762,20 C5.73904762,21.5752381 7.02095238,22.8571429 8.59619048,22.8571429 L37.167619,22.8571429 C38.7428571,22.8571429 40.0247619,21.5752381 40.0247619,20 L40.0247619,8.57142857 C40.0247619,6.99619048 38.7428571,5.71428571 37.167619,5.71428571 L8.59619048,5.71428571 Z" id="Shape"></path>
                </g>
                <g id="Group-8" transform="translate(20.952381, 7.619048)">
                    <polygon id="Rectangle" fill="#FFFFFF" points="4.20598455 22.7999541 4.20598455 16.1904762 12.2865654 11.610404 19.9790958 0 41.9047619 0 41.9047619 32.3809524 0 32.3809524"></polygon>
                    <g id="wrench" transform="translate(5.714286, 1.904762)" fill-rule="nonzero" fill="#000000">
                        <path d="M3.16571942,28.41996 C2.37071383,28.41996 1.62338473,28.1100628 1.06080207,27.5474801 C0.499411309,26.9872813 0.190705989,26.2411441 0.190705989,25.4473304 C0.190705989,24.649941 0.501795134,23.9002281 1.06676163,23.3364535 L12.4805151,11.9310435 C11.0740584,8.79035419 11.7486809,5.10257712 14.2218991,2.62935883 C15.7964155,1.0548425 17.9025247,0.188322164 20.1516635,0.188322164 C21.4806459,0.188322164 22.8000929,0.504178959 23.9681671,1.10132709 C24.1374187,1.18714478 24.2542261,1.34924487 24.2852158,1.53518321 C24.3162055,1.72231347 24.2566099,1.91182754 24.1243076,2.04770556 L20.444874,5.82130032 L20.444874,8.33027599 L22.7786385,8.33027599 L26.5510414,4.56979227 C26.6857275,4.43510616 26.8764334,4.3719348 27.0647556,4.40292453 C27.2518859,4.43272234 27.413986,4.54952976 27.5009956,4.71878132 C29.1565619,7.95482358 28.542727,11.8571449 25.9729638,14.4281 C24.3996394,16.0014244 22.3066412,16.8679447 20.0813407,16.8679447 L20.0813407,16.8679447 C18.9096907,16.8679447 17.7404246,16.6188351 16.673663,16.143262 L5.27182869,27.5462882 C4.70924602,28.1088709 3.96072501,28.41996 3.16571942,28.41996 Z M20.1516635,1.37904268 C18.2207654,1.37904268 16.415018,2.12279604 15.0645812,3.470849 C12.8547756,5.68065465 12.318415,9.0215852 13.7308312,11.7808625 C13.8488306,12.0109016 13.8047298,12.291001 13.6211753,12.4745555 L1.9082518,24.1779437 C1.56974867,24.5176387 1.38261842,24.9669897 1.38261842,25.4461385 C1.38261842,25.9217116 1.56736485,26.3674868 1.90348416,26.7036061 C2.58049042,27.3806124 3.75333225,27.3794205 4.4291466,26.7036061 L16.128959,15.0026018 C16.3125136,14.8190473 16.5938049,14.7761384 16.8214602,14.8929458 C17.8226666,15.4054682 18.9502158,15.6760323 20.0813407,15.6760323 C21.9895925,15.6760323 23.7822288,14.9334709 25.1302817,13.5854179 C27.1350784,11.5794293 27.7512972,8.63063793 26.7763128,6.02511735 L23.4437256,9.3469773 C23.3316859,9.45901707 23.180313,9.52099651 23.0229806,9.52099651 L19.8477258,9.52099651 C19.518758,9.52099651 19.2517696,9.25400813 19.2517696,8.9250403 L19.2517696,5.57815019 C19.2517696,5.42320157 19.3125571,5.2730206 19.4210212,5.16217275 L22.6701745,1.8307775 C21.8715931,1.5339913 21.0146081,1.37904268 20.1516635,1.37904268 Z" id="Shape"></path>
                    </g>
                </g>
            </g>
        </g>
    </g>
</svg>