<?xml version="1.0" encoding="UTF-8" standalone="no"?>
<svg width="42px" height="37px" viewBox="0 0 42 37" version="1.1" xmlns="http://www.w3.org/2000/svg" xmlns:xlink="http://www.w3.org/1999/xlink">
    <!-- Generator: Sketch 46.2 (44496) - http://www.bohemiancoding.com/sketch -->
    <title>Group 11</title>
    <desc>Created with Sketch.</desc>
    <defs></defs>
    <g id="GD-28.06.17" stroke="none" stroke-width="1" fill="none" fill-rule="evenodd" stroke-linecap="round">
        <g id="nymellomnavigasjonssideV3" transform="translate(-356.000000, -1276.000000)" stroke="#3E3832" stroke-width="2">
            <g id="Group-11" transform="translate(357.000000, 1277.000000)">
                <path d="M3.47826087,1.79248143 C3.92202243,0.910915871 5.32396681,0.463195522 7.68409401,0.449320385 C10.495647,4.68109306 12.4314324,10.1448453 13.4914503,16.840577 L8.69565217,17.9863348 L3.47826087,1.79248143 Z" id="Rectangle-3-Copy-2"></path>
                <path d="M28.5537695,16.0705735 L29.3090964,21.2170385 L9.22370657,23.3164963 C9.22370657,21.9168578 9.04768844,20.1401373 8.69565217,17.9863348 C16.2882925,15.771403 22.9076649,15.1328159 28.5537695,16.0705735 Z" id="Rectangle-3-Copy-3"></path>
                <path d="M21.3670211,11.0525632 L14.2235407,10.5136727 C12.049038,10.252941 10.7861186,10.638498 10.4347826,11.6703439" id="Path-7-Copy" transform="translate(15.900902, 11.304348) scale(-1, 1) translate(-15.900902, -11.304348) "></path>
                <path d="M28.6956522,21.7391304 L32.173913,30.4347826" id="Path-3-Copy"></path>
                <path d="M9.56521739,23.4782609 L8.69565217,31.5326964" id="Path-9-Copy"></path>
                <path d="M0,27.6754661 C13.8829982,37.9939849 27.120769,36.8847715 39.7133122,24.3478261" id="Path-10-Copy"></path>
            </g>
        </g>
    </g>
</svg>