<?xml version="1.0" encoding="UTF-8" standalone="no"?>
<svg width="80px" height="80px" viewBox="0 0 80 80" version="1.1" xmlns="http://www.w3.org/2000/svg" xmlns:xlink="http://www.w3.org/1999/xlink">
    <!-- Generator: Sketch 44.1 (41455) - http://www.bohemiancoding.com/sketch -->
    <title>Oppgaver Copy</title>
    <desc>Created with Sketch.</desc>
    <defs>
        <polygon id="path-1" points="37.6 0.466866667 37.6 46.6518519 0.000417777778 46.6518519 0.000417777778 0.466866667"></polygon>
        <polygon id="path-3" points="0 51.4510741 37.6 51.4510741 37.6 0.695948148 0 0.695948148"></polygon>
    </defs>
    <g id="Grafisk-design" stroke="none" stroke-width="1" fill="none" fill-rule="evenodd">
        <g id="nymellomnavigasjonsside1440" transform="translate(-250.000000, -411.000000)">
            <g id="Group-2" transform="translate(218.000000, 379.000000)">
                <g id="Oppgaver-Copy" transform="translate(32.000000, 32.000000)">
                    <circle id="Oval" fill="#87D5EE" cx="40" cy="40" r="40"></circle>
                    <g id="Page-1" transform="translate(20.800000, 14.755324)">
                        <g id="Group-3" transform="translate(0.000000, 4.799222)">
                            <mask id="mask-2" fill="white">
                                <use xlink:href="#path-1"></use>
                            </mask>
                            <g id="Clip-2"></g>
                            <path d="M35.1564178,0.466866667 L2.44302519,0.466866667 C1.09290667,0.466866667 0.000417777778,1.56074815 0.000417777778,2.91225926 L0.000417777778,44.2075037 C0.000417777778,44.459563 0.0387140741,44.7046593 0.109736296,44.9330444 C0.228802963,45.3167037 0.440477037,45.6585852 0.717602963,45.9364074 C0.771217778,45.9893259 0.829706667,46.0443333 0.891677037,46.0930741 C1.25166222,46.3924815 1.70146963,46.5874444 2.19235852,46.6389704 C2.27591407,46.6473259 2.35946963,46.6522 2.44302519,46.6522 L35.1564178,46.6522 C36.5065363,46.6522 37.6004178,45.5569259 37.6004178,44.2075037 L37.6004178,2.91225926 C37.6004178,1.56074815 36.5065363,0.466866667 35.1564178,0.466866667" id="Fill-1" fill="#515658" mask="url(#mask-2)"></path>
                        </g>
                        <path d="M3.02617333,14.2928044 L3.02617333,46.0641081 C3.02617333,47.1990711 3.94458815,48.115397 5.07606963,48.115397 L32.5233733,48.115397 C33.6555511,48.115397 34.5739659,47.1990711 34.5739659,46.0641081 L34.5739659,9.58584148 C34.5739659,8.45296741 33.6555511,7.53524889 32.5233733,7.53524889 L10.1618178,7.53524889 L3.02617333,14.2928044 Z" id="Fill-4" fill="#FFFFFF"></path>
                        <path d="M10.1618178,7.53552741 L10.1618178,12.2404015 C10.1618178,13.3739719 9.24409926,14.293083 8.11192148,14.293083 L3.02617333,14.293083 L10.1618178,7.53552741 Z" id="Fill-6" fill="#C0C0BE"></path>
                        <path d="M18.8009748,6.41428148 C18.3637007,6.41428148 18.0099822,6.06195556 18.0099822,5.62468148 C18.0099822,5.18740741 18.3637007,4.83299259 18.8009748,4.83299259 C19.23616,4.83299259 19.5912711,5.18740741 19.5912711,5.62468148 C19.5912711,6.06195556 19.23616,6.41428148 18.8009748,6.41428148 M23.6841007,3.18137778 L20.7415526,3.18137778 L20.7415526,2.63757037 C20.7415526,1.56527407 19.8718785,0.696296296 18.8009748,0.696296296 C17.7265896,0.696296296 16.8590044,1.56527407 16.8590044,2.63757037 L16.8590044,3.18137778 L13.9164563,3.18137778 C12.4660711,3.18137778 11.2886341,4.35881481 11.2886341,5.8098963 L11.2886341,8.97108148 L26.3112267,8.97108148 L26.3112267,5.8098963 C26.3112267,4.35881481 25.1344859,3.18137778 23.6841007,3.18137778" id="Fill-8" fill="#2F3237"></path>
                        <mask id="mask-4" fill="white">
                            <use xlink:href="#path-3"></use>
                        </mask>
                        <g id="Clip-11"></g>
                        <polygon id="Fill-10" fill="#A59D96" mask="url(#mask-4)" points="13.491437 26.655963 28.7215259 26.655963 28.7215259 24.9528222 13.491437 24.9528222"></polygon>
                        <polygon id="Fill-12" fill="#A59D96" mask="url(#mask-4)" points="13.491437 30.5078741 28.7215259 30.5078741 28.7215259 28.8061259 13.491437 28.8061259"></polygon>
                        <polygon id="Fill-13" fill="#A59D96" mask="url(#mask-4)" points="13.491437 34.3597852 28.7215259 34.3597852 28.7215259 32.658037 13.491437 32.658037"></polygon>
                        <polygon id="Fill-14" fill="#A59D96" mask="url(#mask-4)" points="13.491437 38.2123926 28.7215259 38.2123926 28.7215259 36.5106444 13.491437 36.5106444"></polygon>
                        <path d="M11.8216489,24.2572222 L11.1253526,24.2572222 L9.32681926,24.2572222 L8.63052296,24.2572222 L8.63052296,24.9535185 L8.63052296,26.655963 L8.63052296,27.3522593 L9.32681926,27.3522593 L11.1253526,27.3522593 L11.8216489,27.3522593 L11.8216489,26.655963 L11.8216489,24.9535185 L11.8216489,24.2572222 Z M9.32681926,26.655963 L11.1253526,26.655963 L11.1253526,24.9535185 L9.32681926,24.9535185 L9.32681926,26.655963 Z" id="Fill-15" fill="#A59D96" mask="url(#mask-4)"></path>
                        <path d="M11.8216489,28.1092726 L11.1253526,28.1092726 L9.32681926,28.1092726 L8.63052296,28.1092726 L8.63052296,28.8055689 L8.63052296,30.507317 L8.63052296,31.2036133 L9.32681926,31.2036133 L11.1253526,31.2036133 L11.8216489,31.2036133 L11.8216489,30.507317 L11.8216489,28.8055689 L11.8216489,28.1092726 Z M9.32681926,30.507317 L11.1253526,30.507317 L11.1253526,28.8055689 L9.32681926,28.8055689 L9.32681926,30.507317 Z" id="Fill-16" fill="#A59D96" mask="url(#mask-4)"></path>
                        <path d="M11.8216489,31.961323 L11.1253526,31.961323 L9.32681926,31.961323 L8.63052296,31.961323 L8.63052296,32.6576193 L8.63052296,34.3593674 L8.63052296,35.0556637 L9.32681926,35.0556637 L11.1253526,35.0556637 L11.8216489,35.0556637 L11.8216489,34.3593674 L11.8216489,32.6576193 L11.8216489,31.961323 Z M9.32681926,34.3593674 L11.1253526,34.3593674 L11.1253526,32.6576193 L9.32681926,32.6576193 L9.32681926,34.3593674 Z" id="Fill-17" fill="#A59D96" mask="url(#mask-4)"></path>
                        <path d="M11.8216489,35.8140696 L11.1253526,35.8140696 L9.32681926,35.8140696 L8.63052296,35.8140696 L8.63052296,36.5103659 L8.63052296,38.2121141 L8.63052296,38.9084104 L9.32681926,38.9084104 L11.1253526,38.9084104 L11.8216489,38.9084104 L11.8216489,38.2121141 L11.8216489,36.5103659 L11.8216489,35.8140696 Z M9.32681926,38.2121141 L11.1253526,38.2121141 L11.1253526,36.5103659 L9.32681926,36.5103659 L9.32681926,38.2121141 Z" id="Fill-18" fill="#A59D96" mask="url(#mask-4)"></path>
                        <polyline id="Stroke-19" stroke="#2F3237" stroke-width="2.24" mask="url(#mask-4)" points="8.69040444 24.1028533 10.3733526 26.0288089 12.7414563 22.9685867"></polyline>
                        <polyline id="Stroke-20" stroke="#2F3237" stroke-width="2.24" mask="url(#mask-4)" points="8.69040444 28.0504356 10.3733526 29.9763911 12.7414563 26.9161689"></polyline>
                    </g>
                </g>
            </g>
        </g>
    </g>
</svg>