<?xml version="1.0" encoding="utf-8"?>
<!-- Generator: Adobe Illustrator 23.0.6, SVG Export Plug-In . SVG Version: 6.00 Build 0)  -->
<svg version="1.1" id="Layer_1" xmlns="http://www.w3.org/2000/svg" xmlns:xlink="http://www.w3.org/1999/xlink" x="0px" y="0px"
	 width="64px" height="64px" viewBox="0 0 64 64" style="enable-background:new 0 0 64 64;" xml:space="preserve">
<style type="text/css">
	.st0{fill:#74716D;}
</style>
<g>
	<path class="st0" d="M32,0C14.3,0,0,14.3,0,32c0,17.7,14.3,32,32,32s32-14.3,32-32C64,14.3,49.7,0,32,0z M44.6,22h-4.5l0-4.5
		L44.6,22z M46,46H22V25h-5v-7h5v-2h16v8h8V46z"/>
	<rect x="26" y="32" class="st0" width="16" height="2"/>
	<rect x="26" y="36" class="st0" width="16" height="2"/>
	<rect x="26" y="40" class="st0" width="16" height="2"/>
</g>
<g>
	<path class="st0" d="M21.9,20.7c-0.1-0.1-0.2-0.1-0.3-0.1c-0.1,0-0.2,0-0.5,0h-0.3v1.9h0.4c0.2,0,0.3,0,0.4,0
		c0.1,0,0.2-0.1,0.2-0.1S22,22.2,22,22s0.1-0.3,0.1-0.5s0-0.4-0.1-0.5S22,20.8,21.9,20.7z"/>
	<path class="st0" d="M24.5,20.5c-0.2,0-0.4,0.1-0.6,0.2s-0.2,0.4-0.2,0.7c0,0.3,0.1,0.6,0.2,0.7s0.3,0.3,0.6,0.3s0.4-0.1,0.6-0.2
		s0.2-0.4,0.2-0.7c0-0.3-0.1-0.6-0.2-0.7S24.7,20.5,24.5,20.5z"/>
	<path class="st0" d="M18,19v5h13v-5H18z M22.6,22.1c-0.1,0.2-0.2,0.4-0.3,0.5c-0.1,0.1-0.2,0.2-0.4,0.2c-0.1,0-0.3,0.1-0.5,0.1
		h-1.1v-2.9h1.1c0.2,0,0.4,0,0.5,0.1c0.2,0,0.3,0.1,0.4,0.3s0.2,0.3,0.3,0.5s0.1,0.4,0.1,0.7C22.7,21.8,22.7,22,22.6,22.1z
		 M25.5,22.6c-0.3,0.3-0.6,0.4-1,0.4c-0.4,0-0.8-0.1-1-0.4s-0.4-0.6-0.4-1.1c0-0.3,0-0.5,0.1-0.7c0.1-0.1,0.2-0.3,0.3-0.4
		s0.2-0.2,0.4-0.3c0.2-0.1,0.4-0.1,0.6-0.1c0.4,0,0.8,0.1,1,0.4s0.4,0.6,0.4,1.1C25.9,22,25.7,22.3,25.5,22.6z M28.3,22.8
		c-0.2,0.2-0.5,0.2-0.8,0.2c-0.4,0-0.7-0.1-0.9-0.4s-0.4-0.6-0.4-1.1c0-0.5,0.1-0.8,0.4-1.1s0.6-0.4,1-0.4c0.4,0,0.6,0.1,0.9,0.3
		c0.1,0.1,0.2,0.3,0.3,0.5L28.1,21c0-0.1-0.1-0.3-0.2-0.4s-0.2-0.1-0.4-0.1c-0.2,0-0.4,0.1-0.5,0.2s-0.2,0.4-0.2,0.7
		c0,0.4,0.1,0.6,0.2,0.8s0.3,0.2,0.5,0.2c0.2,0,0.3,0,0.4-0.1s0.2-0.3,0.2-0.5l0.6,0.2C28.6,22.4,28.5,22.6,28.3,22.8z"/>
</g>
</svg>
