<?xml version="1.0" encoding="UTF-8" standalone="no"?>
<svg width="40px" height="40px" viewBox="0 0 40 40" version="1.1" xmlns="http://www.w3.org/2000/svg" xmlns:xlink="http://www.w3.org/1999/xlink">
    <!-- Generator: Sketch 46.2 (44496) - http://www.bohemiancoding.com/sketch -->
    <title>first aid plaster</title>
    <desc>Created with Sketch.</desc>
    <defs></defs>
    <g id="GD-28.06.17" stroke="none" stroke-width="1" fill="none" fill-rule="evenodd">
        <g id="nymellomnavigasjonssideV3" transform="translate(-876.000000, -580.000000)">
            <g id="first-aid-plaster" transform="translate(876.000000, 580.000000)">
                <g id="Group">
                    <path d="M16.4833333,3.51833333 C12.905,-0.06 7.1,-0.06 3.52,3.51833333 C-0.0616666667,7.10166667 -0.0583333333,12.9066667 3.52,16.4833333 L23.52,36.4833333 C27.0983333,40.0616667 32.9033333,40.06 36.4833333,36.4816667 C40.0616667,32.905 40.0616667,27.0966667 36.4833333,23.52 L16.4833333,3.51833333 L16.4833333,3.51833333 Z M9.39333333,22.36 L22.355,9.395 L30.6066667,17.645 L17.645,30.61 L9.39333333,22.36 Z" id="Shape" stroke="#3E3832"></path>
                    <path d="M7.03833333,13.2766667 C6.825,13.2766667 6.61166667,13.3583333 6.44833333,13.52 C6.12333333,13.845 6.12333333,14.3733333 6.44833333,14.6983333 C6.61166667,14.8616667 6.825,14.9416667 7.03833333,14.9416667 C7.25166667,14.9416667 7.465,14.86 7.62833333,14.6983333 C7.955,14.3733333 7.955,13.845 7.62833333,13.52 C7.465,13.3583333 7.25166667,13.2766667 7.03833333,13.2766667 Z M10.5733333,9.74 C10.36,9.74 10.1466667,9.82166667 9.98333333,9.985 C9.65833333,10.3066667 9.65833333,10.8383333 9.98333333,11.1633333 C10.1466667,11.3266667 10.36,11.4066667 10.5733333,11.4066667 C10.7866667,11.4066667 11,11.3266667 11.1616667,11.1633333 C11.4866667,10.8383333 11.4866667,10.3066667 11.1616667,9.985 C11,9.82166667 10.7866667,9.74 10.5733333,9.74 Z M6.44833333,9.15 C6.235,9.15 6.02166667,9.23 5.85833333,9.39333333 C5.53333333,9.71833333 5.53333333,10.2466667 5.85833333,10.575 C6.02166667,10.7383333 6.235,10.8183333 6.44833333,10.8183333 C6.66166667,10.8183333 6.875,10.7366667 7.03833333,10.575 C7.365,10.2466667 7.365,9.71833333 7.03833333,9.39333333 C6.875,9.23 6.66166667,9.15 6.44833333,9.15 L6.44833333,9.15 Z M9.98333333,5.61666667 C9.77,5.61666667 9.55666667,5.69833333 9.39333333,5.86 C9.06833333,6.185 9.06833333,6.71333333 9.39333333,7.03666667 C9.55666667,7.20166667 9.77,7.28333333 9.98333333,7.28333333 C10.1966667,7.28333333 10.41,7.20166667 10.5733333,7.03666667 C10.8983333,6.71333333 10.8983333,6.185 10.5733333,5.86 C10.41,5.69833333 10.1966667,5.61666667 9.98333333,5.61666667 L9.98333333,5.61666667 Z M11.1616667,13.8616667 C10.9483333,13.8616667 10.735,13.9466667 10.5716667,14.1083333 C10.2466667,14.4333333 10.2466667,14.9616667 10.5716667,15.2866667 C10.735,15.45 10.9483333,15.53 11.1616667,15.53 C11.375,15.53 11.5883333,15.4483333 11.7516667,15.2866667 C12.0766667,14.9616667 12.0766667,14.4333333 11.7516667,14.1083333 C11.5883333,13.9466667 11.375,13.8616667 11.1616667,13.8616667 Z M14.6966667,10.33 C14.4833333,10.33 14.27,10.4116667 14.1066667,10.5733333 C13.7833333,10.9 13.7833333,11.425 14.1083333,11.75 C14.2716667,11.9166667 14.485,11.9966667 14.6983333,11.9966667 C14.9116667,11.9966667 15.1233333,11.915 15.2866667,11.75 C15.6133333,11.4266667 15.6133333,10.9 15.2866667,10.575 C15.1233333,10.4116667 14.91,10.33 14.6966667,10.33 Z M14.1083333,6.20333333 C13.895,6.20333333 13.6816667,6.285 13.5183333,6.44666667 C13.1933333,6.775 13.1933333,7.30333333 13.5183333,7.62833333 C13.6816667,7.79166667 13.895,7.87166667 14.1083333,7.87166667 C14.3216667,7.87166667 14.535,7.79 14.6983333,7.62833333 C15.0233333,7.30333333 15.0233333,6.775 14.6983333,6.44666667 C14.535,6.285 14.3216667,6.20333333 14.1083333,6.20333333 Z M25.8933333,32.1333333 C25.68,32.1333333 25.4666667,32.2133333 25.3033333,32.3766667 C24.9783333,32.7 24.9783333,33.2283333 25.3033333,33.5566667 C25.4666667,33.72 25.68,33.7983333 25.8933333,33.7983333 C26.1066667,33.7983333 26.32,33.72 26.4833333,33.5566667 C26.8083333,33.2283333 26.8083333,32.7 26.4833333,32.3766667 C26.32,32.2133333 26.1066667,32.1333333 25.8933333,32.1333333 Z M29.4283333,28.595 C29.215,28.595 29.0016667,28.6783333 28.8383333,28.8383333 C28.5116667,29.1633333 28.5116667,29.6916667 28.8383333,30.0183333 C29.0016667,30.1816667 29.215,30.2616667 29.4283333,30.2616667 C29.6416667,30.2616667 29.855,30.18 30.0183333,30.0183333 C30.3433333,29.6916667 30.3433333,29.1633333 30.0183333,28.8383333 C29.855,28.6783333 29.6416667,28.595 29.4283333,28.595 Z M30.0183333,32.72 C29.805,32.72 29.5916667,32.8016667 29.4283333,32.9633333 C29.1033333,33.2916667 29.1033333,33.82 29.4283333,34.1416667 C29.5916667,34.305 29.805,34.385 30.0183333,34.385 C30.2316667,34.385 30.445,34.3033333 30.6083333,34.1416667 C30.935,33.82 30.935,33.2916667 30.6083333,32.9633333 C30.445,32.8016667 30.2316667,32.72 30.0183333,32.72 Z M33.555,29.1866667 C33.3416667,29.1866667 33.1283333,29.2683333 32.965,29.43 C32.64,29.7533333 32.64,30.2816667 32.965,30.61 C33.1283333,30.7716667 33.3416667,30.8533333 33.555,30.8533333 C33.7683333,30.8533333 33.9816667,30.7716667 34.145,30.61 C34.47,30.2816667 34.47,29.7533333 34.145,29.43 C33.9816667,29.2683333 33.7683333,29.1866667 33.555,29.1866667 Z M25.305,28.0066667 C25.0916667,28.0066667 24.8783333,28.0883333 24.715,28.25 C24.39,28.575 24.39,29.105 24.715,29.43 C24.8783333,29.5916667 25.0916667,29.6733333 25.305,29.6733333 C25.5183333,29.6733333 25.7316667,29.5916667 25.895,29.43 C26.22,29.105 26.22,28.575 25.895,28.25 C25.73,28.0883333 25.5183333,28.0066667 25.305,28.0066667 Z M28.84,24.4716667 C28.6266667,24.4716667 28.4133333,24.5533333 28.25,24.715 C27.925,25.0416667 27.925,25.5683333 28.25,25.8933333 C28.4133333,26.0566667 28.6266667,26.1366667 28.84,26.1366667 C29.0533333,26.1366667 29.2666667,26.055 29.43,25.8933333 C29.7566667,25.5683333 29.7566667,25.0416667 29.43,24.715 C29.2666667,24.5516667 29.0533333,24.4716667 28.84,24.4716667 Z M32.965,25.06 C32.7516667,25.06 32.5383333,25.1416667 32.375,25.3033333 C32.05,25.6283333 32.05,26.1566667 32.375,26.4816667 C32.5383333,26.645 32.7516667,26.725 32.965,26.725 C33.1783333,26.725 33.39,26.6433333 33.5533333,26.4816667 C33.88,26.1566667 33.88,25.6283333 33.5533333,25.3033333 C33.39,25.1416667 33.1783333,25.06 32.965,25.06 L32.965,25.06 Z" id="Shape" fill="#3E3832"></path>
                </g>
            </g>
        </g>
    </g>
</svg>