<?xml version="1.0" encoding="utf-8"?>
<!-- Generator: Adobe Illustrator 23.0.6, SVG Export Plug-In . SVG Version: 6.00 Build 0)  -->
<svg version="1.1" id="Layer_1" xmlns="http://www.w3.org/2000/svg" xmlns:xlink="http://www.w3.org/1999/xlink" x="0px" y="0px"
	 width="64px" height="64px" viewBox="0 0 64 64" style="enable-background:new 0 0 64 64;" xml:space="preserve">
<style type="text/css">
	.st0{fill:#74716D;}
</style>
<g>
	<path class="st0" d="M32,0C14.3,0,0,14.3,0,32c0,17.7,14.3,32,32,32s32-14.3,32-32C64,14.3,49.7,0,32,0z M44.6,22h-4.5l0-4.5
		L44.6,22z M46,46H22V25h-5v-7h5v-2h16v8h8V46z"/>
	<rect x="30" y="30" class="st0" width="3" height="2"/>
	<rect x="34" y="30" class="st0" width="3" height="2"/>
	<rect x="26" y="30" class="st0" width="3" height="2"/>
	<rect x="38" y="30" class="st0" width="3" height="2"/>
	<rect x="30" y="33" class="st0" width="3" height="2"/>
	<rect x="34" y="33" class="st0" width="3" height="2"/>
	<rect x="26" y="33" class="st0" width="3" height="2"/>
	<rect x="38" y="33" class="st0" width="3" height="2"/>
	<rect x="30" y="36" class="st0" width="3" height="2"/>
	<rect x="34" y="36" class="st0" width="3" height="2"/>
	<rect x="26" y="36" class="st0" width="3" height="2"/>
	<rect x="38" y="36" class="st0" width="3" height="2"/>
	<rect x="30" y="39" class="st0" width="3" height="2"/>
	<rect x="34" y="39" class="st0" width="3" height="2"/>
	<rect x="26" y="39" class="st0" width="3" height="2"/>
	<rect x="38" y="39" class="st0" width="3" height="2"/>
	<path class="st0" d="M30.1,20.9c-0.1-0.1-0.2-0.1-0.4-0.1c-0.2,0-0.3,0.1-0.4,0.2c-0.1,0.1-0.2,0.2-0.2,0.4h1.2
		C30.3,21.1,30.2,21,30.1,20.9z"/>
	<path class="st0" d="M34,24v-5h-3H18v5h13H34z M31.4,19.3h0.7v3.6h-0.7V19.3z M21,22.3c0.1,0.1,0.2,0.1,0.4,0.1
		c0.2,0,0.3,0,0.4-0.1c0.1,0,0.1-0.1,0.1-0.2h0.7c0,0.2-0.1,0.3-0.3,0.5c-0.2,0.3-0.6,0.4-1,0.4c-0.4,0-0.7-0.1-0.9-0.3
		c-0.3-0.2-0.4-0.6-0.4-1.1c0-0.5,0.1-0.8,0.4-1.1c0.2-0.2,0.6-0.4,1-0.4c0.2,0,0.4,0,0.6,0.1c0.2,0.1,0.3,0.2,0.5,0.4
		c0.1,0.2,0.2,0.3,0.2,0.5c0,0.1,0,0.3,0,0.5h-1.9C20.8,22,20.9,22.2,21,22.3z M24.5,22.9l-0.5-0.8l-0.5,0.8h-0.8l0.9-1.3l-0.9-1.3
		h0.9l0.4,0.8l0.4-0.8h0.8l-0.9,1.3l0.9,1.4L24.5,22.9L24.5,22.9z M26.5,22c0.1,0.2,0.2,0.3,0.5,0.3c0.2,0,0.3,0,0.3-0.1
		s0.1-0.2,0.1-0.3h0.7c0,0.2-0.1,0.4-0.2,0.6c-0.2,0.3-0.5,0.5-1,0.5s-0.7-0.1-0.9-0.4c-0.2-0.3-0.3-0.6-0.3-1
		c0-0.5,0.1-0.8,0.3-1.1c0.2-0.3,0.5-0.4,0.9-0.4c0.3,0,0.6,0.1,0.8,0.2c0.2,0.1,0.3,0.4,0.4,0.8h-0.7c0-0.1,0-0.2-0.1-0.3
		c-0.1-0.1-0.2-0.2-0.4-0.2c-0.2,0-0.4,0.1-0.5,0.3c0,0.1-0.1,0.3-0.1,0.5C26.4,21.8,26.4,21.9,26.5,22z M30.7,22.6
		c-0.2,0.3-0.6,0.4-1,0.4c-0.4,0-0.7-0.1-0.9-0.3c-0.3-0.2-0.4-0.6-0.4-1.1c0-0.5,0.1-0.8,0.4-1.1s0.6-0.4,1-0.4
		c0.2,0,0.4,0,0.6,0.1c0.2,0.1,0.3,0.2,0.5,0.4c0.1,0.2,0.2,0.3,0.2,0.5c0,0.1,0,0.3,0,0.5h-1.9c0,0.3,0.1,0.5,0.3,0.6
		c0.1,0.1,0.2,0.1,0.4,0.1c0.2,0,0.3,0,0.4-0.1c0.1,0,0.1-0.1,0.1-0.2H31C31,22.3,30.9,22.4,30.7,22.6z"/>
	<path class="st0" d="M21.4,20.7c-0.2,0-0.3,0.1-0.4,0.2c-0.1,0.1-0.2,0.2-0.2,0.4H22c0-0.2-0.1-0.3-0.2-0.4
		C21.7,20.8,21.5,20.7,21.4,20.7z"/>
</g>
</svg>
