<?xml version="1.0" encoding="utf-8"?>
<!-- Generator: Adobe Illustrator 17.0.0, SVG Export Plug-In . SVG Version: 6.00 Build 0)  -->
<!DOCTYPE svg PUBLIC "-//W3C//DTD SVG 1.1//EN" "http://www.w3.org/Graphics/SVG/1.1/DTD/svg11.dtd">
<svg version="1.1" id="Layer_1" xmlns="http://www.w3.org/2000/svg" xmlns:xlink="http://www.w3.org/1999/xlink" x="0px" y="0px"
	 width="26px" height="26px" viewBox="0 0 26 26" enable-background="new 0 0 26 26" xml:space="preserve">
<g>
	<path fill="#988F86" d="M13,0C5.82,0,0,5.821,0,13c0,7.18,5.82,13,13,13c7.18,0,13-5.82,13-13C26,5.821,20.18,0,13,0z M19,19H9v-8
		H6v-1V9V8V7h1h2V6h6v4h4V19z M15.991,9.007V6.008l3.016,2.998H15.991z"/>
	<rect x="7" y="8" fill="#988F86" width="4" height="2"/>
</g>
<path fill="#988F86" d="M16.5,13.935l-3.069,3.069c-0.271,0.271-0.67,0.427-1.095,0.427h0c-0.453,0-0.89-0.177-1.199-0.486
	c-0.618-0.619-0.629-1.654-0.024-2.259l2.641-2.641l0.332,0.332l-2.64,2.641c-0.371,0.371-0.453,1.118,0.024,1.595
	c0.221,0.221,0.537,0.348,0.866,0.348l0,0c0.301,0,0.579-0.105,0.762-0.289l3.069-3.069c0.259-0.259,0.309-0.786-0.033-1.128
	c-0.337-0.336-0.876-0.298-1.135-0.04l-2.235,2.235c-0.13,0.126-0.198,0.268-0.2,0.411c-0.002,0.126,0.048,0.25,0.138,0.341
	c0.095,0.098,0.207,0.147,0.331,0.147c0,0,0,0,0.001,0c0.16,0,0.328-0.082,0.472-0.231l1.756-1.778l0.334,0.33l-1.754,1.777
	c-0.232,0.239-0.519,0.372-0.807,0.372c0,0-0.001,0-0.001,0c-0.252,0-0.483-0.1-0.667-0.289c-0.176-0.18-0.275-0.426-0.271-0.675
	c0.003-0.271,0.121-0.527,0.34-0.74l2.233-2.233c0.469-0.468,1.309-0.449,1.799,0.04C16.953,12.628,16.968,13.466,16.5,13.935z"/>
</svg>
