<?xml version="1.0" encoding="utf-8"?>
<!-- Generator: Adobe Illustrator 17.0.0, SVG Export Plug-In . SVG Version: 6.00 Build 0)  -->
<!DOCTYPE svg PUBLIC "-//W3C//DTD SVG 1.1//EN" "http://www.w3.org/Graphics/SVG/1.1/DTD/svg11.dtd">
<svg version="1.1" id="Layer_1" xmlns="http://www.w3.org/2000/svg" xmlns:xlink="http://www.w3.org/1999/xlink" x="0px" y="0px"
	width="15px" height="15px" viewBox="0 0 15 15" enable-background="new 0 0 15 15" xml:space="preserve">
	<g>
		<polygon fill="#FFFFFF" points="12,0 12,2 9,2 9,0 6,0 6,2 3,2 3,0 0,0 0,2 0,4 3,4 6,4 9,4 12,4 15,4 15,2 15,0 	"/>
		<polygon fill="#FFFFFF" points="5,4.994 0,5 0.001,8 1,8 1,12 0.001,12 0.001,15 4,15 4,14 6,10 5,6 	"/>
		<polygon fill="#FFFFFF" points="10,6 9,10 11,14 11,15 14.999,15 14.999,12 14,12 14,8 14.999,8 15,5 10,4.994 	"/>
	</g>
</svg>