<?xml version="1.0" encoding="utf-8"?>
<!-- Generator: Adobe Illustrator 19.1.0, SVG Export Plug-In . SVG Version: 6.00 Build 0)  -->
<!DOCTYPE svg PUBLIC "-//W3C//DTD SVG 1.1//EN" "http://www.w3.org/Graphics/SVG/1.1/DTD/svg11.dtd">
<svg version="1.1" xmlns="http://www.w3.org/2000/svg" xmlns:xlink="http://www.w3.org/1999/xlink" x="0px" y="0px" width="16px"
	 height="18.8px" viewBox="0 0 16 18.8" enable-background="new 0 0 16 18.8" xml:space="preserve">
<g id="bkdg" opacity="0.1">
</g>
<g id="bakdg">
</g>
<g id="Layer_1">
	<g>
		<path fill="#B7B1A9" d="M15.1,12.8c-1,0-1-0.6-1-1c0-4.2-1.3-7.7-3.8-9C10.1,1.5,9.1-0.1,8-0.1c-1.1,0-2.1,1.6-2.3,2.9
			c-2.5,1.3-3.8,4.8-3.8,9c0,0.4,0,1-1,1H0v2h6H10h6v-2H15.1z"/>
		<path fill="#B7B1A9" d="M8,18.2c1.3,0,2.4-1.4,2.4-2.4H5.6C5.6,16.8,6.7,18.2,8,18.2z"/>
	</g>
</g>
<g id="guides">
</g>
</svg>
