<?xml version="1.0" encoding="utf-8"?>
<!-- Generator: Adobe Illustrator 19.1.0, SVG Export Plug-In . SVG Version: 6.00 Build 0)  -->
<!DOCTYPE svg PUBLIC "-//W3C//DTD SVG 1.1//EN" "http://www.w3.org/Graphics/SVG/1.1/DTD/svg11.dtd">
<svg version="1.1" xmlns="http://www.w3.org/2000/svg" xmlns:xlink="http://www.w3.org/1999/xlink" x="0px" y="0px" width="31px"
	 height="31px" viewBox="0 0 31 31" enable-background="new 0 0 31 31" xml:space="preserve">
<g id="bkdg" opacity="0.1">
</g>
<g id="bakdg">
</g>
<g id="Layer_1">
	<g id="XMLID_18_">
		<path fill="#B7B1A9" d="M15.5,31C7,31,0,24,0,15.5S7,0,15.5,0S31,7,31,15.5S24,31,15.5,31z M15.5,1C7.5,1,1,7.5,1,15.5
			S7.5,30,15.5,30S30,23.5,30,15.5S23.5,1,15.5,1z"/>
	</g>
	<g>
		<path fill="#B7B1A9" d="M22.6,20c-1,0-1-1.2-1-1.5c0-4.2-1.3-8-3.8-9.3c-0.3-1.3-1.2-3-2.3-3c-1.1,0-2.1,1.6-2.3,2.9
			c-2.5,1.3-3.8,5.3-3.8,9.5c0,0.4,0,1.5-1,1.5H7v2h6.5h4.1H23v-2H22.6z"/>
		<path fill="#B7B1A9" d="M15.5,25.4c1.3,0,2.4-1.4,2.4-2.4h-4.8C13.1,24,14.2,25.4,15.5,25.4z"/>
	</g>
</g>
<g id="guides">
</g>
</svg>
