<?xml version="1.0" encoding="utf-8"?>
<!-- Generator: Adobe Illustrator 19.1.0, SVG Export Plug-In . SVG Version: 6.00 Build 0)  -->
<!DOCTYPE svg PUBLIC "-//W3C//DTD SVG 1.1//EN" "http://www.w3.org/Graphics/SVG/1.1/DTD/svg11.dtd">
<svg version="1.1" xmlns="http://www.w3.org/2000/svg" xmlns:xlink="http://www.w3.org/1999/xlink" x="0px" y="0px" width="14px"
	 height="16px" viewBox="0 0 14 16" enable-background="new 0 0 14 16" xml:space="preserve">
<g id="bkdg" opacity="0.1">
</g>
<g id="bakdg">
</g>
<g id="Layer_1">
	<path fill="#B7B1A9" d="M9,10.5C9,9.7,8.3,9,7.5,9S6,9.7,6,10.5c0,0.7,0.4,1.2,1,1.4v2C7,14,7,14,7.1,14h0.8C8,14,8,14,8,13.9v-2
		C8.6,11.7,9,11.2,9,10.5z"/>
	<g>
		<path fill="#B7B1A9" d="M12.9,16H1.1C0.5,16,0,15.5,0,15V8.2c0-0.6,0.5-1,1.1-1h0.3V5.1C1.5,3.8,2,2.5,3,1.5C4,0.6,5.6,0,7.1,0
			c0,0,0,0,0,0C8.6,0,10,0.6,11,1.5c1,1,1.5,2.2,1.5,3.6v2.1h0.3c0.6,0,1.1,0.5,1.1,1V15C14,15.5,13.5,16,12.9,16z M1.1,8.1
			C1.1,8.1,1,8.2,1,8.2L1,15c0,0.1,0.1,0.1,0.1,0.1h11.7c0.1,0,0.1,0,0.1-0.1V8.2c0-0.1,0-0.1-0.1-0.1h-1.4v-3c0-1.1-0.4-2.2-1.3-3
			C9.4,1.4,8.3,0.9,7.1,0.9c0,0,0,0,0,0c-1.2,0-2.6,0.5-3.3,1.2C3,3,2.5,4,2.5,5.1v3H1.1z M10.2,8.1H3.8v-3c0-0.8,0.3-1.6,0.9-2.2
			c0.6-0.6,1.7-0.9,2.4-0.9c0.8,0,1.6,0.3,2.2,0.9c0.6,0.6,0.9,1.3,0.9,2.2V8.1z M4.8,7.2h4.3V5.1c0-0.6-0.2-1.1-0.6-1.5
			C8.1,3.2,7.7,3,7.1,3C6.5,3,5.8,3.3,5.5,3.6C5.1,4,4.8,4.6,4.8,5.1V7.2z"/>
	</g>
</g>
<g id="guides">
</g>
</svg>
