<?xml version="1.0" encoding="utf-8"?>
<!-- Generator: Adobe Illustrator 19.1.0, SVG Export Plug-In . SVG Version: 6.00 Build 0)  -->
<!DOCTYPE svg PUBLIC "-//W3C//DTD SVG 1.1//EN" "http://www.w3.org/Graphics/SVG/1.1/DTD/svg11.dtd">
<svg version="1.1" xmlns="http://www.w3.org/2000/svg" xmlns:xlink="http://www.w3.org/1999/xlink" x="0px" y="0px" width="64px"
	 height="64px" viewBox="0 0 64 64" enable-background="new 0 0 64 64" xml:space="preserve">
<g id="bkdg" opacity="0.1">
</g>
<g id="bakdg">
</g>
<g id="Layer_1">
	<circle id="XMLID_3680_" fill="#FFBD66" cx="32" cy="32" r="32"/>
	<path fill="#FFFFFF" d="M41,16.3c-2.2-2.2-5.1-3.6-8.5-3.7l-1.1,0v0c-3.3,0.2-6.3,1.5-8.4,3.7c-2.3,2.3-3.8,5.5-3.8,9.1
		c0,2.1,0.5,4.1,1.4,5.8c0.9,1.7,2.4,3.3,3.9,4.4c0,0,0.2,2,0.2,4.2c0,0.3,0,0.6,0,1v1.9v2.6v2.6v1.8h2v2h5.8h4.2v-2h2v-1.8v-2.6
		v-2.6v-1.9c0-0.3,0-0.6,0-1c0-2.2,0.5-4.2,0.5-4.2c1.6-1.2,3.2-2.7,4.1-4.4c0.9-1.7,1.4-3.7,1.4-5.8C44.7,21.8,43.4,18.6,41,16.3z
		 M36.8,47.6h-4.2h-5.8v-3h5.8h4.2V47.6z M36.8,42.6h-4.2h-5.8v-2h5.8h4.2V42.6z M41.1,30c-0.7,1.4-1.7,2.8-2.9,3.7
		c-0.9,0.6-1.1,0.8-1.1,4.8h-4.6h-5.6c0-4-0.2-4.2-1.1-4.8c-1.2-0.9-2.2-2.2-2.9-3.6c-0.7-1.4-1.1-3.1-1.1-4.7c0-2.7,1.1-5.3,3-7.3
		c1.8-1.8,4.1-2.8,6.6-3l1.1,0c2.2,0.1,4.9,1.2,6.7,3c1.9,1.9,3,4.5,3,7.2C42.3,27,41.9,28.6,41.1,30z"/>
</g>
<g id="guides">
</g>
</svg>
