<?xml version="1.0" encoding="utf-8"?>
<!-- Generator: Adobe Illustrator 19.1.0, SVG Export Plug-In . SVG Version: 6.00 Build 0)  -->
<!DOCTYPE svg PUBLIC "-//W3C//DTD SVG 1.1//EN" "http://www.w3.org/Graphics/SVG/1.1/DTD/svg11.dtd">
<svg version="1.1" xmlns="http://www.w3.org/2000/svg" xmlns:xlink="http://www.w3.org/1999/xlink" x="0px" y="0px" width="31px"
	 height="31px" viewBox="0 0 31 31" enable-background="new 0 0 31 31" xml:space="preserve">
<g id="bkdg" opacity="0.1">
</g>
<g id="bakdg">
</g>
<g id="Layer_1">
	<g id="XMLID_34_">
		<path fill="#FFBD66" d="M16,31.5c-8.5,0-15.5-7-15.5-15.5S7.5,0.5,16,0.5s15.5,7,15.5,15.5S24.5,31.5,16,31.5z M16,1.5
			C8,1.5,1.5,8,1.5,16S8,30.5,16,30.5S30.5,24,30.5,16S24,1.5,16,1.5z"/>
	</g>
	<g>
		<path fill="#FFBD66" d="M23.1,20.5c-1,0-1-1.2-1-1.5c0-4.2-1.3-8-3.8-9.3c-0.3-1.3-1.2-3-2.3-3c-1.1,0-2.1,1.6-2.3,2.9
			c-2.5,1.3-3.8,5.3-3.8,9.5c0,0.4,0,1.5-1,1.5H7.5v2H14H18h5.5v-2H23.1z"/>
		<path fill="#FFBD66" d="M16,25.9c1.3,0,2.4-1.4,2.4-2.4h-4.8C13.6,24.5,14.7,25.9,16,25.9z"/>
	</g>
</g>
<g id="guides">
</g>
</svg>
