<?xml version="1.0" encoding="utf-8"?>
<!-- Generator: Adobe Illustrator 17.0.0, SVG Export Plug-In . SVG Version: 6.00 Build 0)  -->
<!DOCTYPE svg PUBLIC "-//W3C//DTD SVG 1.1//EN" "http://www.w3.org/Graphics/SVG/1.1/DTD/svg11.dtd">
<svg version="1.1" id="Layer_1" xmlns="http://www.w3.org/2000/svg" xmlns:xlink="http://www.w3.org/1999/xlink" x="0px" y="0px"
	 width="26px" height="26px" viewBox="0 0 26 26" enable-background="new 0 0 26 26" xml:space="preserve">
<g>
	<rect x="10" y="10" fill="#988F86" width="1" height="1"/>
	<rect x="12" y="10" fill="#988F86" width="3" height="1"/>
	<rect x="10" y="12" fill="#988F86" width="1" height="1"/>
	<rect x="12" y="12" fill="#988F86" width="3" height="1"/>
	<rect x="10" y="14" fill="#988F86" width="1" height="1"/>
	<rect x="12" y="14" fill="#988F86" width="3" height="1"/>
	<path fill="#988F86" d="M13,0C5.82,0,0,5.82,0,13s5.82,13,13,13s13-5.82,13-13S20.18,0,13,0z M14.979,19L15,17l1.965,0.013
		L14.979,19z M14.008,15.995l-0.016,3.021L8.03,18.984L8,8h9l0.013,7.995H14.008z M17.88,7.319l-0.007-0.007h0.007V7.319z M19,7v9
		h-1V7h-8V6h8h1V7z"/>
</g>
</svg>
