<?xml version="1.0" encoding="utf-8"?>
<!-- Generator: Adobe Illustrator 23.0.6, SVG Export Plug-In . SVG Version: 6.00 Build 0)  -->
<svg version="1.1" id="Layer_1" xmlns="http://www.w3.org/2000/svg" xmlns:xlink="http://www.w3.org/1999/xlink" x="0px" y="0px"
	 width="64px" height="64px" viewBox="0 0 64 64" style="enable-background:new 0 0 64 64;" xml:space="preserve">
<style type="text/css">
	.st0{fill:#C8C5C4;}
	.st1{fill:#74716D;}
</style>
<g>
	<polygon class="st0" points="44,18 44,18 44,18 	"/>
	<path class="st1" d="M32,0C14.3,0,0,14.3,0,32s14.3,32,32,32s32-14.3,32-32S49.7,0,32,0z M36,44.5l0-4.5h4.5L36,44.5z M34,38v8
		l-14,0V20h22l0,18H34z M46,38h-2V18H24v-2h20v0h2V38z"/>
	<rect x="24" y="32" class="st1" width="2" height="2"/>
	<rect x="28" y="32" class="st1" width="10" height="2"/>
	<rect x="24" y="28" class="st1" width="2" height="2"/>
	<rect x="28" y="28" class="st1" width="10" height="2"/>
	<rect x="24" y="24" class="st1" width="2" height="2"/>
	<rect x="28" y="24" class="st1" width="10" height="2"/>
</g>
</svg>
