<?xml version="1.0" encoding="utf-8"?>
<!-- Generator: Adobe Illustrator 17.0.0, SVG Export Plug-In . SVG Version: 6.00 Build 0)  -->
<!DOCTYPE svg PUBLIC "-//W3C//DTD SVG 1.1//EN" "http://www.w3.org/Graphics/SVG/1.1/DTD/svg11.dtd">
<svg version="1.1" id="Layer_1" xmlns="http://www.w3.org/2000/svg" xmlns:xlink="http://www.w3.org/1999/xlink" x="0px" y="0px"
	 width="26px" height="26px" viewBox="0 0 26 26" enable-background="new 0 0 26 26" xml:space="preserve">
<g>
	<rect x="9" y="7" fill="#988F86" width="8" height="3"/>
	<path fill="#988F86" d="M13,0C5.82,0,0,5.82,0,13s5.82,13,13,13s13-5.82,13-13S20.18,0,13,0z M17.997,20.009L7.961,20.031V6.015
		l10.036-0.044V20.009z"/>
	<rect x="9" y="11" fill="#988F86" width="2" height="2"/>
	<rect x="12" y="11" fill="#988F86" width="2" height="2"/>
	<rect x="15" y="11" fill="#988F86" width="2" height="2"/>
	<rect x="9" y="14" fill="#988F86" width="2" height="2"/>
	<rect x="12" y="14" fill="#988F86" width="2" height="2"/>
	<rect x="15" y="14" fill="#988F86" width="2" height="2"/>
	<rect x="9" y="17" fill="#988F86" width="2" height="2"/>
	<rect x="12" y="17" fill="#988F86" width="2" height="2"/>
	<rect x="15" y="17" fill="#988F86" width="2" height="2"/>
</g>
</svg>
