<?xml version="1.0" encoding="utf-8"?>
<!-- Generator: Adobe Illustrator 23.0.6, SVG Export Plug-In . SVG Version: 6.00 Build 0)  -->
<svg version="1.1" id="Layer_1" xmlns="http://www.w3.org/2000/svg" xmlns:xlink="http://www.w3.org/1999/xlink" x="0px" y="0px"
	 width="64px" height="64px" viewBox="0 0 64 64" style="enable-background:new 0 0 64 64;" xml:space="preserve">
<style type="text/css">
	.st0{fill:#C8C5C4;}
	.st1{fill:#74716D;}
</style>
<g>
	<rect x="36" y="34" class="st0" width="4.1" height="4.1"/>
	<rect x="36" y="28" class="st0" width="4.1" height="4.1"/>
	<rect x="36" y="40" class="st1" width="4.1" height="4.1"/>
	<rect x="30" y="40" class="st1" width="4.1" height="4.1"/>
	<rect x="30" y="28" class="st0" width="4.1" height="4.1"/>
	<rect x="30" y="34" class="st0" width="4.1" height="4.1"/>
	<rect x="22" y="18" class="st0" width="20" height="6"/>
	<rect x="24" y="40" class="st1" width="4.1" height="4.1"/>
	<rect x="24" y="28" class="st0" width="4.1" height="4.1"/>
	<rect x="24" y="34" class="st0" width="4.1" height="4.1"/>
	<path class="st0" d="M32,0C14.3,0,0,14.3,0,32s14.3,32,32,32s32-14.3,32-32S49.7,0,32,0z M44,48H20V16h24V48z"/>
	<rect x="36" y="34" class="st1" width="4.1" height="4.1"/>
	<rect x="36" y="28.1" class="st1" width="4.1" height="4.1"/>
	<rect x="30" y="28.1" class="st1" width="4.1" height="4.1"/>
	<rect x="30" y="34" class="st1" width="4.1" height="4.1"/>
	<rect x="22" y="18.1" class="st1" width="20" height="6"/>
	<rect x="24" y="28.1" class="st1" width="4.1" height="4.1"/>
	<rect x="24" y="34" class="st1" width="4.1" height="4.1"/>
	<path class="st1" d="M32,0.1c-17.7,0-32,14.3-32,32s14.3,32,32,32s32-14.3,32-32S49.7,0.1,32,0.1z M44,48.1H20v-32h24V48.1z"/>
</g>
</svg>
