<?xml version="1.0" encoding="utf-8"?>
<!-- Generator: Adobe Illustrator 17.0.0, SVG Export Plug-In . SVG Version: 6.00 Build 0)  -->
<!DOCTYPE svg PUBLIC "-//W3C//DTD SVG 1.1//EN" "http://www.w3.org/Graphics/SVG/1.1/DTD/svg11.dtd">
<svg version="1.1" id="Layer_1" xmlns="http://www.w3.org/2000/svg" xmlns:xlink="http://www.w3.org/1999/xlink" x="0px" y="0px"
	 width="26px" height="26px" viewBox="0 0 26 26" enable-background="new 0 0 26 26" xml:space="preserve">
<g>
	<path fill="#988F86" d="M13,0C5.82,0,0,5.82,0,13s5.82,13,13,13s13-5.82,13-13S20.18,0,13,0z M13,20H5v-8h8V20z M14.02,20.013
		L14.001,11l-3.999-0.012l0.029-5.957l10-0.031v15L14.02,20.013z"/>
	<rect x="6" y="13" fill="#988F86" width="2" height="2"/>
	<rect x="10" y="13" fill="#988F86" width="2" height="2"/>
	<rect x="6" y="17" fill="#988F86" width="2" height="2"/>
	<rect x="10" y="17" fill="#988F86" width="2" height="2"/>
	<rect x="16" y="17" fill="#988F86" width="2" height="2"/>
	<rect x="16" y="13" fill="#988F86" width="2" height="2"/>
	<rect x="16" y="10" fill="#988F86" width="2" height="2"/>
	<rect x="16" y="7" fill="#988F86" width="2" height="2"/>
	<rect x="12" y="7" fill="#988F86" width="2" height="2"/>
</g>
</svg>
