<?xml version="1.0" encoding="utf-8"?>
<!-- Generator: Adobe Illustrator 23.0.6, SVG Export Plug-In . SVG Version: 6.00 Build 0)  -->
<svg version="1.1" id="Layer_1" xmlns="http://www.w3.org/2000/svg" xmlns:xlink="http://www.w3.org/1999/xlink" x="0px" y="0px"
	 width="64px" height="64px" viewBox="0 0 64 64" style="enable-background:new 0 0 64 64;" xml:space="preserve">
<style type="text/css">
	.st0{fill:#74716D;}
</style>
<g>
	<rect x="40" y="18" class="st0" width="4" height="4"/>
	<rect x="18" y="42" class="st0" width="4" height="4"/>
	<rect x="18" y="34" class="st0" width="4" height="4"/>
	<rect x="40" y="26" class="st0" width="4" height="4"/>
	<rect x="26" y="42" class="st0" width="4" height="4"/>
	<rect x="26" y="34" class="st0" width="4" height="4"/>
	<rect x="40" y="42" class="st0" width="4" height="4"/>
	<rect x="32" y="18" class="st0" width="4" height="4"/>
	<rect x="40" y="34" class="st0" width="4" height="4"/>
	<path class="st0" d="M32,0C14.3,0,0,14.3,0,32s14.3,32,32,32s32-14.3,32-32S49.7,0,32,0z M34,50H14V30h20V50z M48,50H36V28h-8V14
		h20V50z"/>
</g>
</svg>
