<?xml version="1.0" encoding="utf-8"?>
<!-- Generator: Adobe Illustrator 23.0.6, SVG Export Plug-In . SVG Version: 6.00 Build 0)  -->
<svg version="1.1" id="Layer_1" xmlns="http://www.w3.org/2000/svg" xmlns:xlink="http://www.w3.org/1999/xlink" x="0px" y="0px"
	 width="32px" height="32px" viewBox="0 0 32 32" style="enable-background:new 0 0 32 32;" xml:space="preserve">
<style type="text/css">
	.st0{fill:#74716D;}
</style>
<g>
	<path class="st0" d="M16,8c-2.2,0-4,1.6-4,3.5V13h8v-1.5C20,9.6,18.2,8,16,8z"/>
	<rect x="15" y="16" class="st0" width="2" height="4"/>
	<path class="st0" d="M16,0C7.2,0,0,7.2,0,16c0,8.8,7.2,16,16,16s16-7.2,16-16C32,7.2,24.8,0,16,0z M23,24H9V13h1v-1.5
		c0-3,2.7-5.5,6-5.5s6,2.5,6,5.5V13h1V24z"/>
</g>
</svg>
