<?xml version="1.0" encoding="utf-8"?>
<!-- Generator: Adobe Illustrator 16.0.0, SVG Export Plug-In . SVG Version: 6.00 Build 0)  -->
<!DOCTYPE svg PUBLIC "-//W3C//DTD SVG 1.1//EN" "http://www.w3.org/Graphics/SVG/1.1/DTD/svg11.dtd">
<svg version="1.1" id="Layer_1" xmlns="http://www.w3.org/2000/svg" xmlns:xlink="http://www.w3.org/1999/xlink" x="0px" y="0px"
	 width="32px" height="32px" viewBox="0 0 32 32" enable-background="new 0 0 32 32" xml:space="preserve">
<g>
	<path fill="#0067C5" d="M16,7.981c-2.206,0-4,1.57-4,3.5v1.5h8v-1.5C20,9.552,18.206,7.981,16,7.981z"/>
	<rect x="15" y="15.99" fill="#0067C5" width="2" height="4"/>
	<path fill="#0067C5" d="M16,0C7.163,0,0,7.164,0,16c0,8.837,7.163,16,16,16s16-7.163,16-16C32,7.164,24.837,0,16,0z M23,23.982H9
		v-11h1v-1.5c0-3.033,2.691-5.5,6-5.5s6,2.467,6,5.5v1.5h1V23.982z"/>
</g>
</svg>
