<?xml version="1.0" encoding="utf-8"?>
<!-- Generator: Adobe Illustrator 23.0.6, SVG Export Plug-In . SVG Version: 6.00 Build 0)  -->
<svg version="1.1" id="Layer_1" xmlns="http://www.w3.org/2000/svg" xmlns:xlink="http://www.w3.org/1999/xlink" x="0px" y="0px"
	 width="64px" height="64px" viewBox="0 0 64 64" style="enable-background:new 0 0 64 64;" xml:space="preserve">
<style type="text/css">
	.st0{fill:#74716D;}
</style>
<path class="st0" d="M32,0C14.3,0,0,14.3,0,32s14.3,32,32,32s32-14.3,32-32S49.7,0,32,0z M47.1,16c-1.4,0.5-3.4,1.1-4.3,2.6
	c-1.3,2.2-2.4,2.4-3.5,2.6c-0.7,0.1-1.3,0.3-2.2,0.9c-0.3,0.3-0.7,0.4-1,0.5c-1.3,0.5-3.1,1.3-6.7,11.9c-0.9,3-0.6,4.9-0.4,6.8
	c0.2,1.4,0.3,2.9,0,4.6c-0.4,2.1-1.5,4.8-2.8,4.4c-0.5-0.1-0.9-0.7-1.5-1.8c-0.7-1.3-1.2,0.2-1.4,0.7c-1.1,3-2.9,3.6-3.7,3.6
	c-0.3,0-0.5,0-0.8-0.1c-0.1,0-4.2-0.7-4.1-9.4c0-5.6,3-6.9,5.7-8c1.5-0.6,2.8-1.2,3.6-2.4c0.4-0.6,0.9-1.7,1.6-3.1
	c3-6.1,8.5-17.5,17.3-17.5c1.6,0,3.2,0.4,4.9,1.1c0.6,0.3,1.2,0.7,1.2,1.3C49.1,15.4,48.3,15.6,47.1,16z"/>
</svg>
