<?xml version="1.0" encoding="utf-8"?>
<!-- Generator: Adobe Illustrator 17.0.0, SVG Export Plug-In . SVG Version: 6.00 Build 0)  -->
<!DOCTYPE svg PUBLIC "-//W3C//DTD SVG 1.1//EN" "http://www.w3.org/Graphics/SVG/1.1/DTD/svg11.dtd">
<svg version="1.1" id="Layer_1" xmlns="http://www.w3.org/2000/svg" xmlns:xlink="http://www.w3.org/1999/xlink" x="0px" y="0px"
	 width="26px" height="26px" viewBox="0 0 26 26" enable-background="new 0 0 26 26" xml:space="preserve">
<path fill="#FFFFFF" d="M13,0C5.82,0,0,5.82,0,13c0,7.18,5.82,13,13,13c7.18,0,13-5.82,13-13C26,5.82,20.18,0,13,0z M19.133,6.513
	C18.545,6.708,17.74,6.976,17.39,7.55c-0.548,0.899-0.964,0.982-1.405,1.07c-0.272,0.055-0.528,0.106-0.878,0.374
	c-0.138,0.106-0.277,0.164-0.412,0.22c-0.534,0.221-1.265,0.525-2.709,4.83c-0.347,1.203-0.252,1.998-0.16,2.766
	c0.068,0.57,0.138,1.16,0.012,1.878c-0.146,0.834-0.617,1.944-1.141,1.779c-0.189-0.059-0.357-0.265-0.606-0.751
	c-0.279-0.545-0.474,0.084-0.557,0.303c-0.463,1.218-1.178,1.443-1.492,1.443c-0.106,0-0.211-0.013-0.313-0.038
	c-0.051-0.006-1.695-0.297-1.685-3.818c0.007-2.284,1.225-2.801,2.299-3.256c0.589-0.25,1.146-0.486,1.477-0.995
	c0.158-0.243,0.372-0.684,0.642-1.242C11.668,9.628,13.911,5,17.495,5c0.647,0,1.315,0.155,1.984,0.46
	c0.259,0.126,0.492,0.273,0.476,0.51C19.937,6.245,19.635,6.346,19.133,6.513z"/>
</svg>
