<?xml version="1.0" encoding="utf-8"?>
<!-- Generator: Adobe Illustrator 23.0.6, SVG Export Plug-In . SVG Version: 6.00 Build 0)  -->
<svg version="1.1" id="Layer_1" xmlns="http://www.w3.org/2000/svg" xmlns:xlink="http://www.w3.org/1999/xlink" x="0px" y="0px"
	 width="64px" height="64px" viewBox="0 0 64 64" style="enable-background:new 0 0 64 64;" xml:space="preserve">
<style type="text/css">
	.st0{fill:#74716D;}
</style>
<g>
	<path class="st0" d="M25.5,41.7c3.4,0,6.7,0,10.1,0c0.4,0,0.7,0,0.7-0.5c0-0.5,0.2-0.9-0.6-1.1c-2.1-0.5-4.2-1-6.4-1.6
		c-1.5-0.4-3-0.7-4.6-1.1c0,1.3,0,2.5,0,3.7C24.8,41.5,25,41.7,25.5,41.7z"/>
	<path class="st0" d="M32,0C14.3,0,0,14.3,0,32s14.3,32,32,32s32-14.3,32-32S49.7,0,32,0z M45.2,42.4c-2.2-0.5-4.3-1.1-6.5-1.6
		c0,0.2-0.1,0.3-0.1,0.5c-0.1,1.7-1.1,2.7-2.8,2.7c-3.5,0-7.1,0-10.6,0c-1.7,0-2.8-1.1-2.8-2.8c0-1.3,0-2.6,0-3.9
		c0-0.3-0.1-0.5-0.4-0.6c-1.7-0.4-5-0.9-7.2-1.3v3h-2v-0.5c0-3.8,0-7.6,0-11.5v0h2v2.4c9.6-2.4,20.9-4.7,30.3-7.1
		C45.2,28.5,45.2,35.4,45.2,42.4z M51.2,44l-4-1V21l4-1V44z"/>
</g>
</svg>
