<?xml version="1.0" encoding="utf-8"?>
<!-- Generator: Adobe Illustrator 17.0.0, SVG Export Plug-In . SVG Version: 6.00 Build 0)  -->
<!DOCTYPE svg PUBLIC "-//W3C//DTD SVG 1.1//EN" "http://www.w3.org/Graphics/SVG/1.1/DTD/svg11.dtd">
<svg version="1.1" id="Layer_1" xmlns="http://www.w3.org/2000/svg" xmlns:xlink="http://www.w3.org/1999/xlink" x="0px" y="0px"
	 width="26px" height="26px" viewBox="0 0 26 26" enable-background="new 0 0 26 26" xml:space="preserve">
<g>
	<path fill="#FFFFFF" d="M10.297,17c1.37-0.004,2.879-0.001,4.249,0c0.157,0,0.302-0.017,0.301-0.222
		c-0.001-0.186,0.054-0.595-0.253-0.663c-0.866-0.193-1.723-0.425-2.585-0.64c-0.614-0.153-1.346-0.313-2.003-0.476
		c0,0.521,0.004,1.231-0.006,1.718C9.996,16.937,10.095,17.001,10.297,17z"/>
	<path fill="#FFFFFF" d="M13,0C5.82,0,0,5.82,0,13s5.82,13,13,13s13-5.82,13-13S20.18,0,13,0z M18,17.225
		c-0.878-0.217-1.397-0.435-2.276-0.652c-0.013,0.084-0.016,0.279-0.019,0.332c-0.032,0.677-0.456,1.092-1.13,1.093
		c-1.434,0.003-2.993,0.032-4.427,0.03c-0.687-0.001-1.137-0.457-1.14-1.147c-0.002-0.527-0.013-1.196-0.007-1.723
		c0.001-0.133,0.101-0.249-0.047-0.285c-0.707-0.171-2.017-0.348-2.926-0.533V15H5c0,0,0-2.426,0-3.989l0,0l1.028-0.021v0.658
		C9.94,10.683,14.163,9.734,18,8.775C18,11.589,18,14.387,18,17.225z M21,18l-2-0.549V8.549l2.031-0.581L21,18z"/>
</g>
</svg>
