<?xml version="1.0" encoding="UTF-8" standalone="no"?>
<svg width="37px" height="39px" viewBox="0 0 37 39" version="1.1" xmlns="http://www.w3.org/2000/svg" xmlns:xlink="http://www.w3.org/1999/xlink">
    <!-- Generator: Sketch 46.2 (44496) - http://www.bohemiancoding.com/sketch -->
    <title>Group 7</title>
    <desc>Created with Sketch.</desc>
    <defs></defs>
    <g id="GD-28.06.17" stroke="none" stroke-width="1" fill="none" fill-rule="evenodd">
        <g id="nymellomnavigasjonssideV3" transform="translate(-873.000000, -896.000000)" fill-rule="nonzero" fill="#000000">
            <g id="Group-7" transform="translate(873.000000, 896.000000)">
                <g id="Group-6" transform="translate(3.076923, 7.692308)">
                    <g id="account-group-3">
                        <path d="M5.17580947,16.8213808 C6.96016978,16.8213808 8.41069039,15.3695662 8.41069039,13.5864999 C8.41069039,11.8034335 6.96016978,10.3516189 5.17580947,10.3516189 C3.39144915,10.3516189 1.94092855,11.8034335 1.94092855,13.5864999 C1.94092855,15.3695662 3.39144915,16.8213808 5.17580947,16.8213808 Z M5.17580947,11.6455713 C6.24590808,11.6455713 7.11673802,12.5164012 7.11673802,13.5864999 C7.11673802,14.6565985 6.24590808,15.5274284 5.17580947,15.5274284 C4.10571086,15.5274284 3.23488092,14.6565985 3.23488092,13.5864999 C3.23488092,12.5164012 4.10571086,11.6455713 5.17580947,11.6455713 Z" id="Shape"></path>
                        <path d="M9.70464275,18.1153331 L0.646976184,18.1153331 C0.28984533,18.1153331 0,18.4051785 0,18.7623093 C0,21.8535615 0.207032379,24.6989628 2.58790473,25.6370783 L2.58790473,30.4078806 C2.58790473,30.7650115 2.87775006,31.0548568 3.23488092,31.0548568 L7.11673802,31.0548568 C7.47386887,31.0548568 7.7637142,30.7650115 7.7637142,30.4078806 L7.7637142,25.6370783 C10.1445866,24.6989628 10.3516189,21.8522676 10.3516189,18.7623093 C10.3516189,18.4051785 10.0617736,18.1153331 9.70464275,18.1153331 Z M6.95499397,24.5411006 C6.6690305,24.6148559 6.46976184,24.8723524 6.46976184,25.1673735 L6.46976184,29.7609044 L3.8818571,29.7609044 L3.8818571,25.1673735 C3.8818571,24.8723524 3.68258844,24.6148559 3.39662496,24.5411006 C1.74424779,24.1166842 1.34312256,22.4047852 1.29912818,19.4092855 L9.05249076,19.4092855 C9.00849638,22.4047852 8.60737115,24.1166842 6.95499397,24.5411006 Z" id="Shape"></path>
                        <path d="M25.8790473,16.8213808 C27.6634077,16.8213808 29.1139283,15.3695662 29.1139283,13.5864999 C29.1139283,11.8034335 27.6634077,10.3516189 25.8790473,10.3516189 C24.094687,10.3516189 22.6441664,11.8034335 22.6441664,13.5864999 C22.6441664,15.3695662 24.094687,16.8213808 25.8790473,16.8213808 Z M25.8790473,11.6455713 C26.949146,11.6455713 27.8199759,12.5164012 27.8199759,13.5864999 C27.8199759,14.6565985 26.949146,15.5274284 25.8790473,15.5274284 C24.8089487,15.5274284 23.9381188,14.6565985 23.9381188,13.5864999 C23.9381188,12.5164012 24.8089487,11.6455713 25.8790473,11.6455713 Z" id="Shape"></path>
                        <path d="M30.4078806,18.1153331 L21.3502141,18.1153331 C20.9930832,18.1153331 20.7032379,18.4051785 20.7032379,18.7623093 C20.7032379,21.8535615 20.9102703,24.6989628 23.2911426,25.6370783 L23.2911426,30.4078806 C23.2911426,30.7650115 23.5809879,31.0548568 23.9381188,31.0548568 L27.8199759,31.0548568 C28.1771067,31.0548568 28.4669521,30.7650115 28.4669521,30.4078806 L28.4669521,25.6370783 C30.8478244,24.6989628 31.0548568,21.8522676 31.0548568,18.7623093 C31.0548568,18.4051785 30.7650115,18.1153331 30.4078806,18.1153331 Z M27.6582318,24.5411006 C27.3722684,24.6148559 27.1729997,24.8723524 27.1729997,25.1673735 L27.1729997,29.7609044 L24.585095,29.7609044 L24.585095,25.1673735 C24.585095,24.8723524 24.3858263,24.6148559 24.0998628,24.5411006 C22.4474857,24.1166842 22.0463604,22.4047852 22.0023661,19.4092855 L29.7557286,19.4092855 C29.7117343,22.4047852 29.310609,24.1166842 27.6582318,24.5411006 Z" id="Shape"></path>
                        <path d="M15.5274284,6.46976184 C17.3117887,6.46976184 18.7623093,5.01794728 18.7623093,3.23488092 C18.7623093,1.45181456 17.3117887,0 15.5274284,0 C13.7430681,0 12.2925475,1.45181456 12.2925475,3.23488092 C12.2925475,5.01794728 13.7430681,6.46976184 15.5274284,6.46976184 Z M15.5274284,1.29395237 C16.597527,1.29395237 17.468357,2.16478231 17.468357,3.23488092 C17.468357,4.30497953 16.597527,5.17580947 15.5274284,5.17580947 C14.4573298,5.17580947 13.5864999,4.30497953 13.5864999,3.23488092 C13.5864999,2.16478231 14.4573298,1.29395237 15.5274284,1.29395237 Z" id="Shape"></path>
                        <path d="M20.0562617,7.7637142 L10.9985951,7.7637142 C10.6414643,7.7637142 10.3516189,8.05355953 10.3516189,8.41069039 C10.3516189,11.5019426 10.5586513,14.3473438 12.9395237,15.2854593 L12.9395237,20.0562617 C12.9395237,20.4133925 13.229369,20.7032379 13.5864999,20.7032379 L17.468357,20.7032379 C17.8254878,20.7032379 18.1153331,20.4133925 18.1153331,20.0562617 L18.1153331,15.2854593 C20.4962055,14.3473438 20.7032379,11.5006486 20.7032379,8.41069039 C20.7032379,8.05355953 20.4133925,7.7637142 20.0562617,7.7637142 Z M17.3066129,14.1894817 C17.0206494,14.2632369 16.8213808,14.5207335 16.8213808,14.8157546 L16.8213808,19.4092855 L14.233476,19.4092855 L14.233476,14.8157546 C14.233476,14.5207335 14.0342074,14.2632369 13.7482439,14.1894817 C12.0958667,13.7650653 11.6947415,12.0531663 11.6507471,9.05766657 L19.4041097,9.05766657 C19.3601153,12.0531663 18.9589901,13.7650653 17.3066129,14.1894817 Z" id="Shape"></path>
                    </g>
                </g>
                <g id="Group-4">
                    <path d="M26.1538462,6.92307692 C26.5784615,6.92307692 26.9230769,6.57846154 26.9230769,6.15384615 C26.9230769,5.12923077 27.2938462,4.90153846 27.9692308,4.48461538 C28.8246154,3.95538462 30,3.22923077 30,0.769230769 C30,0.344615385 29.6553846,0 29.2307692,0 C28.8061538,0 28.4615385,0.344615385 28.4615385,0.769230769 C28.4615385,2.37076923 27.9153846,2.70769231 27.1584615,3.17538462 C26.4107692,3.63846154 25.3846154,4.27230769 25.3846154,6.15384615 C25.3846154,6.58 25.7292308,6.92307692 26.1538462,6.92307692 Z" id="Shape"></path>
                    <path d="M30,6.92307692 C30.4246154,6.92307692 30.7692308,6.58 30.7692308,6.15384615 C30.7692308,5.12923077 31.14,4.90153846 31.8153846,4.48461538 C32.6707692,3.95538462 33.8461538,3.22923077 33.8461538,0.769230769 C33.8461538,0.344615385 33.5015385,0 33.0769231,0 C32.6523077,0 32.3076923,0.344615385 32.3076923,0.769230769 C32.3076923,2.37076923 31.7615385,2.70769231 31.0046154,3.17538462 C30.2569231,3.63846154 29.2307692,4.27230769 29.2307692,6.15384615 C29.2307692,6.58 29.5753846,6.92307692 30,6.92307692 Z" id="Shape"></path>
                    <path d="M36.6861538,19.4446154 L30.7692308,13.7846154 L30.7692308,8.46153846 C30.7692308,8.03692308 30.4246154,7.69230769 30,7.69230769 L24.3984615,7.69230769 L18.9923077,2.52153846 C18.6953846,2.23692308 18.2261538,2.23692308 17.9292308,2.52153846 L0.236923077,19.4446154 C-0.0692307692,19.7384615 -0.08,20.2246154 0.212307692,20.5323077 C0.507692308,20.8384615 0.993846154,20.8507692 1.3,20.5569231 L18.4615385,4.14153846 L35.6215385,20.5553846 C35.7707692,20.6984615 35.9630769,20.7692308 36.1538462,20.7692308 C36.3569231,20.7692308 36.5584615,20.6892308 36.7092308,20.5323077 C37.0030769,20.2246154 36.9923077,19.7384615 36.6861538,19.4446154 Z M29.2307692,9.23076923 L29.2307692,12.3123077 L26.0076923,9.23076923 L29.2307692,9.23076923 Z" id="Shape"></path>
                </g>
            </g>
        </g>
    </g>
</svg>