<?xml version="1.0" encoding="UTF-8" standalone="no"?>
<svg width="53px" height="35px" viewBox="0 0 53 35" version="1.1" xmlns="http://www.w3.org/2000/svg" xmlns:xlink="http://www.w3.org/1999/xlink">
    <!-- Generator: Sketch 47.1 (45422) - http://www.bohemiancoding.com/sketch -->
    <title>Group 10 Copy</title>
    <desc>Created with Sketch.</desc>
    <defs>
        <rect id="path-1" x="34.1071498" y="15.2037545" width="18.7454583" height="19.6827312" rx="1"></rect>
    </defs>
    <g id="GD-28.06.17" stroke="none" stroke-width="1" fill="none" fill-rule="evenodd">
        <g id="Nye-ikoner-navigasjonsside" transform="translate(-823.000000, -1660.000000)">
            <g id="Group-10-Copy" transform="translate(823.000000, 1660.000000)">
                <path d="M3.03215197,0.5 C1.65144009,0.5 0.532151965,1.61928813 0.532151965,3 L0.532151965,29.0659939 C0.532151965,30.4467058 1.65144009,31.5659939 3.03215197,31.5659939 L45.1193798,31.5659939 C46.5000917,31.5659939 47.6193798,30.4467058 47.6193798,29.0659939 L47.6193798,3 C47.6193798,1.61928813 46.5000917,0.5 45.1193798,0.5 L3.03215197,0.5 Z" id="Rectangle-6" stroke="#3E3832"></path>
                <rect id="Rectangle-2" fill="#3E3832" x="0.0321519653" y="20.7545093" width="46.212682" height="4.68636456"></rect>
                <rect id="Rectangle-path" fill="#3E3832" fill-rule="nonzero" x="6.42899248" y="7.34283357" width="17.8081853" height="1"></rect>
                <rect id="Rectangle-path-Copy" fill="#3E3832" fill-rule="nonzero" x="6.42899248" y="12.8258801" width="13.1218208" height="1"></rect>
                <path d="M49.1035164,15.5642441 C49.1035164,11.7416605 46.5857281,8.64284414 43.4798789,8.64284414 C40.3740297,8.64284414 37.8562414,11.7416605 37.8562414,15.5642441 C37.8562414,19.3868278 49.1035164,19.3868278 49.1035164,15.5642441 Z" id="Oval-2" stroke="#3E3832" fill="#FFFFFF"></path>
                <g id="Rectangle-3">
                    <use fill="#FFFFFF" fill-rule="evenodd" xlink:href="#path-1"></use>
                    <rect stroke="#3E3832" stroke-width="1" x="34.6071498" y="15.7037545" width="17.7454583" height="18.6827312" rx="1"></rect>
                </g>
                <path d="M45.3544043,23.7077626 C45.3572217,22.793766 44.7004081,22.0110004 43.799809,21.8550548 C42.8992099,21.6991092 42.0174447,22.2154582 41.7127816,23.0771879 C41.4081185,23.9389177 41.7693988,24.8947433 42.5678868,25.3395071 L42.5176793,25.5905447 L41.9821324,28.2431755 L45.0029516,28.2431755 L44.4506689,25.5905447 L44.4004613,25.3395071 C44.9920662,25.0100997 45.3575761,24.3848856 45.3544043,23.7077626 Z" id="Shape" fill="#3E3832" fill-rule="nonzero"></path>
            </g>
        </g>
    </g>
</svg>