<?xml version="1.0" encoding="utf-8"?>
<!-- Generator: Adobe Illustrator 23.0.6, SVG Export Plug-In . SVG Version: 6.00 Build 0)  -->
<svg version="1.1" id="Layer_1" xmlns="http://www.w3.org/2000/svg" xmlns:xlink="http://www.w3.org/1999/xlink" x="0px" y="0px"
	 width="64px" height="64px" viewBox="0 0 64 64" style="enable-background:new 0 0 64 64;" xml:space="preserve">
<style type="text/css">
	.st0{fill:#74716D;}
	.st1{opacity:0.5;fill:#FFFFFF;stroke:#000000;stroke-miterlimit:10;}
</style>
<g>
	<path class="st0" d="M32,0C14.3,0,0,14.3,0,32c0,17.7,14.3,32,32,32s32-14.3,32-32C64,14.3,49.7,0,32,0z M44.6,22h-4.5l0-4.5
		L44.6,22z M46,46H22V25h-5v-7h5v-2h16v8h8V46z"/>
</g>
<g>
	<path class="st0" d="M25,20.7c-0.1-0.1-0.2-0.1-0.3-0.1c-0.1,0-0.2,0-0.5,0H24v1.9h0.4c0.2,0,0.3,0,0.4,0c0.1,0,0.2-0.1,0.2-0.1
		s0.1-0.1,0.2-0.3s0.1-0.3,0.1-0.5s0-0.4-0.1-0.5S25.1,20.8,25,20.7z"/>
	<path class="st0" d="M22,20.6c-0.1,0-0.2,0-0.4,0h-0.3v0.8h0.3c0.2,0,0.4,0,0.5,0s0.1-0.1,0.2-0.1s0.1-0.1,0.1-0.2
		c0-0.1,0-0.2-0.1-0.3S22.1,20.6,22,20.6z"/>
	<path class="st0" d="M18,19v5h13v-5H18z M22.8,21.4c-0.1,0.1-0.1,0.2-0.2,0.3s-0.2,0.1-0.3,0.1c-0.1,0-0.3,0-0.6,0h-0.4v1.1h-0.6
		v-2.9h0.9c0.4,0,0.6,0,0.7,0c0.2,0,0.3,0.1,0.4,0.3s0.2,0.3,0.2,0.6C22.9,21.1,22.9,21.3,22.8,21.4z M25.7,22.1
		c-0.1,0.2-0.2,0.4-0.3,0.5c-0.1,0.1-0.2,0.2-0.4,0.2c-0.1,0-0.3,0.1-0.5,0.1h-1.1v-2.9h1.1c0.2,0,0.4,0,0.5,0.1
		c0.2,0,0.3,0.1,0.4,0.3s0.2,0.3,0.3,0.5s0.1,0.4,0.1,0.7C25.8,21.8,25.8,22,25.7,22.1z M28.3,20.6h-1.4v0.7h1.2v0.5h-1.2v1.2h-0.6
		v-2.9h2V20.6z"/>
</g>
<path class="st1" d="M28.8,40.9c-0.4,3.1,7.7-11.1,3.7-12.7c-1.4-0.5,7.4,11.3,7,9.6C38.8,34.4,29.1,38.6,28.8,40.9z"/>
</svg>
