<?xml version="1.0" encoding="utf-8"?>
<!-- Generator: Adobe Illustrator 23.0.6, SVG Export Plug-In . SVG Version: 6.00 Build 0)  -->
<svg version="1.1" id="Layer_1" xmlns="http://www.w3.org/2000/svg" xmlns:xlink="http://www.w3.org/1999/xlink" x="0px" y="0px"
	 width="64px" height="64px" viewBox="0 0 64 64" style="enable-background:new 0 0 64 64;" xml:space="preserve">
<style type="text/css">
	.st0{fill:#74716D;}
</style>
<g>
	<path class="st0" d="M32,0C14.3,0,0,14.3,0,32c0,17.7,14.3,32,32,32s32-14.3,32-32C64,14.3,49.7,0,32,0z M44.6,22h-4.5l0-4.5
		L44.6,22z M46,46H22V25h-5v-7h5v-2h16v8h8V46z"/>
</g>
<g>
	<path class="st0" d="M22.1,20.6c-0.1,0-0.2,0-0.4,0h-0.3v0.8h0.3c0.2,0,0.4,0,0.5,0s0.1-0.1,0.2-0.1s0.1-0.1,0.1-0.2
		c0-0.1,0-0.2-0.1-0.3S22.2,20.6,22.1,20.6z"/>
	<path class="st0" d="M24.7,20.6c-0.1,0-0.2,0-0.4,0H24v0.8h0.3c0.2,0,0.4,0,0.5,0s0.1-0.1,0.2-0.1s0.1-0.1,0.1-0.2
		c0-0.1,0-0.2-0.1-0.3S24.8,20.6,24.7,20.6z"/>
	<path class="st0" d="M18,19v5h13v-5H18z M22.9,21.4c-0.1,0.1-0.1,0.2-0.2,0.3s-0.2,0.1-0.3,0.1c-0.1,0-0.3,0-0.6,0h-0.4v1.1h-0.6
		v-2.9h0.9c0.4,0,0.6,0,0.7,0c0.2,0,0.3,0.1,0.4,0.3S23,20.7,23,21C23,21.1,23,21.3,22.9,21.4z M25.6,21.4c-0.1,0.1-0.1,0.2-0.2,0.3
		s-0.2,0.1-0.3,0.1c-0.1,0-0.3,0-0.6,0H24v1.1h-0.6v-2.9h0.9c0.4,0,0.6,0,0.7,0c0.2,0,0.3,0.1,0.4,0.3s0.2,0.3,0.2,0.6
		C25.7,21.1,25.6,21.3,25.6,21.4z M28.2,20.6h-0.8v2.4h-0.6v-2.4h-0.9v-0.5h2.3L28.2,20.6L28.2,20.6z"/>
</g>
<path class="st0" d="M35,29v5h5C39.7,31.3,37.6,29.2,35,29z"/>
<path class="st0" d="M34,35v-6c-3.3,0-6,2.7-6,6s2.7,6,6,6s6-2.7,6-6H34z"/>
</svg>
