<?xml version="1.0" encoding="utf-8"?>
<!-- Generator: Adobe Illustrator 23.0.6, SVG Export Plug-In . SVG Version: 6.00 Build 0)  -->
<svg version="1.1" id="Layer_1" xmlns="http://www.w3.org/2000/svg" xmlns:xlink="http://www.w3.org/1999/xlink" x="0px" y="0px"
	 width="34px" height="34px" viewBox="0 0 34 34" style="enable-background:new 0 0 34 34;" xml:space="preserve">
<style type="text/css">
	.st0{fill:#C8C5C4;}
	.st1{fill:#74716D;}
</style>
<g>
	<polygon class="st0" points="23,10 23,10 23,10 	"/>
	<path class="st1" d="M17,1C8.2,1,1,8.2,1,17s7.2,16,16,16s16-7.2,16-16S25.8,1,17,1z M19,23.2l0-2.3h2.3L19,23.2z M18,20v4l-7,0V11
		h11l0,9H18z M24,20h-1V10H13V9h10v0h1V20z"/>
	<rect x="13" y="17" class="st1" width="1" height="1"/>
	<rect x="15" y="17" class="st1" width="5" height="1"/>
	<rect x="13" y="15" class="st1" width="1" height="1"/>
	<rect x="15" y="15" class="st1" width="5" height="1"/>
	<rect x="13" y="13" class="st1" width="1" height="1"/>
	<rect x="15" y="13" class="st1" width="5" height="1"/>
</g>
</svg>
