<?xml version="1.0" encoding="utf-8"?>
<!-- Generator: Adobe Illustrator 17.1.0, SVG Export Plug-In . SVG Version: 6.00 Build 0)  -->
<!DOCTYPE svg PUBLIC "-//W3C//DTD SVG 1.1//EN" "http://www.w3.org/Graphics/SVG/1.1/DTD/svg11.dtd">
<svg version="1.1" id="Layer_1" xmlns="http://www.w3.org/2000/svg" xmlns:xlink="http://www.w3.org/1999/xlink" x="0px" y="0px"
	 width="21px" height="21px" viewBox="0 0 21 21" enable-background="new 0 0 21 21" xml:space="preserve">
<circle fill="#FFFFFF" stroke="#2768B2" stroke-miterlimit="10" cx="10.5" cy="10.5" r="10"/>
<g>
	<path fill="#2768B2" d="M11.3,13H9.6c0-0.2,0-0.4,0-0.5c0-0.6,0.1-1,0.3-1.4c0.2-0.4,0.6-0.8,1.1-1.2s0.9-0.8,1-0.9
		c0.2-0.2,0.3-0.5,0.3-0.7c0-0.4-0.1-0.7-0.4-1c-0.3-0.3-0.7-0.4-1.2-0.4c-0.5,0-0.9,0.1-1.2,0.4S8.8,8,8.7,8.6L6.9,8.4
		c0.1-0.8,0.4-1.5,1-2.1s1.5-0.9,2.5-0.9c1.1,0,2,0.3,2.6,0.9c0.7,0.6,1,1.2,1,2c0,0.4-0.1,0.8-0.4,1.2s-0.8,0.9-1.5,1.5
		c-0.4,0.3-0.7,0.6-0.8,0.8C11.3,12.1,11.3,12.4,11.3,13z M9.6,15.6v-1.9h1.9v1.9H9.6z"/>
</g>
</svg>
