<?xml version="1.0" encoding="UTF-8" standalone="no"?>
<svg width="37px" height="35px" viewBox="0 0 37 35" version="1.1" xmlns="http://www.w3.org/2000/svg" xmlns:xlink="http://www.w3.org/1999/xlink">
    <!-- Generator: Sketch 47.1 (45422) - http://www.bohemiancoding.com/sketch -->
    <title>Group 15</title>
    <desc>Created with Sketch.</desc>
    <defs></defs>
    <g id="GD-28.06.17" stroke="none" stroke-width="1" fill="none" fill-rule="evenodd">
        <g id="Nye-ikoner-navigasjonsside" transform="translate(-362.000000, -1660.000000)" fill-rule="nonzero" fill="#3E3832">
            <g id="Group-15" transform="translate(362.000000, 1660.000000)">
                <g id="noun_1207292_cc">
                    <path d="M1.7581567,21.817777 C2.56162829,21.8186461 3.26307191,21.2720817 3.46095416,20.4909585 L4.23596919,17.4224569 L4.23596919,24.0154371 C4.23596919,24.0154371 4.23596919,24.0341247 4.23596919,24.0453373 C4.23596919,24.0565498 4.23596919,24.0640248 4.23596919,24.0752374 L4.23596919,34.4393724 C4.23596919,34.7489985 4.48619951,35 4.79487426,35 L12.921354,35 C13.2300288,35 13.4802591,34.7489985 13.4802591,34.4393724 L13.4802591,24.0752374 C13.4802591,24.0752374 13.4802591,24.0565498 13.4802591,24.0453373 C13.4802591,24.0341247 13.4802591,24.0266497 13.4802591,24.0154371 L13.4802591,13.1056246 C13.4802591,12.7959985 13.2300288,12.544997 12.921354,12.544997 C12.6126793,12.544997 12.3624489,12.7959985 12.3624489,13.1056246 L12.3624489,24.0154371 C12.3624489,24.0154371 12.3624489,24.0341247 12.3624489,24.0453373 C12.3624489,24.0565498 12.3624489,24.0640248 12.3624489,24.0752374 L12.3624489,33.8787449 L9.4151562,33.8787449 L9.4151562,23.6416854 C9.4151562,23.3320593 9.16492587,23.0810578 8.85625113,23.0810578 C8.54757638,23.0810578 8.29734605,23.3320593 8.29734605,23.6416854 L8.29734605,33.8787449 L5.35377934,33.8787449 L5.35377934,24.0752374 C5.35377934,24.0752374 5.35377934,24.0565498 5.35377934,24.0453373 C5.35377934,24.0341247 5.35377934,24.0266497 5.35377934,24.0154371 L5.35377934,13.1056246 C5.35616782,13.0757724 5.35616782,13.0457763 5.35377934,13.0159242 C5.38628162,12.72688 5.19300266,12.4609113 4.90872546,12.4034914 C4.62444826,12.3460714 4.34360926,12.516275 4.26205143,12.7954107 L2.39903452,20.2181197 C2.31672125,20.5618046 1.9722375,20.7734826 1.62960854,20.6909156 C1.28697957,20.6083487 1.07595199,20.2628032 1.15826525,19.9191183 L2.46610313,13.9988912 C3.14185433,11.0113775 5.78917704,8.89090282 8.84321001,8.89090282 C11.897243,8.89090282 14.5445657,11.0113775 15.2203169,13.9988912 C15.2203169,13.9988912 15.2203169,14.0250538 15.2203169,14.0400039 C14.6849138,15.3550317 15.0941136,16.8668182 16.2190108,17.7296732 C17.3439081,18.5925282 18.9056124,18.5925282 20.0305097,17.7296732 C21.1554069,16.8668182 21.5646067,15.3550317 21.0292036,14.0400039 C21.0292036,14.0400039 21.0292036,14.0138412 21.0292036,13.9988912 C21.7049548,11.0113775 24.3522775,8.89090282 27.4063105,8.89090282 C30.4603435,8.89090282 33.1076662,11.0113775 33.7834174,13.9988912 L35.0875292,19.5565792 C35.1511364,19.8341759 35.0850391,20.1257156 34.9080052,20.3484178 C34.7309712,20.57112 34.4623362,20.7006613 34.178377,20.7002594 L33.9510889,20.7002594 L32.0545377,12.971074 C32.0130766,12.769852 31.8651972,12.6075036 31.6691407,12.5479683 C31.4730842,12.488433 31.2602675,12.541251 31.1145066,12.6856203 C30.9687457,12.8299897 30.9133981,13.042776 30.9702618,13.2401752 L33.5784855,23.8285613 L22.8102478,23.8285613 L22.8102478,23.0399451 C22.8100129,22.4129844 22.6832669,21.7925582 22.4376444,21.2160368 L23.9280579,13.2102751 C23.9416959,12.9284642 23.7444235,12.6803934 23.4674754,12.6310907 C23.1905273,12.581788 22.920201,12.7466163 22.83633,13.0159242 L21.5545744,19.8593181 C20.2528358,18.4515435 18.2240644,17.987763 16.4427628,18.6907494 C14.6614612,19.3937357 13.4916204,21.1198408 13.4951632,23.0399451 L13.4951632,27.7118416 C13.4951632,28.0214676 13.7453936,28.2724691 14.0540683,28.2724691 L15.4177967,28.2724691 L16.1071129,34.5029102 C16.139313,34.7860682 16.3781734,34.9999362 16.662292,35 L19.643119,35 C19.9272376,34.9999362 20.166098,34.7860682 20.1982981,34.5029102 L20.8876143,28.2724691 L22.2513427,28.2724691 C22.5600175,28.2724691 22.8102478,28.0214676 22.8102478,27.7118416 L22.8102478,24.9498164 L22.8102478,24.9498164 L22.8102478,34.4393724 C22.8102478,34.7489985 23.0604781,35 23.3691529,35 L31.5291669,35 C31.8378417,35 32.088072,34.7489985 32.088072,34.4393724 L32.088072,24.9498164 L34.3013361,24.9498164 C34.4734374,24.9502586 34.6361449,24.8711436 34.7424089,24.735349 C34.8486728,24.5995544 34.886642,24.4222248 34.845337,24.2546382 L34.2454456,21.817777 C34.8612841,21.8053765 35.4387663,21.5152768 35.817531,21.0280357 C36.1962957,20.5407947 36.3360139,19.9082913 36.1978873,19.3061655 L34.9161317,13.7634276 C34.1888662,10.4742902 31.3985145,8.05197479 28.0490513,7.80208775 C30.068409,7.4867821 31.5056144,5.66555395 31.3479763,3.62168664 C31.1903382,1.57781932 29.4909733,1.65979103e-15 27.4472969,0 C25.4036205,-1.49381193e-15 23.7042555,1.57781932 23.5466174,3.62168664 C23.3889793,5.66555395 24.8261847,7.4867821 26.8455424,7.80208775 C23.8337779,8.0272366 21.2405986,10.0195607 20.2392844,12.877636 C19.0531443,11.8065549 17.2522667,11.8065549 16.0661266,12.877636 C15.0642741,10.0183862 12.4692996,8.0258068 9.45614257,7.80208775 C11.4755003,7.4867821 12.9127057,5.66555395 12.7550676,3.62168664 C12.5974295,1.57781932 10.8980645,1.32783283e-15 8.85438811,1.82577014e-15 C6.81071172,2.32370745e-15 5.11134675,1.57781932 4.95370865,3.62168664 C4.79607056,5.66555395 6.23327595,7.4867821 8.25263365,7.80208775 C4.90458958,8.05355441 2.1161391,10.4755335 1.38927935,13.7634276 L0.0441811429,19.6687047 C-0.0750349103,20.1916187 0.0499430643,20.7405241 0.383654245,21.1596763 C0.717365426,21.5788286 1.22339236,21.8224862 1.7581567,21.8215146 L1.7581567,21.817777 Z M21.6924376,27.151214 L20.3883258,27.151214 C20.1042072,27.1512778 19.8653469,27.3651458 19.8331468,27.6483038 L19.1438305,33.8787449 L17.1615805,33.8787449 L16.4722643,27.6483038 C16.4400642,27.3651458 16.2012038,27.1512778 15.9170852,27.151214 L14.6129734,27.151214 L14.6129734,23.0399451 C14.6129734,21.0789801 16.1977654,19.4893039 18.1527055,19.4893039 C20.1076456,19.4893039 21.6924376,21.0789801 21.6924376,23.0399451 L21.6924376,27.151214 Z M23.9280579,33.8787449 L23.9280579,24.9498164 L26.7933779,24.9498164 L26.7933779,33.8787449 L23.9429621,33.8787449 L23.9280579,33.8787449 Z M30.9367275,33.8787449 L27.9260922,33.8787449 L27.9260922,24.9498164 L30.9516317,24.9498164 L30.9367275,33.8787449 Z M24.6546345,3.93001999 C24.6546345,2.3818897 25.9057861,1.12688213 27.4491599,1.12688213 C28.9925336,1.12688213 30.2436852,2.3818897 30.2436852,3.93001999 C30.2436852,5.47815028 28.9925336,6.73315785 27.4491599,6.73315785 C25.9066372,6.73109893 24.6566871,5.47729664 24.6546345,3.93001999 L24.6546345,3.93001999 Z M18.1527055,13.195325 C19.2680503,13.195325 20.1722158,14.1022771 20.1722158,15.2210593 C20.1722158,16.3398414 19.2680503,17.2467936 18.1527055,17.2467936 C17.0373607,17.2467936 16.1331952,16.3398414 16.1331952,15.2210593 C16.1331952,14.1022771 17.0373607,13.195325 18.1527055,13.195325 Z M6.06172576,3.93001999 C6.06172576,2.3818897 7.31287738,1.12688213 8.85625113,1.12688213 C10.3996249,1.12688213 11.6507765,2.3818897 11.6507765,3.93001999 C11.6507765,5.47815028 10.3996249,6.73315785 8.85625113,6.73315785 C7.3137284,6.73109893 6.06377836,5.47729664 6.06172576,3.93001999 L6.06172576,3.93001999 Z" id="Shape"></path>
                </g>
            </g>
        </g>
    </g>
</svg>