<?xml version="1.0" encoding="UTF-8" standalone="no"?>
<svg width="39px" height="42px" viewBox="0 0 39 42" version="1.1" xmlns="http://www.w3.org/2000/svg" xmlns:xlink="http://www.w3.org/1999/xlink">
    <!-- Generator: Sketch 46.2 (44496) - http://www.bohemiancoding.com/sketch -->
    <title>Page 1</title>
    <desc>Created with Sketch.</desc>
    <defs></defs>
    <g id="GD-28.06.17" stroke="none" stroke-width="1" fill="none" fill-rule="evenodd" stroke-linecap="round" stroke-linejoin="round">
        <g id="nymellomnavigasjonssideV3" transform="translate(-363.000000, -579.000000)" stroke-width="2" stroke="#3E3832">
            <g id="Page-1" transform="translate(364.000000, 580.000000)">
                <g id="Group-12">
                    <path d="M1.26365217,13.9130435 L16.0445217,13.9130435" id="Stroke-1"></path>
                    <path d="M6.95652174,24.3478261 C3.1026087,21.9686957 0.869565217,18.1843478 0.869565217,13.9130435 C0.869565217,6.70956522 7.96521739,0.869565217 16.7182609,0.869565217 L16.7182609,13.9130435 L32.5686957,13.9130435 C32.5686957,18.2156522 30.0173913,22.0469565 26.0869565,24.426087 L6.95652174,24.3478261" id="Stroke-3"></path>
                    <path d="M12.568,36.0869565 C12.568,38.2469565 10.8114783,40 8.65495652,40 C6.49147826,40 4.74191304,38.2469565 4.74191304,36.0869565 C4.74191304,33.9269565 6.49147826,32.173913 8.65495652,32.173913 C10.8114783,32.173913 12.568,33.9269565 12.568,36.0869565 Z" id="Stroke-5"></path>
                    <path d="M30.8288696,36.0869565 C30.8288696,38.2469565 29.0723478,40 26.9158261,40 C24.7523478,40 23.0027826,38.2469565 23.0027826,36.0869565 C23.0027826,33.9269565 24.7523478,32.173913 26.9158261,32.173913 C29.0723478,32.173913 30.8288696,33.9269565 30.8288696,36.0869565 Z" id="Stroke-7"></path>
                    <polyline id="Stroke-9" points="8.65495652 36.0869565 32.1732174 10.4347826 36.9384348 10.4347826"></polyline>
                    <path d="M26.9565217,36.5217391 L24.3478261,29.5652174" id="Stroke-11"></path>
                    <path d="M6.95652174,27.826087 L24.3478261,27.826087" id="Stroke-13"></path>
                </g>
            </g>
        </g>
    </g>
</svg>