<svg width="110" height="88" viewBox="0 0 110 88" fill="none" xmlns="http://www.w3.org/2000/svg">
<path d="M40 82L102.313 23.4452C106.513 19.4987 106.601 12.8552 102.506 8.79956V8.79956C98.6584 4.98865 92.5002 4.85866 88.4953 8.50382L62.4359 32.2222" stroke="#F68282" stroke-width="7.15447"/>
<path fill-rule="evenodd" clip-rule="evenodd" d="M38.9468 0C31.5027 0 24.8821 4.70733 22.4726 11.7133L22.1877 12.5417H0V25.6806C0 35.2458 7.79544 43 17.4116 43H24.5983C23.3276 52.545 21.5144 67.1513 21.5144 72.9607V86H80L77.5299 79.8573L77.5285 79.854L77.521 79.8352L77.4878 79.7518C77.4701 79.7073 77.4471 79.6491 77.4188 79.5773C77.3989 79.5268 77.3764 79.4696 77.3514 79.4057C77.2305 79.0969 77.0508 78.6341 76.821 78.0297C76.3611 76.8209 75.7005 75.0468 74.9059 72.8074C73.316 68.3264 71.1941 61.9947 69.0729 54.6098C67.7068 49.8536 66.7923 46.0083 66.1802 43H69.3462V17.3194C69.3462 7.75418 61.5508 0 51.9346 0H38.9468Z" fill="#5C0000"/>
<path d="M46 15V27.1816C46 34.261 51.739 40 58.8184 40H69.5" stroke="#F68282" stroke-width="6"/>
<path d="M41.1382 79.9511L71.0975 51.3333" stroke="#F68282" stroke-width="7.15447"/>
<rect x="18.7803" y="77.2682" width="60.813" height="10.7317" fill="#F68282"/>
</svg>
