<svg width="93" height="101" viewBox="0 0 93 101" fill="none" xmlns="http://www.w3.org/2000/svg">
<path d="M24.396 49V87.75C24.396 92.8586 28.5374 97 33.646 97V97C38.7546 97 42.896 92.8586 42.896 87.75V82.6842C42.896 74.7778 49.3054 68.3684 57.2118 68.3684H61.396" stroke="#F68282" stroke-width="6.89109"/>
<path d="M16 4H8.62428C6.07036 4 4 6.07036 4 8.62428V32C4 43.0457 12.9543 52 24 52V52C35.0457 52 44 43.0457 44 32V8.62428C44 6.07036 41.9296 4 39.3757 4H32" stroke="#510000" stroke-width="6.89109"/>
<circle cx="77" cy="67" r="16" fill="#5C0000"/>
</svg>
