<svg width="58" height="42" viewBox="0 0 58 42" fill="none" xmlns="http://www.w3.org/2000/svg">
<path d="M58 32C58 37.5228 53.5228 42 48 42C42.4772 42 38 37.5228 38 32C38 26.4772 42.4772 22 48 22C53.5228 22 58 26.4772 58 32Z" fill="#99C4DD"/>
<path fill-rule="evenodd" clip-rule="evenodd" d="M16 11.6364C13.59 11.6364 11.6364 13.59 11.6364 16C11.6364 18.41 13.59 20.3636 16 20.3636C18.41 20.3636 20.3636 18.41 20.3636 16C20.3636 13.59 18.41 11.6364 16 11.6364ZM0 16C0 7.16344 7.16344 0 16 0C24.8366 0 32 7.16344 32 16C32 24.8366 24.8366 32 16 32C7.16344 32 0 24.8366 0 16Z" fill="#FFB8B8"/>
</svg>
