<svg width="84" height="77" viewBox="0 0 84 77" fill="none" xmlns="http://www.w3.org/2000/svg">
<path d="M2 45.0001H82V73.0001C82 75.2093 80.2091 77.0001 78 77.0001H6C3.79086 77.0001 2 75.2093 2 73.0001L2 45.0001Z" fill="#5C0000"/>
<path d="M56 18.0001C56 10.2681 49.732 4.00012 42 4.00012C34.268 4.00012 28 10.2681 28 18.0001" stroke="#5C0000" stroke-width="8"/>
<path fill-rule="evenodd" clip-rule="evenodd" d="M42 32.0001C44.2091 32.0001 46 33.8692 46 36.1749L46 55.8253C46 58.131 44.2091 60.0001 42 60.0001C39.7909 60.0001 38 58.131 38 55.8253L38 36.1749C38 33.8692 39.7909 32.0001 42 32.0001Z" fill="#FFD799"/>
<path d="M0 15.7554L84 15.7554V41.7554C84 43.9645 82.2091 45.7554 80 45.7554H4C1.79086 45.7554 0 43.9645 0 41.7554L0 15.7554Z" fill="#F68282"/>
</svg>
