<?xml version="1.0" encoding="UTF-8"?>
<svg xmlns:xlink="http://www.w3.org/1999/xlink" width="50px" height="50px" viewBox="0 0 50 50" version="1.1" focusable="false"
     role="img" xmlns="http://www.w3.org/2000/svg">
    <!-- Generator: Sketch 58 (84663) - https://sketch.com -->
    <title>NAV veileder/ kvinne/50px/2</title>
    <desc>Created with Sketch.</desc>
    <defs>
        <circle id="path-1" cx="25" cy="25" r="25"></circle>
        <path d="M28.3407164,24.2261581 C28.4748823,24.3003533 28.6264342,24.3421053 28.7867647,24.3421053 C29.3354236,24.3421053 29.7794118,23.8552202 29.7794118,23.2521395 L29.7794118,18.8537551 C29.7794118,18.3377493 29.4543771,17.9063456 29.0168491,17.7925275 C28.8460899,15.3294175 26.4180252,15.0727407 25.1772692,15.1041293 C24.7462059,15.1150344 6.182958,15.1607091 5.95588235,15.1607091 C5.95588235,15.1607091 2.83622061,14.6832982 2.63013727,17.8320082 C2.25375454,17.9867566 1.98529412,18.3854078 1.98529412,18.8537551 L1.98529412,23.2521395 C1.98529412,23.8552202 2.43043249,24.3421053 2.97794118,24.3421053 C3.09927764,24.3421053 3.21549489,24.3182928 3.32292287,24.2746773 C4.43096041,28.0694249 6.71858769,31.2049627 9.66199079,33.0559204 L9.67289644,33.0784045 L9.67092773,33.1248324 C7.1490037,33.3583151 5.02254245,33.6841462 3.77359966,34.0332347 C3.77359966,34.0332347 -0.393069888,28.3157472 0.0301942393,17.6862784 C0.0301942393,17.6862784 1.5286015,-0.173343388 15.7935171,0.00127213138 C30.0571262,0.176556676 31.3334505,15.1607091 31.3334505,15.1607091 C32.4386401,19.7783195 31.3902776,28.0367638 28.5254065,34.2105263 C27.0611536,33.5440929 24.7822403,33.1432218 22.1696166,32.9389805 C25.0375744,31.0663744 27.2607561,27.9637943 28.3407164,24.2261581 Z"
              id="path-3"></path>
        <path d="M10.389968,0.161588884 L10.3888889,0.109282719 C10.3888889,3.04347826 13.1249265,6.08695652 16.5,6.08695652 C19.8403822,6.08695652 22.554798,3.10572251 22.6102462,0.199792781 C24.3581445,0.667443109 26.956456,1.96087353 29.1171635,4.08561467 C31.2772601,6.20975515 33,9.40438595 33,11.8834201 L33,11.8834201 L33,26.7826087 L0,26.7826087 L0,11.8834201 C0,9.40939759 1.68636746,6.22021021 3.80725127,4.09850288 C5.99771011,1.9071935 8.65166129,0.596097549 10.389968,0.161588884 Z"
              id="path-5"></path>
    </defs>
    <g id="Til-eksport" stroke="none" stroke-width="1" fill="none" fill-rule="evenodd">
        <g id="NAV-chatbot-avatar" transform="translate(-181.000000, -208.000000)">
            <g id="NAV-veileder/-kvinne/50px/2" transform="translate(181.000000, 208.000000)">
                <mask id="mask-2" fill="white">
                    <use xlink:href="#path-1"></use>
                </mask>
                <use id="Mask" fill="#D6897D" xlink:href="#path-1"></use>
                <g id="mennesker/Arbeid/-kvinne/-kvinne-Copy" mask="url(#mask-2)">
                    <g transform="translate(2.469834, -9.897436)">
                        <g id="mennesker/kvinne/-forfra" transform="translate(0.000000, 11.892857)">
                            <g id="Group-2">
                                <g id="mennesker/kvinne/⚙️/Hudfarger/kvinne-hud-2-copy"
                                   transform="translate(7.941176, 3.964286)" fill="#E7E5E2" fill-rule="nonzero">
                                    <path d="M14.5009637,0.330357143 C21.5761287,0.330357143 27.3649631,6.77751062 28.008082,14.9928317 C28.4701928,15.2157906 28.7867647,15.7167612 28.7867647,16.2916998 L28.7867647,20.7089344 C28.7867647,21.4439961 28.2692525,22.0576908 27.592004,22.1273467 L27.4632353,22.1339286 C27.3853899,22.1339286 27.3092495,22.1267685 27.2353198,22.1130435 C26.1003002,25.7908046 23.8778481,28.8441718 21.0296083,30.7128026 L21.1751705,32.3509919 L21.1743468,32.4176184 L19.6346944,45.9196429 L9.86980519,45.9196429 L9.82924364,45.635975 L7.94147008,32.3943664 L8.01099241,30.7379766 C5.14855206,28.8743683 2.91366006,25.8162512 1.77202515,22.1284205 L1.65441176,22.1339286 C0.915922926,22.1339286 0.330882353,21.4895519 0.330882353,20.7089344 L0.330882353,16.2916998 C0.330882353,15.7681809 0.5939886,15.3057044 0.990011298,15.0578222 C1.60619086,6.81235614 7.40674422,0.330357143 14.5009637,0.330357143 Z"
                                          id="Combined-Shape"></path>
                                </g>
                                <g id="Group" transform="translate(11.250000, 18.500000)">
                                    <g id="mennesker/X⚙️/⚙️-ansikt-voksen/forfra/-glad"
                                       transform="translate(0.620404, 0.165179)">
                                        <g id="Group" transform="translate(4.323529, 0.000000)">
                                            <path d="M1.43646176,3.46956 C0.542726471,3.53496 0.292579412,2.25516 0.561873529,1.41936 C0.612520588,1.26096 0.908373529,0.53976 1.43213824,0.53976 C1.95528529,0.53976 2.18628529,0.93396 2.21840294,1.00176 C2.60319706,1.81656 2.41419706,3.39756 1.43646176,3.46956"
                                                  id="Fill-42" fill="#635E59"></path>
                                            <path d="M11.4110912,3.46956 C12.3048265,3.53496 12.5549735,2.25516 12.2856794,1.41936 C12.2350324,1.26096 11.9391794,0.53976 11.4154147,0.53976 C10.8922676,0.53976 10.6612676,0.93396 10.62915,1.00176 C10.2443559,1.81656 10.4333559,3.39756 11.4110912,3.46956"
                                                  id="Fill-44" fill="#635E59"></path>
                                            <path d="M6.70719715,4.94092754 C7.23280582,4.86232958 7.59177357,4.91165546 7.72033037,5.06492189 C8.20556997,5.64424995 8.05036255,6.25715304 7.21786675,6.76029521 C6.78016329,7.02473463 6.17767893,7.11780752 5.85872013,6.98068432 C5.7027525,6.91363246 5.52036077,6.98210046 5.4513368,7.13361187 C5.38231283,7.28512328 5.45279459,7.46230382 5.60876222,7.52935568 C6.13592073,7.75598577 6.94660503,7.63074978 7.54410102,7.26977138 C8.67541344,6.58603102 8.93431838,5.56363376 8.19928746,4.68607975 C7.88823969,4.31524605 7.33763245,4.23958692 6.61322638,4.34791246 C6.44465342,4.37312036 6.3290341,4.52630635 6.35498341,4.69006294 C6.38093272,4.85381954 6.53862418,4.96613544 6.70719715,4.94092754 Z"
                                                  id="Stroke-46" fill="#59514B" fill-rule="nonzero"></path>
                                            <path d="M10.2275363,9.31526451 C10.1996791,9.37724789 10.1357965,9.49592511 10.0331292,9.65224782 C9.85933885,9.91686349 9.64110176,10.1821544 9.37603993,10.429544 C8.58617539,11.1667465 7.55809787,11.5930286 6.24961792,11.554041 C4.97377064,11.5160258 3.9502886,11.0963218 3.14785104,10.4195214 C2.85323325,10.1710318 2.60999686,9.90491513 2.41557724,9.6396577 C2.30092813,9.48323558 2.22934055,9.36463609 2.19803115,9.3028335 C2.12272018,9.15417487 1.93761249,9.09297052 1.78458155,9.16612974 C1.63155061,9.23928897 1.56854612,9.41910787 1.64385709,9.5677665 C1.68921907,9.6573079 1.77749822,9.8035604 1.91243512,9.98766227 C2.13399219,10.2899448 2.40949969,10.5913682 2.74291694,10.8725825 C3.64876065,11.6365988 4.80640975,12.1113212 6.23068208,12.153759 C7.71384235,12.1979513 8.89956947,11.7063014 9.80396061,10.862208 C10.1063597,10.5799706 10.3549319,10.277804 10.5538279,9.97496219 C10.6747723,9.7908104 10.7534358,9.64467411 10.7935873,9.55533549 C10.8618308,9.40349084 10.7904384,9.22665472 10.6341277,9.16036095 C10.477817,9.09406718 10.2957799,9.16341987 10.2275363,9.31526451 Z"
                                                  id="Stroke-48" fill="#59514B" fill-rule="nonzero"></path>
                                        </g>
                                    </g>
                                </g>
                                <g id="mennesker/X⚙️/⚙️kvinne/-hår/---copy">
                                    <g id="hårfarge/-brunn" transform="translate(6.617647, 1.315789)">
                                        <mask id="mask-4" fill="white">
                                            <use xlink:href="#path-3"></use>
                                        </mask>
                                        <use id="Path-Copy-6" fill="#38383A" xlink:href="#path-3"></use>
                                        <g id="mennesker/X⚙️/⚙️-hårfarge/-gull" mask="url(#mask-4)" fill="#F6B873">
                                            <g transform="translate(-7.279412, -1.973684)" id="hårfarge/-gull">
                                                <rect x="0" y="0" width="46" height="52"></rect>
                                            </g>
                                        </g>
                                    </g>
                                </g>
                            </g>
                            <g id="mennesker/X⚙️/⚙️-kropp/voksen/Forfra/-rundhals"
                               transform="translate(5.955882, 33.696429)">
                                <g id="Group" transform="translate(0.000000, 1.217391)">
                                    <mask id="mask-6" fill="white">
                                        <use xlink:href="#path-5"></use>
                                    </mask>
                                    <use id="Mask" fill="#D8A25D" xlink:href="#path-5"></use>
                                    <g id="V⚙️/STYLING/farge/Grå/-20" mask="url(#mask-6)" fill="#C6C2BF">
                                        <g transform="translate(-22.000000, -17.043478)" id="Fill-1-Copy-2">
                                            <polygon points="0 61 77 61 77 0 0 0"></polygon>
                                        </g>
                                    </g>
                                </g>
                            </g>
                        </g>
                        <g id="mennesker/tilbehør/-headsett" transform="translate(1.323529, 2.642857)">
                            <g id="headset" transform="translate(3.937500, 12.485714)">
                                <path d="M3.17496324,16.8981657 C3.17496324,8.96776571 9.36497059,2.53828 17.0009412,2.53828 C24.6362426,2.53828 30.82625,8.96776571 30.82625,16.8981657 C30.82625,18.4733371 30.5786765,19.9873943 30.1270221,21.4055086 C31.1025956,19.4827086 31.6539485,17.3167657 31.6539485,15.0233371 C31.6539485,7.09293714 25.09325,0.664108571 17.0009412,0.664108571 C8.90729412,0.664108571 2.34726471,7.09293714 2.34726471,15.0233371 C2.34726471,17.3167657 2.89861765,19.4827086 3.87419118,21.4055086 C3.42253676,19.9873943 3.17496324,18.4733371 3.17496324,16.8981657"
                                      id="Fill-210" fill="#145570"></path>
                                <path d="M32.5308941,26.8849629 L30.0866074,26.8849629 C29.4609824,26.8849629 28.9491074,26.3822486 28.9491074,25.76782 L28.9491074,15.7615057 C28.9491074,15.1470771 29.4609824,14.6443629 30.0866074,14.6443629 L32.5308941,14.6443629 C33.1565191,14.6443629 33.6683941,15.1470771 33.6683941,15.7615057 L33.6683941,25.76782 C33.6683941,26.3822486 33.1565191,26.8849629 32.5308941,26.8849629"
                                      id="Fill-212" fill="#38383A"></path>
                                <path d="M1.51883015,26.8849629 L3.96311691,26.8849629 C4.58874191,26.8849629 5.10061691,26.3822486 5.10061691,25.76782 L5.10061691,15.7615057 C5.10061691,15.1470771 4.58874191,14.6443629 3.96311691,14.6443629 L1.51883015,14.6443629 C0.893205147,14.6443629 0.381330147,15.1470771 0.381330147,15.7615057 L0.381330147,25.76782 C0.381330147,26.3822486 0.893205147,26.8849629 1.51883015,26.8849629"
                                      id="Fill-214" fill="#38383A"></path>
                                <path d="M17.0006735,0.465585714 C14.4125265,0.465585714 11.9715853,1.11747143 9.81368088,2.26681429 L9.81368088,4.6621 C11.9468279,3.36555714 14.3951294,2.62627143 17.0006735,2.62627143 C19.7661368,2.62627143 22.3542838,3.46084286 24.5770926,4.90984286 L24.5770926,2.47644286 C22.3261809,1.19435714 19.7453941,0.465585714 17.0006735,0.465585714"
                                      id="Fill-216" fill="#38383A"></path>
                                <path d="M13.9484934,31.6877571 L13.9484934,33.3923857 C13.9484934,33.8287286 14.3118243,34.1862143 14.7567875,34.1862143 L19.2452287,34.1862143 C19.6895228,34.1862143 20.0528537,33.8287286 20.0528537,33.3923857 L20.0528537,31.6877571 C20.0528537,31.2514143 19.6895228,30.8939286 19.2452287,30.8939286 L14.7567875,30.8939286 C14.3118243,30.8939286 13.9484934,31.2514143 13.9484934,31.6877571"
                                      id="Fill-218" fill="#38383A"></path>
                                <path d="M30.6039022,26.8849629 C30.6039022,26.8849629 30.5885125,26.8836486 30.5804831,26.8836486 C28.9056816,29.6837343 24.9123875,31.7813343 20.052586,32.2715629 L20.052586,33.0233343 C26.0204463,32.9385629 30.9458213,30.3211629 31.990314,26.8849629 L30.6039022,26.8849629 Z"
                                      id="Fill-220" fill="#145570"></path>
                            </g>
                        </g>
                    </g>
                </g>
            </g>
        </g>
    </g>
</svg>