<svg width="106" height="84" viewBox="0 0 106 84" fill="none" xmlns="http://www.w3.org/2000/svg">
<path d="M85.348 8.05349L82.9526 5.39664L85.348 8.05349ZM40.9827 80.8912L100.965 25.0587L96.0903 19.8218L36.1081 75.6543L40.9827 80.8912ZM82.9526 5.39664L57.7701 28.1008L62.5608 33.4144L87.7434 10.7103L82.9526 5.39664ZM101.218 5.78198C96.1883 0.846815 88.1864 0.678006 82.9526 5.39664L87.7434 10.7103C90.1687 8.5237 93.8768 8.60193 96.2078 10.8889L101.218 5.78198ZM100.965 25.0587C106.529 19.88 106.644 11.1052 101.218 5.78198L96.2078 10.8889C98.722 13.3557 98.6685 17.422 96.0903 19.8218L100.965 25.0587Z" fill="#F68282"/>
<path fill-rule="evenodd" clip-rule="evenodd" d="M37.5306 0C30.3572 0 23.9773 4.49336 21.6554 11.1809L21.3809 11.9716H0V24.5133C0 33.6438 7.51197 41.0455 16.7785 41.0455H23.7038C22.4793 50.1566 20.732 64.0991 20.732 69.6443V82.091H77.0909L74.7106 76.2275L74.7093 76.2243L74.7021 76.2064L74.6701 76.1268C74.6411 76.0544 74.5969 75.9438 74.5386 75.7964C74.4221 75.5017 74.249 75.0599 74.0275 74.483C73.5843 73.3291 72.9477 71.6356 72.1821 69.4981C70.6499 65.2207 68.6053 59.1768 66.5612 52.1275C65.2447 47.5875 64.3635 43.917 63.7737 41.0455H66.8245V16.5322C66.8245 7.40172 59.3126 0 50.0461 0H37.5306Z" fill="#5C0000"/>
<path d="M41.3274 14.3182V25.3634H47.3274V14.3182H41.3274ZM57.1458 41.1818H66.9728V35.1818H57.1458V41.1818ZM41.3274 25.3634C41.3274 34.0997 48.4095 41.1818 57.1458 41.1818V35.1818C51.7233 35.1818 47.3274 30.786 47.3274 25.3634H41.3274Z" fill="#F68282"/>
<path d="M39.6423 76.317L68.5123 49" stroke="#F68282" stroke-width="7.15447"/>
<rect x="18.0977" y="73.756" width="58.6016" height="10.2439" fill="#F68282"/>
</svg>
