<svg width="94" height="94" viewBox="0 0 94 94" fill="none" xmlns="http://www.w3.org/2000/svg">
<path d="M76 39.3333C76 29.7604 68.6873 22 59.6667 22C55.0956 22 50.9632 23.9927 48.0015 27.2041C45.0368 23.9927 40.9044 22 36.3333 22C27.3127 22 20 29.7604 20 39.3333C20 44.1855 21.8787 48.5719 24.9062 51.7182L48 74L71.0938 51.7182C74.1213 48.5719 76 44.1855 76 39.3333Z" fill="#CCE2F0"/>
<path fill-rule="evenodd" clip-rule="evenodd" d="M63.583 58.6668C63.583 58.3447 63.8442 58.0835 64.1663 58.0835H75.833C76.1552 58.0835 76.4163 58.3447 76.4163 58.6668V61.5833H63.583V58.6668ZM60.083 61.5833V58.6668C60.083 56.4117 61.9112 54.5835 64.1663 54.5835H75.833C78.0882 54.5835 79.9163 56.4117 79.9163 58.6668V61.5833H89.8333C91.4442 61.5833 92.75 62.8892 92.75 64.5V76.1667C92.75 77.7775 91.4442 79.0833 89.8333 79.0833H89.25V90.1667C89.25 91.7775 87.9442 93.0833 86.3333 93.0833H53.6667C52.0558 93.0833 50.75 91.7775 50.75 90.1667V79.0833H50.1667C48.5558 79.0833 47.25 77.7775 47.25 76.1667V64.5C47.25 62.8892 48.5558 61.5833 50.1667 61.5833H60.083ZM71.75 79.0833H85.75V89.5833H54.25V79.0833H68.25V82C68.25 82.9665 69.0335 83.75 70 83.75C70.9665 83.75 71.75 82.9665 71.75 82V79.0833ZM71.75 72.6667V75.5833H89.25V65.0833H50.75V75.5833H68.25V72.6667C68.25 71.7002 69.0335 70.9167 70 70.9167C70.9665 70.9167 71.75 71.7002 71.75 72.6667Z" fill="#262626"/>
<path fill-rule="evenodd" clip-rule="evenodd" d="M30.2852 5.33343C30.2852 4.38665 31.0527 3.61914 31.9994 3.61914H39.9994C42.2086 3.61914 43.9994 5.41 43.9994 7.61914V39.6191C43.9994 41.8283 42.2086 43.6191 39.9994 43.6191H31.9994C31.0527 43.6191 30.2852 42.8516 30.2852 41.9049C30.2852 40.9581 31.0527 40.1906 31.9994 40.1906H39.9994C40.315 40.1906 40.5709 39.9347 40.5709 39.6191V7.61914C40.5709 7.30355 40.315 7.04771 39.9994 7.04771H31.9994C31.0527 7.04771 30.2852 6.2802 30.2852 5.33343ZM2.85645 23.6191C2.85645 22.6723 3.62396 21.9048 4.57073 21.9048H26.7177L19.3585 14.5456C18.6891 13.8761 18.6891 12.7907 19.3585 12.1212C20.028 11.4518 21.1134 11.4518 21.7829 12.1212L32.0686 22.407C32.7381 23.0764 32.7381 24.1619 32.0686 24.8313L21.7829 35.117C21.1134 35.7865 20.028 35.7865 19.3585 35.117C18.6891 34.4476 18.6891 33.3621 19.3585 32.6927L26.7179 25.3334H4.57073C3.62396 25.3334 2.85645 24.5658 2.85645 23.6191Z" fill="#262626"/>
</svg>
