<svg width="64" height="64" viewBox="0 0 64 64" fill="none" xmlns="http://www.w3.org/2000/svg">
<g>
<path d="M30.6667 43.2709V11L11 52.3333L30.6667 43.2709Z" fill="#CCE2F0"/>
</g>
<g>
<path d="M30.6663 43.2709V11L50.333 52.3333L30.6663 43.2709Z" fill="#CCE2F0"/>
</g>
<path d="M1.33334 1.33333V36.6667H30.6667V7.22222L24.381 1.33333H1.33334Z" stroke="#262626" stroke-width="2" stroke-linecap="round" stroke-linejoin="round"/>
<path d="M22.8571 1.33333V9.14286H30.6667" stroke="#262626" stroke-width="2" stroke-linecap="round" stroke-linejoin="round"/>
<path d="M22.1905 20.5238C22.1905 17.289 19.5681 14.6667 16.3333 14.6667C13.0985 14.6667 10.4762 17.289 10.4762 20.5238C10.4762 23.7586 13.0985 26.381 16.3333 26.381" stroke="#262626" stroke-width="2" stroke-linecap="round" stroke-linejoin="round"/>
<path d="M36.6132 52.5651C36.7428 52.8301 36.6979 53.1503 36.4893 53.3589L34.5533 55.2949C34.2929 55.5553 34.2929 55.9774 34.5533 56.2377L38.4293 60.1137C38.6896 60.3741 39.1117 60.3741 39.3721 60.1137L41.3082 58.1776C41.5168 57.969 41.8369 57.9241 42.102 58.0537C42.5379 58.2668 42.9888 58.4541 43.4525 58.6136C43.7314 58.7095 43.9259 58.9676 43.9259 59.2625V62C43.9259 62.3682 44.2244 62.6667 44.5926 62.6667H50.0741C50.4423 62.6667 50.7407 62.3682 50.7407 62V59.2625C50.7407 58.9676 50.9352 58.7095 51.2141 58.6136C51.678 58.4541 52.1289 58.2667 52.5649 58.0535C52.83 57.9239 53.1501 57.9688 53.3588 58.1775L55.2949 60.1136C55.5552 60.3739 55.9774 60.3739 56.2377 60.1136L60.1137 56.2376C60.3741 55.9773 60.3741 55.5551 60.1137 55.2948L58.1775 53.3586C57.9689 53.15 57.924 52.8299 58.0536 52.5648C58.2667 52.1288 58.4541 51.6779 58.6136 51.2141C58.7095 50.9352 58.9676 50.7407 59.2625 50.7407H62C62.3682 50.7407 62.6667 50.4423 62.6667 50.0741V44.5926C62.6667 44.2244 62.3682 43.9259 62 43.9259H59.2625C58.9676 43.9259 58.7095 43.7314 58.6136 43.4525C58.4541 42.9888 58.2668 42.5379 58.0537 42.102C57.9241 41.8369 57.969 41.5168 58.1776 41.3082L60.1139 39.3719C60.3742 39.1116 60.3742 38.6894 60.1139 38.4291L56.2379 34.5531C55.9775 34.2928 55.5554 34.2928 55.2951 34.5531L53.3589 36.4893C53.1503 36.6979 52.8301 36.7428 52.5651 36.6132C52.129 36.4 51.678 36.2126 51.2141 36.0531C50.9352 35.9571 50.7407 35.6991 50.7407 35.4041V32.6667C50.7407 32.2985 50.4423 32 50.0741 32H44.5926C44.2244 32 43.9259 32.2985 43.9259 32.6667V35.4041C43.9259 35.6991 43.7314 35.9571 43.4525 36.0531C42.9887 36.2126 42.5378 36.3999 42.1019 36.6131C41.8368 36.7427 41.5167 36.6978 41.308 36.4891L39.3719 34.553C39.1116 34.2926 38.6894 34.2926 38.4291 34.553L34.5531 38.429C34.2928 38.6893 34.2928 39.1114 34.5531 39.3718L36.4892 41.3079C36.6978 41.5165 36.7427 41.8367 36.6131 42.1017C36.4 42.5377 36.2126 42.9887 36.0531 43.4525C35.9571 43.7314 35.6991 43.9259 35.4041 43.9259H32.6667C32.2985 43.9259 32 44.2244 32 44.5926V50.0741C32 50.4423 32.2985 50.7407 32.6667 50.7407H35.4041C35.6991 50.7407 35.9571 50.9352 36.0531 51.2141C36.2126 51.678 36.4 52.129 36.6132 52.5651Z" stroke="#262626" stroke-width="2" stroke-linejoin="round"/>
<path d="M50.7408 47.3333C50.7408 49.2152 49.2152 50.7407 47.3333 50.7407C45.4515 50.7407 43.9259 49.2152 43.9259 47.3333C43.9259 45.4515 45.4515 43.9259 47.3333 43.9259C49.2152 43.9259 50.7408 45.4515 50.7408 47.3333Z" stroke="#262626" stroke-width="2" stroke-linejoin="round"/>
</svg>
