<svg width="67" height="69" viewBox="0 0 67 69" fill="none" xmlns="http://www.w3.org/2000/svg">
<path d="M50 27.1111C50 20.9746 45.299 16 39.5 16C36.5615 16 33.9049 17.2774 32.0009 19.336C30.0951 17.2774 27.4385 16 24.5 16C18.701 16 14 20.9746 14 27.1111C14 30.2214 15.2077 33.0333 17.154 35.0502L17 35.0476L32 49.3333L47 35.0476L46.846 35.0502C48.7923 33.0333 50 30.2214 50 27.1111Z" fill="#CCE2F0"/>
<path fill-rule="evenodd" clip-rule="evenodd" d="M23.8 2.8L16.8 2.8V0L23.8 3.33786e-07C26.1196 4.17233e-07 28 1.8804 28 4.2V23.8C28 26.1196 26.1196 28 23.8 28H16.8V25.2H23.8C24.5732 25.2 25.2 24.5732 25.2 23.8V4.2C25.2 3.4268 24.5732 2.8 23.8 2.8ZM12.1899 6.01005L20.1799 14L12.1899 21.9899L10.21 20.0101L14.8201 15.4L0 15.4V12.6L14.8201 12.6L10.21 7.98995L12.1899 6.01005Z" fill="#262626"/>
<path fill-rule="evenodd" clip-rule="evenodd" d="M42.4167 37.3332C42.4167 37.1031 42.6032 36.9165 42.8333 36.9165H51.1667C51.3968 36.9165 51.5833 37.1031 51.5833 37.3332V39.4165H42.4167V37.3332ZM39.9167 39.4165V37.3332C39.9167 35.7223 41.2225 34.4165 42.8333 34.4165H51.1667C52.7775 34.4165 54.0833 35.7223 54.0833 37.3332V39.4165H61.1667C62.3173 39.4165 63.25 40.3492 63.25 41.4998V49.8332C63.25 50.9838 62.3173 51.9165 61.1667 51.9165H60.75V59.8332C60.75 60.9838 59.8173 61.9165 58.6667 61.9165H35.3333C34.1827 61.9165 33.25 60.9838 33.25 59.8332V51.9165H32.8333C31.6827 51.9165 30.75 50.9838 30.75 49.8332V41.4998C30.75 40.3492 31.6827 39.4165 32.8333 39.4165H39.9167ZM48.25 51.9165H58.25V59.4165H35.75V51.9165H45.75V53.9998C45.75 54.6902 46.3096 55.2498 47 55.2498C47.6904 55.2498 48.25 54.6902 48.25 53.9998V51.9165ZM48.25 47.3332V49.4165H60.75V41.9165H33.25V49.4165H45.75V47.3332C45.75 46.6428 46.3096 46.0832 47 46.0832C47.6904 46.0832 48.25 46.6428 48.25 47.3332Z" fill="#262626"/>
</svg>
