<svg width="96" height="96" viewBox="0 0 96 96" fill="none" xmlns="http://www.w3.org/2000/svg">
<path d="M46 64.9064V16.5L16.5 78.5L46 64.9064Z" fill="#CCE2F0"/>
<path d="M46 64.9064V16.5L75.5 78.5L46 64.9064Z" fill="#CCE2F0"/>
<path d="M1.99902 2.00049V55.0005H45.999V10.8338L36.5704 2.00049H1.99902Z" stroke="#262626" stroke-width="3" stroke-linecap="round" stroke-linejoin="round"/>
<path d="M34.2842 2.00049V13.7148H45.9985" stroke="#262626" stroke-width="3" stroke-linecap="round" stroke-linejoin="round"/>
<path d="M33.2843 30.7867C33.2843 25.9345 29.3508 22.001 24.4986 22.001C19.6464 22.001 15.7129 25.9345 15.7129 30.7867C15.7129 35.6389 19.6464 39.5724 24.4986 39.5724" stroke="#262626" stroke-width="3" stroke-linecap="round" stroke-linejoin="round"/>
<path d="M54.9198 78.8476C55.1142 79.2452 55.0469 79.7254 54.7339 80.0384L51.8299 82.9424C51.4394 83.3329 51.4394 83.966 51.8299 84.3566L57.6439 90.1706C58.0344 90.5611 58.6676 90.5611 59.0581 90.1706L61.9623 87.2664C62.2752 86.9535 62.7554 86.8861 63.153 87.0805C63.8069 87.4002 64.4832 87.6811 65.1788 87.9204C65.5972 88.0643 65.8889 88.4514 65.8889 88.8938V93C65.8889 93.5523 66.3366 94 66.8889 94H75.1111C75.6634 94 76.1111 93.5523 76.1111 93V88.8938C76.1111 88.4514 76.4028 88.0643 76.8212 87.9204C77.517 87.6811 78.1934 87.4 78.8474 87.0803C79.245 86.8859 79.7252 86.9533 80.0382 87.2662L82.9424 90.1704C83.3329 90.5609 83.966 90.5609 84.3566 90.1704L90.1706 84.3564C90.5611 83.9659 90.5611 83.3327 90.1706 82.9422L87.2663 80.038C86.9534 79.725 86.886 79.2448 87.0804 78.8472C87.4001 78.1932 87.6811 77.5169 87.9204 76.8212C88.0643 76.4028 88.4514 76.1111 88.8938 76.1111H93C93.5523 76.1111 94 75.6634 94 75.1111V66.8889C94 66.3366 93.5523 65.8889 93 65.8889H88.8938C88.4514 65.8889 88.0643 65.5972 87.9204 65.1788C87.6811 64.4832 87.4002 63.8069 87.0805 63.153C86.8861 62.7554 86.9535 62.2752 87.2664 61.9623L90.1708 59.0579C90.5613 58.6673 90.5613 58.0342 90.1708 57.6436L84.3568 51.8297C83.9663 51.4391 83.3331 51.4391 82.9426 51.8297L80.0384 54.7339C79.7254 55.0469 79.2452 55.1142 78.8476 54.9198C78.1935 54.6 77.5171 54.3189 76.8212 54.0796C76.4028 53.9357 76.1111 53.5486 76.1111 53.1062V49C76.1111 48.4477 75.6634 48 75.1111 48H66.8889C66.3366 48 65.8889 48.4477 65.8889 49V53.1062C65.8889 53.5486 65.5972 53.9357 65.1788 54.0796C64.4831 54.3189 63.8068 54.5999 63.1528 54.9196C62.7552 55.114 62.275 55.0466 61.962 54.7337L59.0579 51.8295C58.6673 51.439 58.0342 51.439 57.6436 51.8295L51.8297 57.6435C51.4391 58.034 51.4391 58.6672 51.8297 59.0577L54.7338 61.9618C55.0467 62.2748 55.1141 62.755 54.9197 63.1526C54.6 63.8066 54.3189 64.483 54.0796 65.1788C53.9357 65.5972 53.5486 65.8889 53.1062 65.8889H49C48.4477 65.8889 48 66.3366 48 66.8889V75.1111C48 75.6634 48.4477 76.1111 49 76.1111H53.1062C53.5486 76.1111 53.9357 76.4028 54.0796 76.8212C54.3189 77.5171 54.6 78.1935 54.9198 78.8476Z" stroke="#262626" stroke-width="3" stroke-linejoin="round"/>
<path d="M76.1109 70.9998C76.1109 73.8226 73.8226 76.1109 70.9998 76.1109C68.177 76.1109 65.8887 73.8226 65.8887 70.9998C65.8887 68.177 68.177 65.8887 70.9998 65.8887C73.8226 65.8887 76.1109 68.177 76.1109 70.9998Z" stroke="#262626" stroke-width="3" stroke-linejoin="round"/>
</svg>
