<svg width="64" height="64" viewBox="0 0 64 64" fill="none" xmlns="http://www.w3.org/2000/svg">
<path fill-rule="evenodd" clip-rule="evenodd" d="M27.3333 30.4061V24.667H38.2279L38.2423 30.4061H27.3333Z" fill="#FFE6E6"/>
<path fill-rule="evenodd" clip-rule="evenodd" d="M28.1911 16.667L20 40.667H26.0031L27.781 35.4496H35.9014L37.7426 40.667H44L35.5173 16.667H34.1818H29.2727H28.1911ZM31.7702 23.7437L29.7368 29.7105H33.8759L31.7702 23.7437Z" fill="#FFE6E6"/>
<path fill-rule="evenodd" clip-rule="evenodd" d="M31.5243 16.667L23.3333 40.667H29.3363L31.1143 35.4496H39.2346L41.0759 40.667H47.3333L38.8506 16.667H37.5151H32.606H31.5243ZM35.1034 23.7437L33.0701 29.7105H37.2092L35.1034 23.7437Z" fill="#FFE6E6"/>
<circle cx="32.6667" cy="30.6667" r="18.6667" fill="#FFE6E6"/>
<circle cx="23.3334" cy="13.9997" r="2.66667" stroke="#262626" stroke-width="2"/>
<circle cx="23.3334" cy="4.66667" r="2.66667" stroke="#262626" stroke-width="2"/>
<path d="M21.5555 31.5556H19.9999M19.9999 31.5556H4.44436C2.72614 31.5556 1.33325 30.1627 1.33325 28.4444V2L5.22214 3.55556L9.33325 2L12.9999 3.55556L16.8888 2V28.4444M19.9999 31.5556C18.2817 31.5556 16.8888 30.1627 16.8888 28.4444M19.9999 31.5556H23.111C24.8293 31.5556 26.2222 30.1627 26.2222 28.4444V20.6667H16.8888L16.8888 28.4444M5.99992 11.3333H12.2221M5.99992 23.7778H12.2221M5.99992 17.5556H12.2221" stroke="#262626" stroke-width="2" stroke-linecap="round" stroke-linejoin="round"/>
<path d="M51.9176 50.4121L53.6121 52.1066M53.6121 52.1066C54.5479 53.0424 56.0652 53.0424 57.001 52.1066C57.9368 51.1708 57.9368 49.6535 57.001 48.7177L49.8843 41.601M53.6121 52.1066C54.5479 53.0424 54.5479 54.5596 53.6121 55.4954C52.6763 56.4313 51.159 56.4313 50.2232 55.4954M50.2232 55.4954L48.5288 53.801M50.2232 55.4954C51.159 56.4313 51.159 57.9485 50.2232 58.8843C49.2874 59.8202 47.7701 59.8202 46.8343 58.8843M45.1399 57.1899L46.8343 58.8843M46.8343 58.8843C47.7701 59.8202 47.7701 61.3374 46.8343 62.2732C45.8985 63.209 44.3812 63.209 43.4454 62.2732L31.4101 50.2379C27.5517 46.3795 26.8908 40.359 29.8203 35.7555C33.2071 30.4334 40.5445 29.8436 44.583 34.6898M51.9176 40.2455L45.4378 44.5653C43.4016 45.9228 40.6505 45.3726 39.2931 43.3364C38.7425 42.5105 38.8084 41.4192 39.4543 40.6656L44.3661 34.9352C48.9283 29.6126 57.3571 30.2941 61.0049 36.2806C63.5939 40.5293 62.7807 46.0207 59.0714 49.3368L57.6868 50.6898" stroke="#262626" stroke-width="2" stroke-linecap="round" stroke-linejoin="round"/>
</svg>
