<svg width="64" height="64" viewBox="0 0 64 64" fill="none" xmlns="http://www.w3.org/2000/svg">
<g clip-path="url(#clip0_227_1580)">
<circle cx="32.6667" cy="30.6667" r="18.6667" fill="#FFE6E6"/>
<path d="M30 21.3335H32.6667V45.3335L31.3333 49.3335L30 45.3335V21.3335Z" fill="#FFE6E6"/>
<rect x="1.33325" y="6" width="28" height="26.4444" stroke="#262626" stroke-width="2" stroke-linejoin="round"/>
<path d="M1.33325 13.7778H29.3333" stroke="#262626" stroke-width="2"/>
<path d="M9.11108 1.3335V9.11127" stroke="#262626" stroke-width="2" stroke-linecap="round"/>
<path d="M21.5554 1.3335V9.11127" stroke="#262626" stroke-width="2" stroke-linecap="round"/>
<path d="M59.6666 45.8145V40.9997C59.6666 40.0792 58.9204 39.333 57.9999 39.333H32.9999C32.0794 39.333 31.3333 40.0792 31.3333 40.9997V60.9997C31.3333 61.9202 32.0794 62.6663 32.9999 62.6663H57.9999C58.9204 62.6663 59.6666 61.9201 59.6666 60.9997V55.613" stroke="#262626" stroke-width="2"/>
<path d="M48 51C48 48.2386 50.2386 46 53 46H61.3333C62.2538 46 63 46.7462 63 47.6667V54.3333C63 55.2538 62.2538 56 61.3333 56H53C50.2386 56 48 53.7614 48 51V51Z" stroke="#262626" stroke-width="2"/>
<path d="M52.1665 51H52.9998" stroke="#262626" stroke-width="2" stroke-linecap="round"/>
</g>
<defs>
<clipPath id="clip0_227_1580">
<rect width="64" height="64" fill="white"/>
</clipPath>
</defs>
</svg>
