<svg xmlns="http://www.w3.org/2000/svg" xmlns:xlink="http://www.w3.org/1999/xlink" width="24px" height="24px" viewBox="0 0 24 24" version="1.1">
    <title>New icons 2px/24px/information</title>
    <g id="News-varsel" stroke="none" stroke-width="1" fill="none" fill-rule="evenodd">
        <g transform="translate(-164.000000, -106.000000)" fill="currentColor">
            <g transform="translate(164.000000, 106.000000)">
                <path d="M12,0 C18.627417,0 24,5.372583 24,12 C24,18.627417 18.627417,24 12,24 C5.372583,24 0,18.627417 0,12 C0,5.372583 5.372583,0 12,0 Z M12,2 C6.4771525,2 2,6.4771525 2,12 C2,17.5228475 6.4771525,22 12,22 C17.5228475,22 22,17.5228475 22,12 C22,6.4771525 17.5228475,2 12,2 Z M9,19 L9,17 L11,17 L11,12 L9,12 L9,10 L13,10 L13,17 L15,17 L15,19 L9,19 Z M12,5 C12.8284271,5 13.5,5.67157288 13.5,6.5 C13.5,7.32842712 12.8284271,8 12,8 C11.1715729,8 10.5,7.32842712 10.5,6.5 C10.5,5.67157288 11.1715729,5 12,5 Z" />
            </g>
        </g>
    </g>
</svg>
