<?xml version="1.0" encoding="utf-8"?>
<!-- Generator: Adobe Illustrator 17.0.0, SVG Export Plug-In . SVG Version: 6.00 Build 0)  -->
<!DOCTYPE svg PUBLIC "-//W3C//DTD SVG 1.1//EN" "http://www.w3.org/Graphics/SVG/1.1/DTD/svg11.dtd">
<svg version="1.1" id="Layer_1" xmlns="http://www.w3.org/2000/svg" xmlns:xlink="http://www.w3.org/1999/xlink" x="0px" y="0px"
	 width="26px" height="26px" viewBox="0 0 26 26" enable-background="new 0 0 26 26" xml:space="preserve">
<path fill="#2768B2" d="M25.495,22.549l-9.237-9.236c2.1-3.436,1.576-7.939-1.29-10.804c-1.662-1.662-3.871-2.577-6.22-2.577
	c-2.351,0-4.56,0.915-6.221,2.577C0.865,4.171-0.05,6.381-0.05,8.73c0,2.35,0.915,4.559,2.577,6.221
	c1.661,1.661,3.868,2.576,6.218,2.576c1.628,0,3.207-0.444,4.586-1.287l9.235,9.238c0.294,0.293,0.7,0.454,1.145,0.454
	c0.557,0,1.125-0.248,1.557-0.681c0.382-0.382,0.621-0.866,0.671-1.365C25.993,23.363,25.834,22.889,25.495,22.549z M15.111,8.73
	c0,1.703-0.661,3.301-1.862,4.501c-1.2,1.2-2.799,1.862-4.502,1.862c-1.703,0-3.301-0.661-4.502-1.862
	c-1.2-1.2-1.862-2.798-1.861-4.501c0-1.703,0.661-3.301,1.862-4.502c1.201-1.2,2.799-1.862,4.502-1.862
	c1.702,0,3.301,0.661,4.501,1.862C14.45,5.429,15.111,7.027,15.111,8.73z"/>
</svg>
