<?xml version="1.0" encoding="utf-8"?>
<!-- Generator: Adobe Illustrator 17.0.0, SVG Export Plug-In . SVG Version: 6.00 Build 0)  -->
<!DOCTYPE svg PUBLIC "-//W3C//DTD SVG 1.1//EN" "http://www.w3.org/Graphics/SVG/1.1/DTD/svg11.dtd">
<svg version="1.1" id="Layer_1" xmlns="http://www.w3.org/2000/svg" xmlns:xlink="http://www.w3.org/1999/xlink" x="0px" y="0px"
	 width="16px" height="16px" viewBox="0 0 16 16" enable-background="new 0 0 16 16" xml:space="preserve">
<path fill="#2768B2" d="M15.72,13.918l-5.684-5.684c1.292-2.115,0.97-4.885-0.794-6.649C8.22,0.563,6.86,0,5.414,0
	C3.968,0,2.608,0.563,1.586,1.586C0.563,2.609,0,3.968,0,5.414C0,6.861,0.563,8.22,1.586,9.243c1.022,1.022,2.381,1.585,3.827,1.585
	c1.002,0,1.973-0.274,2.822-0.792l5.683,5.685C14.099,15.9,14.349,16,14.623,16c0.343,0,0.692-0.153,0.958-0.419
	c0.235-0.235,0.382-0.533,0.413-0.84C16.026,14.419,15.929,14.127,15.72,13.918z M9.33,5.414c0,1.048-0.407,2.032-1.146,2.77
	C7.446,8.923,6.461,9.33,5.414,9.33c-1.048,0-2.031-0.407-2.77-1.146c-0.738-0.738-1.146-1.722-1.145-2.77
	c0-1.048,0.407-2.032,1.146-2.77c0.739-0.739,1.722-1.146,2.77-1.146c1.047,0,2.031,0.407,2.77,1.146
	C8.923,3.383,9.33,4.366,9.33,5.414z"/>
</svg>
