<svg width="146" height="160" viewBox="0 0 146 160" fill="none" xmlns="http://www.w3.org/2000/svg">
<path d="M96 140L96 120L96 120L96 140ZM96 120L8 120L8 160L96 160L96 120ZM80 100L96 100L96 60L80 60L80 100ZM106 110C106 115.523 101.523 120 96 120L96 160C123.614 160 146 137.614 146 110L106 110ZM146 110C146 82.3858 123.614 60 96 60L96 100C101.523 100 106 104.477 106 110L146 110Z" fill="#99C4DD"/>
<path d="M50 20L50 2.78916e-06L50 2.78916e-06L50 20ZM50 80L50 100L50 100L50 80ZM20 50L0 50L0 50L20 50ZM50 40L136 40L136 0L50 2.78916e-06L50 40ZM81 60L50 60L50 100L81 100L81 60ZM40 50C40 44.4772 44.4772 40 50 40L50 2.78916e-06C22.3858 8.81769e-06 3.29296e-07 22.3858 0 50L40 50ZM0 50C3.54051e-06 77.6142 22.3858 100 50 100L50 60C44.4772 60 40 55.5229 40 50L0 50Z" fill="#FFB8B8"/>
</svg>
